<?xml version="1.0" encoding="UTF-8"?>
<svg version="1.1" xmlns="http://www.w3.org/2000/svg" width="500" height="500">
<path d="M0 0 C2.58820697 -0.00271738 5.17641316 -0.00628247 7.76461792 -0.01062012 C14.00812304 -0.01942187 20.25157956 -0.01763386 26.49508643 -0.01179484 C31.57828142 -0.00724151 36.66146297 -0.00668111 41.74465942 -0.00884247 C42.47357283 -0.00914893 43.20248624 -0.0094554 43.95348793 -0.00977115 C45.4351701 -0.01041073 46.91685226 -0.01105916 48.39853442 -0.01171634 C62.22825192 -0.01739262 76.05794273 -0.01090446 89.88765585 -0.0001156 C101.70343756 0.00881743 113.51917994 0.00726462 125.33496094 -0.00195312 C139.12185657 -0.01270385 152.90872892 -0.01684355 166.69562817 -0.0107286 C168.17126147 -0.01009163 169.64689477 -0.00946289 171.12252808 -0.00884247 C172.21102998 -0.00837964 172.21102998 -0.00837964 173.32152182 -0.00790747 C178.38697125 -0.00619486 183.45240568 -0.00906429 188.51785278 -0.01380157 C195.36022748 -0.02006123 202.20252758 -0.01548038 209.04489517 -0.00401306 C211.53836064 -0.00139515 214.0318324 -0.00208165 216.52529526 -0.00653839 C231.61438336 -0.03099726 246.43181535 0.60176959 261.43359375 2.25878906 C261.43359375 2.91878906 261.43359375 3.57878906 261.43359375 4.25878906 C262.98046875 4.19691406 262.98046875 4.19691406 264.55859375 4.13378906 C268.35097582 4.25612397 270.9085891 4.95606995 274.43359375 6.25878906 C276.0944742 6.61985003 277.75978356 6.96341079 279.43359375 7.25878906 C279.43359375 7.91878906 279.43359375 8.57878906 279.43359375 9.25878906 C280.75359375 9.25878906 282.07359375 9.25878906 283.43359375 9.25878906 C283.43359375 9.91878906 283.43359375 10.57878906 283.43359375 11.25878906 C285.74359375 11.58878906 288.05359375 11.91878906 290.43359375 12.25878906 C290.43359375 12.91878906 290.43359375 13.57878906 290.43359375 14.25878906 C291.38234375 14.56816406 292.33109375 14.87753906 293.30859375 15.19628906 C296.43359375 16.25878906 296.43359375 16.25878906 298.43359375 17.25878906 C298.43359375 17.91878906 298.43359375 18.57878906 298.43359375 19.25878906 C300.08359375 19.58878906 301.73359375 19.91878906 303.43359375 20.25878906 C303.43359375 20.91878906 303.43359375 21.57878906 303.43359375 22.25878906 C303.99046875 22.52691406 304.54734375 22.79503906 305.12109375 23.07128906 C312.25968071 26.73704993 312.25968071 26.73704993 313.43359375 30.25878906 C314.42359375 30.25878906 315.41359375 30.25878906 316.43359375 30.25878906 C317.86328125 31.61425781 317.86328125 31.61425781 319.30859375 33.44628906 C321.17763066 35.75127999 322.98751664 37.79983003 325.12109375 39.88378906 C327.37980998 42.20355168 328.81179438 44.47856156 330.43359375 47.25878906 C331.09359375 47.58878906 331.75359375 47.91878906 332.43359375 48.25878906 C332.43359375 48.91878906 332.43359375 49.57878906 332.43359375 50.25878906 C333.09359375 50.25878906 333.75359375 50.25878906 334.43359375 50.25878906 C334.76359375 51.90878906 335.09359375 53.55878906 335.43359375 55.25878906 C336.09359375 55.25878906 336.75359375 55.25878906 337.43359375 55.25878906 C337.43359375 56.24878906 337.43359375 57.23878906 337.43359375 58.25878906 C338.09359375 58.25878906 338.75359375 58.25878906 339.43359375 58.25878906 C339.76359375 59.90878906 340.09359375 61.55878906 340.43359375 63.25878906 C341.09359375 63.25878906 341.75359375 63.25878906 342.43359375 63.25878906 C342.43359375 64.24878906 342.43359375 65.23878906 342.43359375 66.25878906 C343.09359375 66.25878906 343.75359375 66.25878906 344.43359375 66.25878906 C344.76359375 68.56878906 345.09359375 70.87878906 345.43359375 73.25878906 C346.09359375 73.25878906 346.75359375 73.25878906 347.43359375 73.25878906 C349.12481668 76.29449884 349.89589407 79.0317077 350.49609375 82.44628906 C350.85544043 85.65011859 350.85544043 85.65011859 352.43359375 88.25878906 C352.80120106 90.5869687 353.13600956 92.92062756 353.43359375 95.25878906 C353.76359375 95.25878906 354.09359375 95.25878906 354.43359375 95.25878906 C356.22043166 111.45166252 356.72162016 127.4350482 356.69238281 143.7175293 C356.69510026 146.29426166 356.69866538 148.87099324 356.70300293 151.44772339 C356.71180442 157.66349011 356.7100167 163.879208 356.70417765 170.09497648 C356.69962381 175.15623306 356.69906414 180.21747615 356.70122528 185.27873421 C356.70153175 186.00458353 356.70183821 186.73043285 356.70215397 187.47827761 C356.70279355 188.95375705 356.70344198 190.42923648 356.70409915 191.9047159 C356.70977547 205.6767597 356.70328744 219.44877669 356.69249842 233.22081608 C356.68356728 244.98454509 356.68511662 256.7482346 356.69433594 268.51196289 C356.7050899 282.23990449 356.70922442 295.96782271 356.70311141 309.69576794 C356.70247445 311.16552134 356.7018457 312.63527474 356.70122528 314.10502815 C356.70091673 314.82779127 356.70060818 315.55055438 356.70029028 316.2952194 C356.69857849 321.33765673 356.70144533 326.38007897 356.70618439 331.42251396 C356.71244856 338.23616472 356.70785602 345.04974062 356.69639587 351.86338425 C356.69377997 354.34514176 356.69446088 356.82690562 356.6989212 359.30866051 C356.72406054 374.73361048 356.06364414 389.91615787 354.43359375 405.25878906 C354.10359375 405.25878906 353.77359375 405.25878906 353.43359375 405.25878906 C353.30984375 406.31066406 353.18609375 407.36253906 353.05859375 408.44628906 C352.51464756 411.76436084 351.69334812 414.18813777 350.43359375 417.25878906 C350.26859375 418.26941406 350.10359375 419.28003906 349.93359375 420.32128906 C349.46988381 423.04558493 348.80197463 424.88692888 347.43359375 427.25878906 C346.77359375 427.25878906 346.11359375 427.25878906 345.43359375 427.25878906 C345.10359375 429.56878906 344.77359375 431.87878906 344.43359375 434.25878906 C343.77359375 434.25878906 343.11359375 434.25878906 342.43359375 434.25878906 C342.43359375 435.24878906 342.43359375 436.23878906 342.43359375 437.25878906 C341.77359375 437.25878906 341.11359375 437.25878906 340.43359375 437.25878906 C340.10359375 438.90878906 339.77359375 440.55878906 339.43359375 442.25878906 C338.77359375 442.25878906 338.11359375 442.25878906 337.43359375 442.25878906 C337.43359375 443.24878906 337.43359375 444.23878906 337.43359375 445.25878906 C336.77359375 445.25878906 336.11359375 445.25878906 335.43359375 445.25878906 C335.18609375 445.98066406 334.93859375 446.70253906 334.68359375 447.44628906 C333.32105171 450.51200865 331.57989033 452.69708024 329.43359375 455.25878906 C329.10359375 455.91878906 328.77359375 456.57878906 328.43359375 457.25878906 C327.77359375 457.25878906 327.11359375 457.25878906 326.43359375 457.25878906 C326.26859375 457.93941406 326.10359375 458.62003906 325.93359375 459.32128906 C323.36720641 464.34713094 318.80437403 468.46852897 313.43359375 470.25878906 C313.43359375 470.91878906 313.43359375 471.57878906 313.43359375 472.25878906 C312.11359375 472.58878906 310.79359375 472.91878906 309.43359375 473.25878906 C309.43359375 473.91878906 309.43359375 474.57878906 309.43359375 475.25878906 C305.97205529 478.25878906 305.97205529 478.25878906 303.43359375 478.25878906 C303.43359375 478.91878906 303.43359375 479.57878906 303.43359375 480.25878906 C301.78359375 480.58878906 300.13359375 480.91878906 298.43359375 481.25878906 C298.43359375 481.91878906 298.43359375 482.57878906 298.43359375 483.25878906 C292.80859375 486.25878906 292.80859375 486.25878906 289.43359375 486.25878906 C289.43359375 486.91878906 289.43359375 487.57878906 289.43359375 488.25878906 C282.93359375 491.25878906 282.93359375 491.25878906 278.43359375 491.25878906 C278.43359375 491.91878906 278.43359375 492.57878906 278.43359375 493.25878906 C277.72332031 493.3915625 277.01304687 493.52433594 276.28125 493.66113281 C275.36214844 493.83773438 274.44304687 494.01433594 273.49609375 494.19628906 C272.12130859 494.45732422 272.12130859 494.45732422 270.71875 494.72363281 C268.48069531 495.03593895 268.48069531 495.03593895 267.43359375 496.25878906 C265.10061942 496.29971844 262.7665415 496.30120629 260.43359375 496.25878906 C260.43359375 496.91878906 260.43359375 497.57878906 260.43359375 498.25878906 C244.61378684 500.10668048 229.00548067 500.54611487 213.08837891 500.51757812 C210.51179404 500.52029511 207.93520996 500.52385999 205.35862732 500.52819824 C199.1393814 500.53700549 192.92018426 500.53520927 186.70093657 500.52937296 C181.63679566 500.52482105 176.57266823 500.52425865 171.50852585 500.52642059 C170.78254103 500.52672706 170.05655622 500.52703353 169.30857187 500.52734928 C167.8328509 500.52798885 166.35712994 500.52863728 164.88140897 500.52929446 C151.1026931 500.53497258 137.32400402 500.52848009 123.54529254 500.51769373 C111.77529881 500.50876433 100.00534458 500.51031015 88.23535156 500.51953125 C74.50265619 500.53028528 60.7699842 500.53441953 47.03728521 500.52830672 C45.56695454 500.52766976 44.09662386 500.52704101 42.62629318 500.52642059 C41.54170603 500.52595777 41.54170603 500.52595777 40.43520803 500.52548559 C35.39027758 500.52377368 30.34536222 500.52664096 25.30043411 500.5313797 C18.48269275 500.53764406 11.66502619 500.53305108 4.84729195 500.52159119 C2.36392272 500.51897525 -0.11945284 500.51965625 -2.60281944 500.52411652 C-18.03227984 500.54924641 -33.21930097 499.88955789 -48.56640625 498.25878906 C-48.56640625 497.92878906 -48.56640625 497.59878906 -48.56640625 497.25878906 C-50.87640625 496.92878906 -53.18640625 496.59878906 -55.56640625 496.25878906 C-55.56640625 495.59878906 -55.56640625 494.93878906 -55.56640625 494.25878906 C-56.3140625 494.22140625 -57.06171875 494.18402344 -57.83203125 494.14550781 C-58.816875 494.07976562 -59.80171875 494.01402344 -60.81640625 493.94628906 C-61.7909375 493.88828125 -62.76546875 493.83027344 -63.76953125 493.77050781 C-66.87313222 493.2026702 -68.16015431 492.22389481 -70.56640625 490.25878906 C-72.87988497 489.52618747 -75.21215825 488.84735106 -77.56640625 488.25878906 C-77.56640625 487.59878906 -77.56640625 486.93878906 -77.56640625 486.25878906 C-80.21869437 485.18353712 -82.85009079 484.16422755 -85.56640625 483.25878906 C-85.56640625 482.59878906 -85.56640625 481.93878906 -85.56640625 481.25878906 C-87.21640625 480.92878906 -88.86640625 480.59878906 -90.56640625 480.25878906 C-90.56640625 479.59878906 -90.56640625 478.93878906 -90.56640625 478.25878906 C-91.18515625 477.94941406 -91.80390625 477.64003906 -92.44140625 477.32128906 C-93.81640625 476.63378906 -95.19140625 475.94628906 -96.56640625 475.25878906 C-96.56640625 474.59878906 -96.56640625 473.93878906 -96.56640625 473.25878906 C-97.88640625 472.92878906 -99.20640625 472.59878906 -100.56640625 472.25878906 C-100.56640625 471.59878906 -100.56640625 470.93878906 -100.56640625 470.25878906 C-101.55640625 470.25878906 -102.54640625 470.25878906 -103.56640625 470.25878906 C-105.03125 468.86816406 -105.03125 468.86816406 -106.50390625 467.00878906 C-108.25592909 464.8460676 -109.94038218 462.8946546 -111.94140625 460.94628906 C-113.56640625 459.25878906 -113.56640625 459.25878906 -113.56640625 457.25878906 C-114.55640625 456.92878906 -115.54640625 456.59878906 -116.56640625 456.25878906 C-116.89640625 455.26878906 -117.22640625 454.27878906 -117.56640625 453.25878906 C-118.22640625 452.92878906 -118.88640625 452.59878906 -119.56640625 452.25878906 C-119.56640625 451.59878906 -119.56640625 450.93878906 -119.56640625 450.25878906 C-120.22640625 450.25878906 -120.88640625 450.25878906 -121.56640625 450.25878906 C-121.89640625 448.60878906 -122.22640625 446.95878906 -122.56640625 445.25878906 C-123.22640625 445.25878906 -123.88640625 445.25878906 -124.56640625 445.25878906 C-124.56640625 444.26878906 -124.56640625 443.27878906 -124.56640625 442.25878906 C-125.22640625 442.25878906 -125.88640625 442.25878906 -126.56640625 442.25878906 C-126.89640625 440.60878906 -127.22640625 438.95878906 -127.56640625 437.25878906 C-128.22640625 437.25878906 -128.88640625 437.25878906 -129.56640625 437.25878906 C-129.56640625 436.26878906 -129.56640625 435.27878906 -129.56640625 434.25878906 C-130.22640625 434.25878906 -130.88640625 434.25878906 -131.56640625 434.25878906 C-131.89640625 431.94878906 -132.22640625 429.63878906 -132.56640625 427.25878906 C-133.22640625 427.25878906 -133.88640625 427.25878906 -134.56640625 427.25878906 C-134.56640625 425.93878906 -134.56640625 424.61878906 -134.56640625 423.25878906 C-135.22640625 423.25878906 -135.88640625 423.25878906 -136.56640625 423.25878906 C-136.76556641 422.19337891 -136.76556641 422.19337891 -136.96875 421.10644531 C-137.14535156 420.18734375 -137.32195312 419.26824219 -137.50390625 418.32128906 C-137.67792969 417.40476562 -137.85195312 416.48824219 -138.03125 415.54394531 C-138.34355613 413.30589062 -138.34355613 413.30589062 -139.56640625 412.25878906 C-139.93401356 409.93060943 -140.26882206 407.59695056 -140.56640625 405.25878906 C-140.89640625 405.25878906 -141.22640625 405.25878906 -141.56640625 405.25878906 C-143.35892025 389.03031483 -143.85436231 373.01077161 -143.82519531 356.69238281 C-143.8279127 354.10417584 -143.83147778 351.51596965 -143.83581543 348.92776489 C-143.84461718 342.68425977 -143.84282917 336.44080326 -143.83699015 330.19729638 C-143.83243682 325.11410139 -143.83187643 320.03091984 -143.83403778 314.94772339 C-143.83434425 314.21880998 -143.83465071 313.48989657 -143.83496647 312.73889488 C-143.83560604 311.25721271 -143.83625447 309.77553055 -143.83691165 308.2938484 C-143.84258793 294.46413089 -143.83609978 280.63444008 -143.82531092 266.80472696 C-143.81637788 254.98894525 -143.81793069 243.17320287 -143.82714844 231.35742188 C-143.83789916 217.57052624 -143.84203886 203.78365389 -143.83592391 189.99675465 C-143.83528694 188.52112135 -143.8346582 187.04548804 -143.83403778 185.56985474 C-143.83372923 184.8441868 -143.83342068 184.11851887 -143.83310278 183.37086099 C-143.83139017 178.30541156 -143.8342596 173.23997714 -143.83899689 168.17453003 C-143.84525654 161.33215533 -143.84067569 154.48985523 -143.82920837 147.64748764 C-143.82659046 145.15402218 -143.82727696 142.66055041 -143.8317337 140.16708755 C-143.85070075 128.46599585 -143.71883482 116.82655131 -142.73773193 105.16088867 C-142.6686394 104.28885331 -142.59954686 103.41681795 -142.52836061 102.51835728 C-142.04107996 97.45050257 -140.99432175 92.94392353 -139.25281167 88.1575098 C-138.42616458 85.87085541 -137.8699381 83.57590495 -137.37890625 81.19628906 C-137.22035156 80.4421875 -137.06179687 79.68808594 -136.8984375 78.91113281 C-136.78886719 78.36585937 -136.67929688 77.82058594 -136.56640625 77.25878906 C-135.90640625 77.25878906 -135.24640625 77.25878906 -134.56640625 77.25878906 C-134.56640625 75.93878906 -134.56640625 74.61878906 -134.56640625 73.25878906 C-133.90640625 73.25878906 -133.24640625 73.25878906 -132.56640625 73.25878906 C-132.23640625 70.94878906 -131.90640625 68.63878906 -131.56640625 66.25878906 C-130.90640625 66.25878906 -130.24640625 66.25878906 -129.56640625 66.25878906 C-129.56640625 65.26878906 -129.56640625 64.27878906 -129.56640625 63.25878906 C-128.90640625 63.25878906 -128.24640625 63.25878906 -127.56640625 63.25878906 C-127.23640625 61.60878906 -126.90640625 59.95878906 -126.56640625 58.25878906 C-125.90640625 58.25878906 -125.24640625 58.25878906 -124.56640625 58.25878906 C-124.56640625 57.26878906 -124.56640625 56.27878906 -124.56640625 55.25878906 C-123.90640625 55.25878906 -123.24640625 55.25878906 -122.56640625 55.25878906 C-122.23640625 53.60878906 -121.90640625 51.95878906 -121.56640625 50.25878906 C-120.90640625 50.25878906 -120.24640625 50.25878906 -119.56640625 50.25878906 C-119.23640625 48.93878906 -118.90640625 47.61878906 -118.56640625 46.25878906 C-117.90640625 46.25878906 -117.24640625 46.25878906 -116.56640625 46.25878906 C-116.56640625 45.26878906 -116.56640625 44.27878906 -116.56640625 43.25878906 C-115.24609375 41.89941406 -115.24609375 41.89941406 -113.44140625 40.50878906 C-110.79363692 38.36382845 -108.55040801 36.19819529 -106.37890625 33.57128906 C-104.30781584 31.07493475 -102.37085494 28.96149005 -99.56640625 27.25878906 C-98.90640625 27.25878906 -98.24640625 27.25878906 -97.56640625 27.25878906 C-97.56640625 26.59878906 -97.56640625 25.93878906 -97.56640625 25.25878906 C-96.57640625 24.92878906 -95.58640625 24.59878906 -94.56640625 24.25878906 C-94.23640625 23.59878906 -93.90640625 22.93878906 -93.56640625 22.25878906 C-92.57640625 22.25878906 -91.58640625 22.25878906 -90.56640625 22.25878906 C-90.56640625 21.59878906 -90.56640625 20.93878906 -90.56640625 20.25878906 C-88.91640625 19.92878906 -87.26640625 19.59878906 -85.56640625 19.25878906 C-85.56640625 18.59878906 -85.56640625 17.93878906 -85.56640625 17.25878906 C-79.81640625 14.25878906 -79.81640625 14.25878906 -77.56640625 14.25878906 C-77.56640625 13.59878906 -77.56640625 12.93878906 -77.56640625 12.25878906 C-74.10140625 11.76378906 -74.10140625 11.76378906 -70.56640625 11.25878906 C-70.56640625 10.59878906 -70.56640625 9.93878906 -70.56640625 9.25878906 C-69.24640625 9.25878906 -67.92640625 9.25878906 -66.56640625 9.25878906 C-66.56640625 8.59878906 -66.56640625 7.93878906 -66.56640625 7.25878906 C-65.85613281 7.12601562 -65.14585938 6.99324219 -64.4140625 6.85644531 C-63.03541016 6.59154297 -63.03541016 6.59154297 -61.62890625 6.32128906 C-60.71238281 6.14726563 -59.79585938 5.97324219 -58.8515625 5.79394531 C-56.61350781 5.48163918 -56.61350781 5.48163918 -55.56640625 4.25878906 C-53.23343192 4.21785969 -50.899354 4.21637183 -48.56640625 4.25878906 C-48.56640625 3.59878906 -48.56640625 2.93878906 -48.56640625 2.25878906 C-32.33793202 0.46627507 -16.3183888 -0.02916699 0 0 Z " fill="#FDFDFD" transform="translate(143.56640625,-0.2587890625)"/>
<path d="M0 0 C1.95681894 -0.00271759 3.91363686 -0.00628279 5.87045288 -0.01062012 C11.13277537 -0.01965449 16.39501851 -0.01623738 21.6573422 -0.00986195 C27.19514235 -0.00475588 32.73293624 -0.00950602 38.27073669 -0.01263428 C47.56478073 -0.0162603 56.85879285 -0.01151046 66.15283203 -0.00195312 C76.86096426 0.00893198 87.5690203 0.00539989 98.27715069 -0.00560594 C107.51249322 -0.01471399 116.74781296 -0.01594704 125.98315853 -0.0107286 C131.48090196 -0.00762859 136.97860972 -0.00714495 142.47635078 -0.01380157 C147.64672877 -0.01962598 152.81700956 -0.015486 157.98737717 -0.00401306 C159.87219902 -0.00139364 161.7570292 -0.00208434 163.64184761 -0.00653839 C188.93837086 -0.06075527 188.93837086 -0.06075527 200.87280273 3.25878906 C200.87280273 3.91878906 200.87280273 4.57878906 200.87280273 5.25878906 C201.61143555 5.32324219 202.35006836 5.38769531 203.11108398 5.45410156 C206.74146566 6.51189311 207.81399849 8.13582015 210.06030273 11.13378906 C211.07157227 12.46023437 211.07157227 12.46023437 212.10327148 13.81347656 C215.4109336 18.38432973 216.24954111 21.40695149 216.49780273 26.94628906 C216.53647461 27.64818359 216.57514648 28.35007813 216.61499023 29.07324219 C216.70903614 30.80133561 216.79199953 32.53002582 216.87280273 34.25878906 C223.53898318 31.7478611 229.32775355 29.21458437 234.88452148 24.73925781 C241.10679476 20.10617025 248.49815787 17.44980674 255.87280273 15.25878906 C255.87280273 14.59878906 255.87280273 13.93878906 255.87280273 13.25878906 C257.00717773 12.70191406 258.14155273 12.14503906 259.31030273 11.57128906 C263.15941882 9.6671327 266.83740906 7.54694059 270.50170898 5.30957031 C272.87280273 4.25878906 272.87280273 4.25878906 279.87280273 3.25878906 C279.87280273 20.41878906 279.87280273 37.57878906 279.87280273 55.25878906 C274.87280273 57.25878906 274.87280273 57.25878906 271.87280273 57.25878906 C271.87280273 57.91878906 271.87280273 58.57878906 271.87280273 59.25878906 C262.64729021 64.81459772 262.64729021 64.81459772 256.87280273 65.25878906 C256.87280273 65.91878906 256.87280273 66.57878906 256.87280273 67.25878906 C256.17413086 67.51273437 255.47545898 67.76667969 254.75561523 68.02832031 C253.84553711 68.3725 252.93545898 68.71667969 251.99780273 69.07128906 C250.64041992 69.57595703 250.64041992 69.57595703 249.25561523 70.09082031 C246.57854424 71.1552793 246.57854424 71.1552793 244.87280273 74.25878906 C243.13842773 75.10253906 243.13842773 75.10253906 241.12280273 75.75878906 C236.4857272 77.37715358 232.29334235 79.06254518 228.49780273 82.25878906 C225.70282242 84.38829787 223.28625844 85.33773027 220.00170898 86.46582031 C217.04899211 87.56563963 214.31546592 89.01139649 211.53686523 90.48925781 C209.87280273 91.25878906 209.87280273 91.25878906 207.87280273 91.25878906 C207.54280273 92.24878906 207.21280273 93.23878906 206.87280273 94.25878906 C204.94702148 95.13769531 204.94702148 95.13769531 202.56030273 95.82128906 C196.2485467 97.60752432 196.2485467 97.60752432 191.87280273 102.25878906 C187.83914002 104.34240291 183.3450047 105.56000751 178.87280273 106.25878906 C178.87280273 106.91878906 178.87280273 107.57878906 178.87280273 108.25878906 C173.63671236 111.26271393 168.44625365 113.94528113 162.87280273 116.25878906 C159.72205895 117.70813121 157.1536016 119.02232686 154.49780273 121.25878906 C151.67475233 123.40968461 149.18592684 124.39182946 145.86499023 125.53222656 C143.60562658 126.31065279 143.60562658 126.31065279 140.56030273 127.94628906 C137.87280273 129.25878906 137.87280273 129.25878906 134.87280273 129.25878906 C136.13558405 133.04713301 137.39393226 133.47890184 140.87280273 135.25878906 C143.06410808 135.9545836 143.06410808 135.9545836 144.87280273 136.25878906 C144.87280273 136.91878906 144.87280273 137.57878906 144.87280273 138.25878906 C145.55342773 138.34128906 146.23405273 138.42378906 146.93530273 138.50878906 C150.65652713 139.45888891 153.61780427 141.29535311 156.87280273 143.25878906 C162.41902665 146.50657784 167.80492116 149.12970781 173.87280273 151.25878906 C174.53280273 151.58878906 175.19280273 151.91878906 175.87280273 152.25878906 C175.87280273 152.91878906 175.87280273 153.57878906 175.87280273 154.25878906 C176.70166992 154.51015625 177.53053711 154.76152344 178.38452148 155.02050781 C182.33141068 156.42158718 185.95945399 158.17272229 189.68530273 160.07128906 C190.3974292 160.4309375 191.10955566 160.79058594 191.84326172 161.16113281 C196.10415336 163.3244071 200.31521905 165.55428854 204.47045898 167.91503906 C207.7447584 169.74651711 211.05907258 171.49991929 214.37280273 173.25878906 C219.90696517 176.19894214 225.41337021 179.18138537 230.87280273 182.25878906 C230.87280273 182.91878906 230.87280273 183.57878906 230.87280273 184.25878906 C232.19280273 184.25878906 233.51280273 184.25878906 234.87280273 184.25878906 C234.87280273 184.91878906 234.87280273 185.57878906 234.87280273 186.25878906 C235.65655273 186.34128906 236.44030273 186.42378906 237.24780273 186.50878906 C242.05044774 187.50243975 246.37089762 189.34592424 250.87280273 191.25878906 C250.87280273 191.91878906 250.87280273 192.57878906 250.87280273 193.25878906 C251.71069336 193.51015625 252.54858398 193.76152344 253.41186523 194.02050781 C257.22279017 195.3840103 260.70312282 197.14277981 264.24780273 199.07128906 C264.86913086 199.40193359 265.49045898 199.73257813 266.13061523 200.07324219 C267.36469465 200.73745229 268.58959724 201.41908734 269.80319214 202.12002563 C271.84302342 203.28841742 271.84302342 203.28841742 273.97146606 204.14718628 C276.35998506 205.2946964 278.03083014 206.34135671 279.87280273 208.25878906 C280.99972838 212.2140824 280.80577128 216.0374554 280.65405273 220.12207031 C280.64273315 221.26918991 280.63141357 222.41630951 280.61975098 223.59819031 C280.57501102 227.2575977 280.47464013 230.91306873 280.37280273 234.57128906 C280.33267324 237.05365431 280.29617157 239.53608104 280.26342773 242.01855469 C280.17528335 248.099973 280.04146653 254.17909988 279.87280273 260.25878906 C278.22280273 259.92878906 276.57280273 259.59878906 274.87280273 259.25878906 C274.87280273 258.59878906 274.87280273 257.93878906 274.87280273 257.25878906 C274.08905273 257.21753906 273.30530273 257.17628906 272.49780273 257.13378906 C268.24422072 256.10706237 265.3392539 254.25715566 261.66186523 251.94628906 C256.89679925 249.06322393 251.87484052 246.69830749 246.87280273 244.25878906 C244.87187294 243.26065083 242.8716186 242.26115383 240.87280273 241.25878906 C240.87280273 240.59878906 240.87280273 239.93878906 240.87280273 239.25878906 C240.23342773 239.01128906 239.59405273 238.76378906 238.93530273 238.50878906 C232.79542926 236.00271826 226.77742643 233.27975932 220.87280273 230.25878906 C219.53995005 229.59116195 218.20670441 228.92431783 216.87280273 228.25878906 C216.90760742 228.88785156 216.94241211 229.51691406 216.97827148 230.16503906 C217.17287057 236.31807687 216.37276017 240.63388484 213.87280273 246.25878906 C213.21280273 246.25878906 212.55280273 246.25878906 211.87280273 246.25878906 C211.70780273 246.96003906 211.54280273 247.66128906 211.37280273 248.38378906 C209.21173007 252.52584501 205.83193114 254.85856747 201.87280273 257.25878906 C201.21280273 257.25878906 200.55280273 257.25878906 199.87280273 257.25878906 C199.87280273 257.91878906 199.87280273 258.57878906 199.87280273 259.25878906 C192.58798423 263.4475597 185.13151888 263.4084869 176.96095276 263.39250183 C176.0988379 263.39476739 175.23672305 263.39703294 174.3484835 263.39936715 C171.47840221 263.40566448 168.60836866 263.40488055 165.73828125 263.40405273 C163.67291198 263.40704683 161.60754327 263.41044994 159.54217529 263.41423035 C153.9451128 263.42304764 148.3480656 263.42540747 142.75099683 263.42604613 C139.25193896 263.42675777 135.75288496 263.4288942 132.25382805 263.43154335 C120.04079822 263.44078827 107.8277793 263.44487918 95.61474609 263.4440918 C84.23922485 263.44349078 72.86375099 263.45404944 61.48824173 263.46983546 C51.71222224 263.48291735 41.93621822 263.48827544 32.16019005 263.48763639 C26.32550669 263.48738165 20.49086549 263.49021962 14.65619087 263.50081444 C9.1691439 263.51050665 3.6821793 263.51056685 -1.80487061 263.50329781 C-3.81518232 263.50225346 -5.8254992 263.50460591 -7.83580208 263.51065826 C-10.58675216 263.51840225 -13.33741943 263.51371753 -16.08836365 263.50602722 C-16.87768121 263.51117078 -17.66699877 263.51631435 -18.48023504 263.52161378 C-28.72509309 263.45862564 -37.80135011 260.74107374 -46.37719727 255.13378906 C-52.60721644 248.6205872 -55.25875562 240.98549871 -55.24072266 232.11328125 C-55.24064713 230.87229675 -55.24057159 229.63131226 -55.24049377 228.35272217 C-55.23538758 227.00370239 -55.23017159 225.65468302 -55.22485352 224.30566406 C-55.22298751 222.9213262 -55.22156447 221.53698768 -55.2205658 220.15264893 C-55.21675499 216.51617599 -55.20693702 212.87974324 -55.19586182 209.24328613 C-55.18561677 205.52970931 -55.18106155 201.81612596 -55.17602539 198.10253906 C-55.16531342 190.82127078 -55.1482543 183.54003556 -55.12719727 176.25878906 C-53.39231216 175.29148207 -51.65482022 174.3288496 -49.91625977 173.36816406 C-48.94897949 172.8315918 -47.98169922 172.29501953 -46.98510742 171.7421875 C-44.51133935 170.45817804 -42.12635669 169.42994193 -39.50219727 168.50878906 C-36.04597591 167.6658666 -36.04597591 167.6658666 -35.12719727 165.25878906 C-33.23707453 164.27592524 -31.34210472 163.30109849 -29.42211914 162.37792969 C-27.16633477 161.27787484 -24.96763526 160.10703827 -22.76782227 158.89941406 C-22.0446582 158.50625 -21.32149414 158.11308594 -20.57641602 157.70800781 C-19.09164883 156.89837455 -17.60993285 156.08312411 -16.13110352 155.26269531 C-15.4130957 154.8746875 -14.69508789 154.48667969 -13.95532227 154.08691406 C-12.99480957 153.55952637 -12.99480957 153.55952637 -12.01489258 153.02148438 C-10.12719727 152.25878906 -10.12719727 152.25878906 -6.12719727 152.25878906 C-6.12719727 151.59878906 -6.12719727 150.93878906 -6.12719727 150.25878906 C-5.13719727 149.86691406 -4.14719727 149.47503906 -3.12719727 149.07128906 C0.4765964 147.53512651 3.66217199 145.57388825 6.95483398 143.46582031 C11.11994148 140.84460195 13.90277649 139.25878906 18.87280273 139.25878906 C18.87280273 138.59878906 18.87280273 137.93878906 18.87280273 137.25878906 C23.2348046 134.81181241 26.89973757 133.75609558 31.87280273 133.25878906 C31.54280273 132.26878906 31.21280273 131.27878906 30.87280273 130.25878906 C28.97266004 129.49206482 27.06565214 128.73769646 25.12670898 128.07519531 C21.55210836 126.7804093 18.24278112 125.00618526 14.87280273 123.25878906 C13.71780273 122.68128906 12.56280273 122.10378906 11.37280273 121.50878906 C10.54780273 121.09628906 9.72280273 120.68378906 8.87280273 120.25878906 C8.87280273 119.59878906 8.87280273 118.93878906 8.87280273 118.25878906 C8.16768555 118.15179688 7.46256836 118.04480469 6.73608398 117.93457031 C3.52545223 117.17680866 0.98797312 115.96192445 -1.93969727 114.44628906 C-2.98254883 113.91132813 -4.02540039 113.37636719 -5.09985352 112.82519531 C-6.09887695 112.30828125 -7.09790039 111.79136719 -8.12719727 111.25878906 C-9.70907889 110.46422562 -11.29217235 109.67206349 -12.87719727 108.88378906 C-13.94969727 108.34753906 -15.02219727 107.81128906 -16.12719727 107.25878906 C-16.12719727 106.59878906 -16.12719727 105.93878906 -16.12719727 105.25878906 C-16.78719727 105.17628906 -17.44719727 105.09378906 -18.12719727 105.00878906 C-22.1175889 104.01119115 -25.5126937 102.18712223 -29.12719727 100.25878906 C-29.12719727 99.59878906 -29.12719727 98.93878906 -29.12719727 98.25878906 C-31.10719727 97.92878906 -33.08719727 97.59878906 -35.12719727 97.25878906 C-35.12719727 96.59878906 -35.12719727 95.93878906 -35.12719727 95.25878906 C-35.73305664 95.11183594 -36.33891602 94.96488281 -36.96313477 94.81347656 C-37.80102539 94.58917969 -38.63891602 94.36488281 -39.50219727 94.13378906 C-40.31430664 93.92496094 -41.12641602 93.71613281 -41.96313477 93.50097656 C-43.00727539 93.09105469 -44.05141602 92.68113281 -45.12719727 92.25878906 C-46.34351837 91.78915237 -46.34351837 91.78915237 -47.58441162 91.31002808 C-50.57149307 89.89342226 -52.75690257 88.57690736 -55.12719727 86.25878906 C-56.58103412 81.66913568 -56.38868323 77.24113588 -56.24438477 72.46191406 C-56.23586896 71.104409 -56.23122566 69.74687469 -56.23025513 68.38934326 C-56.21794726 65.54694989 -56.1727213 62.70772411 -56.10131836 59.86621094 C-56.01111048 56.25039549 -55.98128405 52.63745531 -55.97384453 49.02061844 C-55.96491653 46.21653646 -55.9341826 43.4130398 -55.89609146 40.60921478 C-55.87003909 38.63646144 -55.85334076 36.66359158 -55.83688354 34.69073486 C-55.59694522 25.5271313 -54.22109521 16.88648657 -47.81469727 9.88378906 C-47.28231445 9.27792969 -46.74993164 8.67207031 -46.20141602 8.04785156 C-41.05061578 3.60516511 -36.17184293 1.62980384 -29.44764709 1.02496338 C-28.71454254 0.94973206 -27.98143799 0.87450074 -27.22611815 0.79698968 C-18.16467128 -0.04779042 -9.09227091 -0.02151154 0 0 Z " fill="#030303" transform="translate(144.127197265625,118.7412109375)"/>
<path d="M0 0 C4.88294387 1.84289412 8.55155595 3.878394 12.56640625 7.2421875 C14.8931249 8.25748291 17.22675095 9.25706948 19.56640625 10.2421875 C21.56640625 11.57552083 23.56640625 12.90885417 25.56640625 14.2421875 C27.89121799 15.26184177 30.22435324 16.26278352 32.56640625 17.2421875 C33.37078125 17.7371875 34.17515625 18.2321875 35.00390625 18.7421875 C37.84963176 20.40797804 40.69844093 21.49182125 43.796875 22.59375 C45.56640625 23.2421875 45.56640625 23.2421875 47.56640625 24.2421875 C47.56640625 24.9021875 47.56640625 25.5621875 47.56640625 26.2421875 C48.77296875 26.5825 48.77296875 26.5825 50.00390625 26.9296875 C55.44820608 28.93548218 60.27748646 31.8761655 65.25 34.84375 C71.09062313 38.31483946 76.99914764 41.56391078 83.06640625 44.6171875 C83.74904541 44.96305908 84.43168457 45.30893066 85.13500977 45.6652832 C88.25441525 47.21547911 91.17153346 48.48085102 94.56640625 49.2421875 C94.56640625 49.9021875 94.56640625 50.5621875 94.56640625 51.2421875 C96.21640625 51.5721875 97.86640625 51.9021875 99.56640625 52.2421875 C99.56640625 52.9021875 99.56640625 53.5621875 99.56640625 54.2421875 C30.59640625 54.2421875 -38.37359375 54.2421875 -109.43359375 54.2421875 C-109.10359375 53.5821875 -108.77359375 52.9221875 -108.43359375 52.2421875 C-107.77359375 52.2421875 -107.11359375 52.2421875 -106.43359375 52.2421875 C-106.43359375 51.5821875 -106.43359375 50.9221875 -106.43359375 50.2421875 C-102.43359375 48.2421875 -98.43359375 46.2421875 -94.43359375 44.2421875 C-93.39460938 43.68144531 -92.355625 43.12070312 -91.28515625 42.54296875 C-88.43359375 41.2421875 -88.43359375 41.2421875 -84.43359375 41.2421875 C-84.43359375 40.5821875 -84.43359375 39.9221875 -84.43359375 39.2421875 C-77.59657141 35.46262009 -70.71195792 31.77385648 -63.80859375 28.1171875 C-63.02186279 27.69775879 -62.23513184 27.27833008 -61.42456055 26.84619141 C-56.79335973 24.4009946 -52.12434374 22.15684675 -47.31079102 20.09228516 C-45.29156681 19.22541054 -45.29156681 19.22541054 -42.99609375 17.7421875 C-39.69656072 15.81075353 -36.23236776 14.5970687 -32.640625 13.3046875 C-30.11859865 12.32120566 -30.11859865 12.32120566 -28.43359375 9.2421875 C-26.80126953 8.19897461 -26.80126953 8.19897461 -24.87890625 7.26953125 C-24.18152344 6.92728516 -23.48414063 6.58503906 -22.765625 6.23242188 C-21.67314453 5.71131836 -21.67314453 5.71131836 -20.55859375 5.1796875 C-19.83800781 4.82841797 -19.11742187 4.47714844 -18.375 4.11523438 C-17.02669572 3.45846369 -15.67677021 2.80500303 -14.32470703 2.15600586 C-12.99092576 1.51149988 -11.66985288 0.84036526 -10.35888672 0.15063477 C-6.76603285 -1.54464918 -3.7384027 -1.1641254 0 0 Z " fill="#F9F9F9" transform="translate(231.43359375,277.7578125)"/>
<path d="M0 0 C68.97 0 137.94 0 209 0 C206.752 4.496 206.752 4.496 203.125 5.9375 C202.320625 6.26878906 201.51625 6.60007813 200.6875 6.94140625 C199.3571875 7.46541016 199.3571875 7.46541016 198 8 C190.83003997 10.87382909 183.99549712 13.93795465 177.27734375 17.765625 C175 19 175 19 172 20 C172 20.66 172 21.32 172 22 C171.45400146 22.16218018 170.90800293 22.32436035 170.34545898 22.49145508 C164.5308026 24.31090184 159.37708439 26.73076139 154.0625 29.6875 C152.57622697 30.50755655 151.08803538 31.32414857 149.59765625 32.13671875 C148.95320557 32.49467529 148.30875488 32.85263184 147.64477539 33.22143555 C146 34 146 34 144 34 C144 34.66 144 35.32 144 36 C143.0925 36.37125 142.185 36.7425 141.25 37.125 C131.06332989 41.40878416 131.06332989 41.40878416 122 47.5625 C117.3202916 51.36476308 110.6088712 55.35221716 104.3984375 54.74609375 C102.06998828 54.0217716 99.9033186 53.20426502 97.6875 52.1875 C96.53507812 51.65962891 96.53507812 51.65962891 95.359375 51.12109375 C91.87808927 49.46690666 88.43483651 47.74864404 85 46 C85 45.34 85 44.68 85 44 C84.05125 43.95875 83.1025 43.9175 82.125 43.875 C77.61304515 43.24732886 74.36530234 40.97695624 70.578125 38.56640625 C66.8812024 36.3202457 62.99496503 34.64044458 59 33 C59 32.34 59 31.68 59 31 C58.39671875 30.80664062 57.7934375 30.61328125 57.171875 30.4140625 C56.37265625 30.15367187 55.5734375 29.89328125 54.75 29.625 C53.96109375 29.36976563 53.1721875 29.11453125 52.359375 28.8515625 C46.33939394 26.67878788 46.33939394 26.67878788 45 24 C43.1729743 23.16687628 41.31191228 22.40770597 39.4375 21.6875 C34.88031883 19.85706823 30.88485509 17.83382496 26.8046875 15.125 C25.01499012 14.00934449 23.26018257 13.17747865 21.3125 12.375 C18 11 18 11 15.6875 9.5625 C12.35819626 7.62685829 8.90113091 6.3258079 5.3046875 4.96484375 C3 4 3 4 0 2 C0 1.34 0 0.68 0 0 Z " fill="#FBFBFB" transform="translate(122,168)"/>
<path d="M0 0 C2.58820697 -0.00271738 5.17641316 -0.00628247 7.76461792 -0.01062012 C14.00812304 -0.01942187 20.25157956 -0.01763386 26.49508643 -0.01179484 C31.57828142 -0.00724151 36.66146297 -0.00668111 41.74465942 -0.00884247 C42.47357283 -0.00914893 43.20248624 -0.0094554 43.95348793 -0.00977115 C45.4351701 -0.01041073 46.91685226 -0.01105916 48.39853442 -0.01171634 C62.22825192 -0.01739262 76.05794273 -0.01090446 89.88765585 -0.0001156 C101.70343756 0.00881743 113.51917994 0.00726462 125.33496094 -0.00195312 C139.12185657 -0.01270385 152.90872892 -0.01684355 166.69562817 -0.0107286 C168.17126147 -0.01009163 169.64689477 -0.00946289 171.12252808 -0.00884247 C172.21102998 -0.00837964 172.21102998 -0.00837964 173.32152182 -0.00790747 C178.38697125 -0.00619486 183.45240568 -0.00906429 188.51785278 -0.01380157 C195.36022748 -0.02006123 202.20252758 -0.01548038 209.04489517 -0.00401306 C211.53836064 -0.00139515 214.0318324 -0.00208165 216.52529526 -0.00653839 C231.61438336 -0.03099726 246.43181535 0.60176959 261.43359375 2.25878906 C261.43359375 2.91878906 261.43359375 3.57878906 261.43359375 4.25878906 C262.09359375 4.58878906 262.75359375 4.91878906 263.43359375 5.25878906 C257.80510053 5.4971723 252.48178102 5.17091709 246.91569519 4.28952026 C236.91018921 2.85095369 226.8737659 2.79711912 216.7824707 2.64208984 C214.70023484 2.6044027 212.61800434 2.56641832 210.535779 2.52815437 C190.27909848 2.17458171 170.02282815 2.11052849 149.7635591 2.12446356 C144.72976754 2.127079 139.69597735 2.12462586 134.66218567 2.12307739 C126.2485012 2.12128498 117.83482567 2.12358693 109.42114258 2.12841797 C99.77710394 2.13389245 90.13308635 2.13206308 80.48904818 2.12659156 C72.08521415 2.1220202 63.68138635 2.12142828 55.27755147 2.12403023 C50.31091264 2.12556632 45.34428364 2.12586134 40.37764549 2.12249374 C14.75115301 2.08965604 14.75115301 2.08965604 -10.8659668 2.70458984 C-11.90449452 2.74331144 -12.94302225 2.78203304 -14.01302052 2.82192802 C-18.32198221 3.01131177 -22.33964502 3.37132184 -26.56640625 4.25878906 C-28.39196036 4.45158686 -30.22056778 4.61688258 -32.05078125 4.75878906 C-33.06785156 4.84128906 -34.08492188 4.92378906 -35.1328125 5.00878906 C-37.27073792 5.17667523 -39.40876081 5.34332436 -41.546875 5.50878906 C-42.55878906 5.59128906 -43.57070312 5.67378906 -44.61328125 5.75878906 C-45.53979492 5.83097656 -46.46630859 5.90316406 -47.42089844 5.97753906 C-49.54509532 6.0344109 -49.54509532 6.0344109 -50.56640625 7.25878906 C-51.87060429 7.58558128 -53.18558815 7.86966206 -54.50390625 8.13378906 C-57.9845183 8.87092505 -61.35628469 9.76596721 -64.75390625 10.82128906 C-68.3421446 11.92966846 -71.83288787 12.76753664 -75.56640625 13.25878906 C-75.56640625 13.91878906 -75.56640625 14.57878906 -75.56640625 15.25878906 C-76.55640625 15.25878906 -77.54640625 15.25878906 -78.56640625 15.25878906 C-78.56640625 15.91878906 -78.56640625 16.57878906 -78.56640625 17.25878906 C-80.21640625 17.58878906 -81.86640625 17.91878906 -83.56640625 18.25878906 C-83.56640625 18.91878906 -83.56640625 19.57878906 -83.56640625 20.25878906 C-85.21640625 20.58878906 -86.86640625 20.91878906 -88.56640625 21.25878906 C-88.56640625 21.91878906 -88.56640625 22.57878906 -88.56640625 23.25878906 C-89.22640625 23.25878906 -89.88640625 23.25878906 -90.56640625 23.25878906 C-90.56640625 23.91878906 -90.56640625 24.57878906 -90.56640625 25.25878906 C-91.55640625 25.25878906 -92.54640625 25.25878906 -93.56640625 25.25878906 C-93.56640625 25.91878906 -93.56640625 26.57878906 -93.56640625 27.25878906 C-95.22488802 28.2723057 -96.89306586 29.26999701 -98.56640625 30.25878906 C-99.28828125 30.98066406 -100.01015625 31.70253906 -100.75390625 32.44628906 C-101.35203125 33.04441406 -101.95015625 33.64253906 -102.56640625 34.25878906 C-103.22640625 34.25878906 -103.88640625 34.25878906 -104.56640625 34.25878906 C-104.89640625 35.24878906 -105.22640625 36.23878906 -105.56640625 37.25878906 C-106.22640625 37.25878906 -106.88640625 37.25878906 -107.56640625 37.25878906 C-107.82164063 37.84144531 -108.076875 38.42410156 -108.33984375 39.02441406 C-109.68381712 41.47267129 -111.18450921 43.07622154 -113.19140625 45.00878906 C-114.13886719 45.92917969 -114.13886719 45.92917969 -115.10546875 46.86816406 C-115.82863281 47.55652344 -115.82863281 47.55652344 -116.56640625 48.25878906 C-117.22640625 47.59878906 -117.88640625 46.93878906 -118.56640625 46.25878906 C-117.90640625 46.25878906 -117.24640625 46.25878906 -116.56640625 46.25878906 C-116.56640625 45.26878906 -116.56640625 44.27878906 -116.56640625 43.25878906 C-115.24609375 41.89941406 -115.24609375 41.89941406 -113.44140625 40.50878906 C-110.79363692 38.36382845 -108.55040801 36.19819529 -106.37890625 33.57128906 C-104.30781584 31.07493475 -102.37085494 28.96149005 -99.56640625 27.25878906 C-98.90640625 27.25878906 -98.24640625 27.25878906 -97.56640625 27.25878906 C-97.56640625 26.59878906 -97.56640625 25.93878906 -97.56640625 25.25878906 C-96.57640625 24.92878906 -95.58640625 24.59878906 -94.56640625 24.25878906 C-94.23640625 23.59878906 -93.90640625 22.93878906 -93.56640625 22.25878906 C-92.57640625 22.25878906 -91.58640625 22.25878906 -90.56640625 22.25878906 C-90.56640625 21.59878906 -90.56640625 20.93878906 -90.56640625 20.25878906 C-88.91640625 19.92878906 -87.26640625 19.59878906 -85.56640625 19.25878906 C-85.56640625 18.59878906 -85.56640625 17.93878906 -85.56640625 17.25878906 C-79.81640625 14.25878906 -79.81640625 14.25878906 -77.56640625 14.25878906 C-77.56640625 13.59878906 -77.56640625 12.93878906 -77.56640625 12.25878906 C-74.10140625 11.76378906 -74.10140625 11.76378906 -70.56640625 11.25878906 C-70.56640625 10.59878906 -70.56640625 9.93878906 -70.56640625 9.25878906 C-69.24640625 9.25878906 -67.92640625 9.25878906 -66.56640625 9.25878906 C-66.56640625 8.59878906 -66.56640625 7.93878906 -66.56640625 7.25878906 C-65.85613281 7.12601562 -65.14585938 6.99324219 -64.4140625 6.85644531 C-63.49496094 6.67984375 -62.57585937 6.50324219 -61.62890625 6.32128906 C-60.71238281 6.14726563 -59.79585937 5.97324219 -58.8515625 5.79394531 C-56.61350781 5.48163918 -56.61350781 5.48163918 -55.56640625 4.25878906 C-53.23343192 4.21785969 -50.899354 4.21637183 -48.56640625 4.25878906 C-48.56640625 3.59878906 -48.56640625 2.93878906 -48.56640625 2.25878906 C-32.33793202 0.46627507 -16.3183888 -0.02916699 0 0 Z " fill="#DCDCDC" transform="translate(143.56640625,-0.2587890625)"/>
<path d="M0 0 C0.98625315 3.11608401 0.96577971 5.20196335 0.2578125 8.37890625 C0.07863281 9.21873047 -0.10054688 10.05855469 -0.28515625 10.92382812 C-0.47980469 11.79458984 -0.67445313 12.66535156 -0.875 13.5625 C-3.82347073 26.87128686 -4.24959848 40.04911507 -4.55419922 53.62719727 C-4.57516151 54.5200616 -4.59612381 55.41292593 -4.61772132 56.33284676 C-5.0655478 75.63942817 -5.14859545 94.94104492 -5.1343255 114.2520225 C-5.1317074 118.94630016 -5.13416498 123.64057635 -5.13571167 128.33485413 C-5.13750848 136.21290445 -5.1351955 144.09094527 -5.13037109 151.96899414 C-5.12554928 159.93189103 -5.12554602 167.89476915 -5.13037109 175.85766602 C-5.20692568 229.58970267 -5.20692568 229.58970267 -4.5546875 283.31640625 C-4.53527225 284.34534437 -4.51585701 285.37428249 -4.49585342 286.43440056 C-4.44088904 289.22411435 -4.3785578 292.01351959 -4.31201172 294.80297852 C-4.28753023 295.98778525 -4.28753023 295.98778525 -4.26255417 297.19652748 C-4.16981149 300.59965461 -3.98865375 303.73407699 -3 307 C-2.81372322 308.7338992 -2.66173642 310.47166094 -2.53515625 312.2109375 C-2.41817383 313.70753906 -2.41817383 313.70753906 -2.29882812 315.234375 C-2.14188241 317.32006681 -1.9882106 319.40600769 -1.83789062 321.4921875 C-1.42617833 326.68712635 -0.70698467 331.05510272 1 336 C0.625 338.375 0.625 338.375 0 340 C-2.05362055 334.91059256 -3.43179252 330.45479185 -4 325 C-4.33 325 -4.66 325 -5 325 C-6.792514 308.77152577 -7.28795606 292.75198255 -7.25878906 276.43359375 C-7.26150645 273.84538678 -7.26507153 271.25718059 -7.26940918 268.66897583 C-7.27821093 262.42547071 -7.27642292 256.18201419 -7.2705839 249.93850732 C-7.26603057 244.85531233 -7.26547018 239.77213078 -7.26763153 234.68893433 C-7.267938 233.96002092 -7.26824446 233.23110751 -7.26856022 232.48010582 C-7.26919979 230.99842365 -7.26984822 229.51674149 -7.2705054 228.03505933 C-7.27618168 214.20534183 -7.26969353 200.37565102 -7.25890467 186.5459379 C-7.24997163 174.73015619 -7.25152444 162.91441381 -7.26074219 151.09863281 C-7.27149291 137.31173718 -7.27563261 123.52486483 -7.26951766 109.73796558 C-7.26888069 108.26233228 -7.26825195 106.78669898 -7.26763153 105.31106567 C-7.26732298 104.58539774 -7.26701443 103.8597298 -7.26669653 103.11207193 C-7.26498392 98.0466225 -7.26785335 92.98118807 -7.27259064 87.91574097 C-7.27885029 81.07336627 -7.27426944 74.23106617 -7.26280212 67.38869858 C-7.26018421 64.89523311 -7.26087071 62.40176135 -7.26532745 59.90829849 C-7.2842945 48.20720679 -7.15242857 36.56776224 -6.17132568 24.90209961 C-6.10223315 24.03006425 -6.03314061 23.15802889 -5.96195436 22.25956821 C-5.40779473 16.49615351 -4.01134179 11.41611984 -2 6 C-1.608125 4.824375 -1.21625 3.64875 -0.8125 2.4375 C-0.4103125 1.2309375 -0.4103125 1.2309375 0 0 Z " fill="#DBDBDB" transform="translate(7,80)"/>
<path d="M0 0 C0.66 0.33 1.32 0.66 2 1 C2.04590767 34.36792745 2.08108501 67.73584696 2.10213066 101.10379905 C2.10463168 105.05479512 2.10722037 109.00579113 2.10986328 112.95678711 C2.1103879 113.74326688 2.11091252 114.52974666 2.11145304 115.34005915 C2.12012494 128.02802211 2.13587694 140.7159667 2.15430559 153.40391881 C2.17309457 166.45002189 2.18413561 179.49611544 2.18817699 192.5422315 C2.19090351 200.57424801 2.19947348 208.60621259 2.21583293 216.63821309 C2.22778452 222.82619852 2.2288889 229.01414542 2.22621536 235.20214081 C2.22676008 237.7193604 2.23066358 240.23658218 2.23841095 242.7537899 C2.28380417 258.28023831 1.65073481 273.55696773 0 289 C-0.33 289 -0.66 289 -1 289 C-1.12375 290.051875 -1.2475 291.10375 -1.375 292.1875 C-1.91894619 295.50557178 -2.74024563 297.92934871 -4 301 C-4.165 302.010625 -4.33 303.02125 -4.5 304.0625 C-4.96370994 306.78679587 -5.63161912 308.62813981 -7 311 C-7.66 311 -8.32 311 -9 311 C-9.33 313.31 -9.66 315.62 -10 318 C-10.66 318 -11.32 318 -12 318 C-12 318.99 -12 319.98 -12 321 C-12.66 321 -13.32 321 -14 321 C-13.67 319.02 -13.34 317.04 -13 315 C-12.34 315 -11.68 315 -11 315 C-10.67 312.69 -10.34 310.38 -10 308 C-9.34 308 -8.68 308 -8 308 C-8.061875 306.88625 -8.061875 306.88625 -8.125 305.75 C-8 303 -8 303 -7.0625 301.1875 C-5.96103257 298.91977294 -5.71177879 297.29870455 -5.4375 294.8125 C-5 291 -5 291 -4 290 C-0.8159639 274.49571195 -0.48138708 258.58105807 -0.31860352 242.81933594 C-0.28583696 240.54977247 -0.25232613 238.28021964 -0.21812534 236.01067734 C0.10884597 212.77927884 0.13126862 189.54598466 0.10139394 166.31276035 C0.09496438 160.4260172 0.09454165 154.53927298 0.09336853 148.65252686 C0.09031107 137.60093026 0.08217654 126.54934405 0.07201904 115.49775195 C0.06067989 102.87526407 0.05530352 90.25277558 0.05032361 77.63028383 C0.03998635 51.75351689 0.02250031 25.87675904 0 0 Z " fill="#C2C2C2" transform="translate(498,116)"/>
<path d="M0 0 C0.66 0.33 1.32 0.66 2 1 C4.72040683 1.10794815 7.41589788 1.15490594 10.13699341 1.15821838 C11.41362502 1.16562535 11.41362502 1.16562535 12.71604717 1.17318195 C15.58429633 1.18861035 18.45252302 1.19693199 21.32080078 1.20532227 C23.37033284 1.21489659 25.41986291 1.22490641 27.46939087 1.23532104 C33.04759422 1.26242442 38.62580608 1.28340452 44.2040391 1.30332303 C50.02836576 1.32514915 55.85266604 1.3525543 61.67697144 1.37937927 C72.71250583 1.4293519 83.74805482 1.47427374 94.78361785 1.51740164 C107.34450676 1.56673502 119.90536921 1.62166757 132.46623254 1.67708123 C158.31079701 1.79097141 184.15538686 1.89779508 210 2 C210 1.34 210 0.68 210 0 C210.99 0 211.98 0 213 0 C213 1.32 213 2.64 213 4 C142.38 4 71.76 4 -1 4 C-0.67 2.68 -0.34 1.36 0 0 Z " fill="#4E4E4E" transform="translate(121,330)"/>
<path d="M0 0 C70.62 0 141.24 0 214 0 C214 1.32 214 2.64 214 4 C213.01 4 212.02 4 211 4 C211 3.34 211 2.68 211 2 C142.03 2 73.06 2 2 2 C2 2.66 2 3.32 2 4 C1.34 4 0.68 4 0 4 C0 2.68 0 1.36 0 0 Z " fill="#424242" transform="translate(120,166)"/>
<path d="M0 0 C0 0.33 0 0.66 0 1 C-0.60996826 1.05534912 -1.21993652 1.11069824 -1.84838867 1.16772461 C-4.62835273 1.42155316 -7.40792124 1.67948775 -10.1875 1.9375 C-11.62706055 2.06801758 -11.62706055 2.06801758 -13.09570312 2.20117188 C-14.02705078 2.28818359 -14.95839844 2.37519531 -15.91796875 2.46484375 C-16.77156982 2.543396 -17.6251709 2.62194824 -18.50463867 2.70288086 C-21.00746416 2.96647061 -21.00746416 2.96647061 -23.47485352 3.50219727 C-26.15284774 4.03013212 -28.76353913 4.28903869 -31.484375 4.5 C-32.50144531 4.5825 -33.51851563 4.665 -34.56640625 4.75 C-36.70433167 4.91788617 -38.84235456 5.0845353 -40.98046875 5.25 C-41.99238281 5.3325 -43.00429687 5.415 -44.046875 5.5 C-44.97338867 5.5721875 -45.89990234 5.644375 -46.85449219 5.71875 C-48.97868907 5.77562184 -48.97868907 5.77562184 -50 7 C-51.30419804 7.32679222 -52.6191819 7.610873 -53.9375 7.875 C-57.41811205 8.61213599 -60.78987844 9.50717815 -64.1875 10.5625 C-67.77573835 11.6708794 -71.26648162 12.50874758 -75 13 C-75 13.66 -75 14.32 -75 15 C-75.99 15 -76.98 15 -78 15 C-78 15.66 -78 16.32 -78 17 C-79.65 17.33 -81.3 17.66 -83 18 C-83 18.66 -83 19.32 -83 20 C-84.65 20.33 -86.3 20.66 -88 21 C-88 21.66 -88 22.32 -88 23 C-88.66 23 -89.32 23 -90 23 C-90 23.66 -90 24.32 -90 25 C-90.99 25 -91.98 25 -93 25 C-93 25.66 -93 26.32 -93 27 C-94.65848177 28.01351664 -96.32665961 29.01120795 -98 30 C-98.721875 30.721875 -99.44375 31.44375 -100.1875 32.1875 C-100.785625 32.785625 -101.38375 33.38375 -102 34 C-102.66 34 -103.32 34 -104 34 C-104.33 34.99 -104.66 35.98 -105 37 C-105.66 37 -106.32 37 -107 37 C-107.25523438 37.58265625 -107.51046875 38.1653125 -107.7734375 38.765625 C-109.11741087 41.21388223 -110.61810296 42.81743248 -112.625 44.75 C-113.57246094 45.67039062 -113.57246094 45.67039062 -114.5390625 46.609375 C-115.26222656 47.29773437 -115.26222656 47.29773437 -116 48 C-116.66 47.34 -117.32 46.68 -118 46 C-117.34 46 -116.68 46 -116 46 C-116 45.01 -116 44.02 -116 43 C-114.6796875 41.640625 -114.6796875 41.640625 -112.875 40.25 C-110.22723067 38.10503939 -107.98400176 35.93940622 -105.8125 33.3125 C-103.74140959 30.81614569 -101.80444869 28.70270099 -99 27 C-98.34 27 -97.68 27 -97 27 C-97 26.34 -97 25.68 -97 25 C-96.01 24.67 -95.02 24.34 -94 24 C-93.67 23.34 -93.34 22.68 -93 22 C-92.01 22 -91.02 22 -90 22 C-90 21.34 -90 20.68 -90 20 C-88.35 19.67 -86.7 19.34 -85 19 C-85 18.34 -85 17.68 -85 17 C-79.25 14 -79.25 14 -77 14 C-77 13.34 -77 12.68 -77 12 C-73.535 11.505 -73.535 11.505 -70 11 C-70 10.34 -70 9.68 -70 9 C-68.68 9 -67.36 9 -66 9 C-66 8.34 -66 7.68 -66 7 C-65.28972656 6.86722656 -64.57945313 6.73445312 -63.84765625 6.59765625 C-62.92855469 6.42105469 -62.00945312 6.24445312 -61.0625 6.0625 C-60.14597656 5.88847656 -59.22945312 5.71445313 -58.28515625 5.53515625 C-56.04710156 5.22285012 -56.04710156 5.22285012 -55 4 C-52.66702567 3.95907063 -50.33294775 3.95758277 -48 4 C-48 3.34 -48 2.68 -48 2 C-31.95435339 0.19928615 -16.14040567 -0.25140819 0 0 Z " fill="#878787" transform="translate(143,0)"/>
<path d="M0 0 C68.97 0 137.94 0 209 0 C208.34 1.32 207.68 2.64 207 4 C204.375 4.75 204.375 4.75 202 5 C203 3 203 3 206 2 C139.01 1.67 72.02 1.34 3 1 C3 1.66 3 2.32 3 3 C2.01 2.67 1.02 2.34 0 2 C0 1.34 0 0.68 0 0 Z " fill="#CBCBCB" transform="translate(122,168)"/>
<path d="M0 0 C0.99 0.495 0.99 0.495 2 1 C1.34 2.32 0.68 3.64 0 5 C-0.66 5 -1.32 5 -2 5 C-2.165 5.680625 -2.33 6.36125 -2.5 7.0625 C-5.06638734 12.08834188 -9.62921972 16.20973991 -15 18 C-15 18.66 -15 19.32 -15 20 C-16.32 20.33 -17.64 20.66 -19 21 C-19 21.66 -19 22.32 -19 23 C-22.46153846 26 -22.46153846 26 -25 26 C-25 26.66 -25 27.32 -25 28 C-26.65 28.33 -28.3 28.66 -30 29 C-30 29.66 -30 30.32 -30 31 C-35.625 34 -35.625 34 -39 34 C-39 34.66 -39 35.32 -39 36 C-45.5 39 -45.5 39 -50 39 C-50 39.66 -50 40.32 -50 41 C-51.06541016 41.19916016 -51.06541016 41.19916016 -52.15234375 41.40234375 C-53.07144531 41.57894531 -53.99054688 41.75554687 -54.9375 41.9375 C-55.85402344 42.11152344 -56.77054687 42.28554688 -57.71484375 42.46484375 C-59.95289844 42.77714988 -59.95289844 42.77714988 -61 44 C-63.33297433 44.04092937 -65.66705225 44.04241723 -68 44 C-68 44.66 -68 45.32 -68 46 C-75.92 46.495 -75.92 46.495 -84 47 C-84 46.34 -84 45.68 -84 45 C-82.82981323 44.75878418 -82.82981323 44.75878418 -81.63598633 44.51269531 C-78.02679448 43.76488079 -74.41967345 43.00748821 -70.8125 42.25 C-69.58595703 41.99734375 -68.35941406 41.7446875 -67.09570312 41.484375 C-59.76199814 39.93636339 -52.64642441 38.08261764 -45.51831055 35.76074219 C-43 35 -43 35 -41 35 C-41 34.34 -41 33.68 -41 33 C-35.375 30 -35.375 30 -32 30 C-32 29.34 -32 28.68 -32 28 C-31.01 28 -30.02 28 -29 28 C-29 27.34 -29 26.68 -29 26 C-27.02297727 24.61608409 -25.02934384 23.30332858 -23 22 C-17.22683015 18.23140302 -12.42223758 13.60358913 -7.5625 8.75 C-6.62083984 7.80954834 -6.62083984 7.80954834 -5.66015625 6.85009766 C-2.43711357 3.7158285 -2.43711357 3.7158285 0 0 Z " fill="#8B8B8B" transform="translate(472,452)"/>
<path d="M0 0 C0.33 0 0.66 0 1 0 C1.34233845 13.10395519 0.28825607 25.96668596 -1 39 C-1.33 39 -1.66 39 -2 39 C-2.12375 40.051875 -2.2475 41.10375 -2.375 42.1875 C-2.91894619 45.50557178 -3.74024563 47.92934871 -5 51 C-5.165 52.010625 -5.33 53.02125 -5.5 54.0625 C-5.96370994 56.78679587 -6.63161912 58.62813981 -8 61 C-8.66 61 -9.32 61 -10 61 C-10.33 63.31 -10.66 65.62 -11 68 C-11.66 68 -12.32 68 -13 68 C-13 68.99 -13 69.98 -13 71 C-13.66 71 -14.32 71 -15 71 C-14.67 69.02 -14.34 67.04 -14 65 C-13.34 65 -12.68 65 -12 65 C-11.67 62.69 -11.34 60.38 -11 58 C-10.34 58 -9.68 58 -9 58 C-9.061875 56.88625 -9.061875 56.88625 -9.125 55.75 C-9 53 -9 53 -8.0625 51.1875 C-6.96103257 48.91977294 -6.71177879 47.29870455 -6.4375 44.8125 C-6 41 -6 41 -5 40 C-4.71366142 38.45062344 -4.48481729 36.89053271 -4.28125 35.328125 C-4.15411621 34.35915283 -4.02698242 33.39018066 -3.89599609 32.3918457 C-3.76531738 31.35503662 -3.63463867 30.31822754 -3.5 29.25 C-3.3654541 28.20481201 -3.2309082 27.15962402 -3.09228516 26.08276367 C-2.26685708 19.53467219 -1.58548995 13.01612083 -1.2109375 6.42578125 C-1.01556367 4.17898222 -0.61838648 2.16435267 0 0 Z " fill="#6F6F6F" transform="translate(499,366)"/>
<path d="M0 0 C-0.32531708 0.52567566 -0.65063416 1.05135132 -0.98580933 1.59295654 C-2.29289645 4.69514983 -2.23989751 7.14685223 -2.22705078 10.51269531 C-2.22734283 11.15701508 -2.22763489 11.80133484 -2.22793579 12.46517944 C-2.22654694 14.58630021 -2.21100716 16.7070659 -2.1953125 18.828125 C-2.19158078 20.30214242 -2.18873456 21.77616232 -2.18673706 23.25018311 C-2.17911311 27.12344247 -2.15947535 30.99655105 -2.1373291 34.86975098 C-2.11684394 38.8246049 -2.10772964 42.77948327 -2.09765625 46.734375 C-2.07622821 54.48965196 -2.04210732 62.24480482 -2 70 C-1.34 70 -0.68 70 0 70 C-0.33 71.32 -0.66 72.64 -1 74 C-3.99256075 68.27510117 -5.12064291 64.32920034 -5.16113281 57.88623047 C-5.17074036 56.65170135 -5.1803479 55.41717224 -5.19024658 54.14523315 C-5.19509255 52.80255315 -5.19937187 51.459871 -5.203125 50.1171875 C-5.20887919 48.73764037 -5.21463689 47.35809325 -5.22039795 45.97854614 C-5.23088394 43.0919762 -5.23674345 40.20543395 -5.24023438 37.31884766 C-5.24573847 33.61520641 -5.26981664 29.91192923 -5.29820633 26.20840263 C-5.31679366 23.36201895 -5.32203602 20.51572408 -5.32357025 17.66928482 C-5.32660217 16.30328488 -5.33464884 14.93728671 -5.34775543 13.57134628 C-5.36474515 11.66596455 -5.36110118 9.76043225 -5.35644531 7.85498047 C-5.36191376 6.22760452 -5.36191376 6.22760452 -5.36749268 4.56735229 C-5.24622009 3.72012604 -5.12494751 2.87289978 -5 2 C-2 0 -2 0 0 0 Z " fill="#2E2E2E" transform="translate(94,293)"/>
<path d="M0 0 C0.98625315 3.11608401 0.96577971 5.20196335 0.2578125 8.37890625 C0.07863281 9.21873047 -0.10054688 10.05855469 -0.28515625 10.92382812 C-0.47980469 11.79458984 -0.67445313 12.66535156 -0.875 13.5625 C-3.96020347 27.48847014 -4.38213983 41.48263219 -5.0625 55.6875 C-5.15408687 57.56446338 -5.24588202 59.44141662 -5.33789062 61.31835938 C-5.56099596 65.87879273 -5.78128003 70.4393543 -6 75 C-6.33 75 -6.66 75 -7 75 C-7.37961041 37.45361043 -7.37961041 37.45361043 -6.1875 24.1875 C-6.11740723 23.36233887 -6.04731445 22.53717773 -5.97509766 21.68701172 C-5.39460531 16.15437505 -3.90901616 11.21023596 -2 6 C-1.608125 4.824375 -1.21625 3.64875 -0.8125 2.4375 C-0.4103125 1.2309375 -0.4103125 1.2309375 0 0 Z " fill="#9C9C9C" transform="translate(7,80)"/>
<path d="M0 0 C0.66 0 1.32 0 2 0 C2.33 1.65 2.66 3.3 3 5 C3.66 5 4.32 5 5 5 C5 5.99 5 6.98 5 8 C5.66 8 6.32 8 7 8 C7.33 10.31 7.66 12.62 8 15 C8.66 15 9.32 15 10 15 C11.69122293 18.03570977 12.46230032 20.77291864 13.0625 24.1875 C13.42184668 27.39132953 13.42184668 27.39132953 15 30 C15.36760731 32.32817964 15.70241581 34.6618385 16 37 C16.33 37 16.66 37 17 37 C17.495 45.415 17.495 45.415 18 54 C17.34 54 16.68 54 16 54 C15.37166036 51.08401603 14.7465851 48.16742648 14.125 45.25 C13.9401001 44.38415283 13.7552002 43.51830566 13.56469727 42.6262207 C12.55254897 37.82644814 11.6555354 33.04191025 10.9375 28.1875 C10.28328857 23.96754157 9.11495792 20.74924358 7 17 C7 16.01 7 15.02 7 14 C6.34 14 5.68 14 5 14 C4.35089846 12.41800369 3.70585306 10.83434276 3.0625 9.25 C2.70285156 8.36828125 2.34320313 7.4865625 1.97265625 6.578125 C1.14643424 4.38813896 0.50630057 2.28101729 0 0 Z " fill="#5C5C5C" transform="translate(481,58)"/>
<path d="M0 0 C0.33 0 0.66 0 1 0 C1.13277344 1.25296875 1.26554688 2.5059375 1.40234375 3.796875 C1.58058291 5.44793246 1.7589764 7.09897327 1.9375 8.75 C2.02451172 9.575 2.11152344 10.4 2.20117188 11.25 C2.28818359 12.04921875 2.37519531 12.8484375 2.46484375 13.671875 C2.543396 14.4050293 2.62194824 15.13818359 2.70288086 15.89355469 C2.95776161 17.988384 2.95776161 17.988384 3.50439453 19.94482422 C4.09056223 22.37554328 4.28335554 24.71719618 4.46484375 27.2109375 C4.54283203 28.20867187 4.62082031 29.20640625 4.70117188 30.234375 C4.85811759 32.32006681 5.0117894 34.40600769 5.16210938 36.4921875 C5.57382167 41.68712635 6.29301533 46.05510272 8 51 C7.625 53.375 7.625 53.375 7 55 C4.94637945 49.91059256 3.56820748 45.45479185 3 40 C2.67 40 2.34 40 2 40 C0.58336127 26.62105281 -0.29900074 13.45503311 0 0 Z " fill="#7C7C7C" transform="translate(0,365)"/>
<path d="M0 0 C1.32 0.33 2.64 0.66 4 1 C4 1.66 4 2.32 4 3 C5.65 3.33 7.3 3.66 9 4 C9 4.66 9 5.32 9 6 C9.556875 6.268125 10.11375 6.53625 10.6875 6.8125 C17.82608696 10.47826087 17.82608696 10.47826087 19 14 C19.99 14 20.98 14 22 14 C23.4296875 15.35546875 23.4296875 15.35546875 24.875 17.1875 C26.74182983 19.49440138 28.52722429 21.50270223 30.6875 23.5625 C33.17987109 26.18959386 34.54325887 28.70316482 36 32 C34 32 34 32 32.4921875 30.5390625 C31.95851563 29.90742187 31.42484375 29.27578125 30.875 28.625 C30.33617187 27.99851562 29.79734375 27.37203125 29.2421875 26.7265625 C28 25 28 25 28 23 C27.41863281 22.74992187 26.83726562 22.49984375 26.23828125 22.2421875 C23.70696729 20.83737452 22.15124083 19.24472025 20.1875 17.125 C16.70826741 13.53479752 13.45765707 11.22882853 9 9 C9 8.34 9 7.68 9 7 C8.34 7 7.68 7 7 7 C7 6.34 7 5.68 7 5 C5.35 4.67 3.7 4.34 2 4 C2 3.34 2 2.68 2 2 C1.34 2 0.68 2 0 2 C0 1.34 0 0.68 0 0 Z " fill="#8C8C8C" transform="translate(438,16)"/>
<path d="M0 0 C14.1312764 -0.27588175 27.9491657 0.48447685 42 2 C42 2.66 42 3.32 42 4 C42.66 4.33 43.32 4.66 44 5 C34.66387326 5.29935477 25.61847887 4.1474929 16.375 3 C14.78261795 2.80674818 13.19017036 2.61403554 11.59765625 2.421875 C7.7309874 1.95412824 3.86527806 1.47909825 0 1 C0 0.67 0 0.34 0 0 Z " fill="#8F8F8F" transform="translate(363,0)"/>
<path d="M0 0 C0 0.33 0 0.66 0 1 C-0.60996826 1.05534912 -1.21993652 1.11069824 -1.84838867 1.16772461 C-4.62835273 1.42155316 -7.40792124 1.67948775 -10.1875 1.9375 C-11.62706055 2.06801758 -11.62706055 2.06801758 -13.09570312 2.20117188 C-14.02705078 2.28818359 -14.95839844 2.37519531 -15.91796875 2.46484375 C-16.77156982 2.543396 -17.6251709 2.62194824 -18.50463867 2.70288086 C-21.02064356 2.968787 -21.02064356 2.968787 -23.5546875 3.51367188 C-25.8034951 3.96091875 -27.92099082 4.19425142 -30.20703125 4.31640625 C-31.33334961 4.37924805 -31.33334961 4.37924805 -32.48242188 4.44335938 C-33.25134766 4.48267578 -34.02027344 4.52199219 -34.8125 4.5625 C-35.60076172 4.60568359 -36.38902344 4.64886719 -37.20117188 4.69335938 C-39.13394215 4.79878321 -41.06695026 4.89983094 -43 5 C-42.67 4.01 -42.34 3.02 -42 2 C-28.01461045 -0.3661082 -14.14736081 -0.2105262 0 0 Z " fill="#A0A0A0" transform="translate(143,0)"/>
<path d="M0 0 C0.66 0.33 1.32 0.66 2 1 C1.34 2.32 0.68 3.64 0 5 C-0.66 5 -1.32 5 -2 5 C-2.165 5.680625 -2.33 6.36125 -2.5 7.0625 C-5.06638734 12.08834188 -9.62921972 16.20973991 -15 18 C-15 18.66 -15 19.32 -15 20 C-16.32 20.33 -17.64 20.66 -19 21 C-19 21.66 -19 22.32 -19 23 C-22.46153846 26 -22.46153846 26 -25 26 C-25 26.66 -25 27.32 -25 28 C-26.65 28.33 -28.3 28.66 -30 29 C-30 29.66 -30 30.32 -30 31 C-31.32 31.33 -32.64 31.66 -34 32 C-34 31.34 -34 30.68 -34 30 C-33.34 30 -32.68 30 -32 30 C-32 29.34 -32 28.68 -32 28 C-31.01 28 -30.02 28 -29 28 C-29 27.34 -29 26.68 -29 26 C-27.02297727 24.61608409 -25.02934384 23.30332858 -23 22 C-17.22683015 18.23140302 -12.42223758 13.60358913 -7.5625 8.75 C-6.93472656 8.12303223 -6.30695313 7.49606445 -5.66015625 6.85009766 C-2.43711357 3.7158285 -2.43711357 3.7158285 0 0 Z " fill="#7B7B7B" transform="translate(472,452)"/>
<path d="M0 0 C0.66 0 1.32 0 2 0 C3.72243706 1.9684995 5.36296086 3.96231707 7 6 C11.70973315 11.66212763 11.70973315 11.66212763 17.125 16.625 C19.35949719 18.47088898 20.95808804 20.03892734 22.75 22.25 C24.70631884 25.02359938 24.70631884 25.02359938 27 26 C26.67 26.99 26.34 27.98 26 29 C26 28.34 26 27.68 26 27 C24.68 26.67 23.36 26.34 22 26 C22 25.34 22 24.68 22 24 C21.01 24 20.02 24 19 24 C17.53515625 22.609375 17.53515625 22.609375 16.0625 20.75 C14.31047716 18.58727854 12.62602407 16.63586554 10.625 14.6875 C9 13 9 13 9 11 C8.01 10.67 7.02 10.34 6 10 C5.67 9.01 5.34 8.02 5 7 C4.34 6.67 3.68 6.34 3 6 C3 5.34 3 4.68 3 4 C2.34 4 1.68 4 1 4 C0.67 2.68 0.34 1.36 0 0 Z " fill="#898989" transform="translate(21,446)"/>
<path d="M0 0 C0.33 0 0.66 0 1 0 C1.29366149 11.82803234 0.4286661 23.26452843 -1 35 C-1.66 35 -2.32 35 -3 35 C-3.33 35.66 -3.66 36.32 -4 37 C-3.53732394 28.74488508 -2.90497775 20.53117552 -2 12.3125 C-1.9170166 11.54695801 -1.8340332 10.78141602 -1.74853516 9.99267578 C-1.36230507 6.58641479 -0.88067264 3.31123741 0 0 Z " fill="#717171" transform="translate(499,366)"/>
<path d="M0 0 C0.99968429 3.1464594 0.95578812 5.27220063 0.2578125 8.484375 C0.07863281 9.33773437 -0.10054688 10.19109375 -0.28515625 11.0703125 C-0.47980469 11.95460938 -0.67445313 12.83890625 -0.875 13.75 C-2.18256407 19.82791849 -3.32415652 25.81675114 -4 32 C-4.66 32 -5.32 32 -6 32 C-5.40126368 14.01726439 -5.40126368 14.01726439 -2 6 C-1.608125 4.824375 -1.21625 3.64875 -0.8125 2.4375 C-0.4103125 1.2309375 -0.4103125 1.2309375 0 0 Z " fill="#676767" transform="translate(7,80)"/>
<path d="M0 0 C0.99 0.33 1.98 0.66 3 1 C1.71451591 2.33929505 0.42141845 3.67128643 -0.875 5 C-1.59429687 5.7425 -2.31359375 6.485 -3.0546875 7.25 C-5 9 -5 9 -7 9 C-7.33 9.99 -7.66 10.98 -8 12 C-8.66 12 -9.32 12 -10 12 C-10.25523438 12.58265625 -10.51046875 13.1653125 -10.7734375 13.765625 C-12.11741087 16.21388223 -13.61810296 17.81743248 -15.625 19.75 C-16.57246094 20.67039062 -16.57246094 20.67039062 -17.5390625 21.609375 C-18.02117188 22.06828125 -18.50328125 22.5271875 -19 23 C-19.66 22.34 -20.32 21.68 -21 21 C-20.34 21 -19.68 21 -19 21 C-19 20.01 -19 19.02 -19 18 C-17.6796875 16.640625 -17.6796875 16.640625 -15.875 15.25 C-13.22723067 13.10503939 -10.98400176 10.93940622 -8.8125 8.3125 C-6.74140959 5.81614569 -4.80444869 3.70270099 -2 2 C-1.34 2 -0.68 2 0 2 C0 1.34 0 0.68 0 0 Z " fill="#898989" transform="translate(46,25)"/>
<path d="M0 0 C1.32 0.33 2.64 0.66 4 1 C4 1.66 4 2.32 4 3 C5.11375 3.0825 6.2275 3.165 7.375 3.25 C11.80635949 3.79213441 15.56606021 5.2759129 19.65625 7.01171875 C22.39092721 8.16484097 25.17083046 9.10657804 28 10 C28 10.66 28 11.32 28 12 C26.68 12 25.36 12 24 12 C24 11.34 24 10.68 24 10 C23.25234375 9.96261719 22.5046875 9.92523438 21.734375 9.88671875 C20.25710937 9.78810547 20.25710937 9.78810547 18.75 9.6875 C17.77546875 9.62949219 16.8009375 9.57148438 15.796875 9.51171875 C12.69327403 8.94388114 11.40625194 7.96510575 9 6 C6.68652128 5.26739841 4.354248 4.588562 2 4 C2 3.34 2 2.68 2 2 C1.34 2 0.68 2 0 2 C0 1.34 0 0.68 0 0 Z " fill="#858585" transform="translate(64,484)"/>
<path d="M0 0 C0.33 0.66 0.66 1.32 1 2 C1.66 2 2.32 2 3 2 C5.61537297 5.95495425 5.44264274 10.16827373 5.625 14.75 C5.66367187 15.54277344 5.70234375 16.33554688 5.7421875 17.15234375 C5.836108 19.10119416 5.91912822 21.05056451 6 23 C5.34 23 4.68 23 4 23 C3.32667007 19.91808296 2.66251141 16.8342592 2 13.75 C1.80921875 12.87730469 1.6184375 12.00460938 1.421875 11.10546875 C1.24140625 10.26113281 1.0609375 9.41679688 0.875 8.546875 C0.70742188 7.77182617 0.53984375 6.99677734 0.3671875 6.19824219 C0 4 0 4 0 0 Z " fill="#828282" transform="translate(493,89)"/>
<path d="M0 0 C0 0.99 0 1.98 0 3 C-1.32 3.33 -2.64 3.66 -4 4 C-4 4.66 -4 5.32 -4 6 C-10.5 9 -10.5 9 -15 9 C-15 9.66 -15 10.32 -15 11 C-17.97 10.505 -17.97 10.505 -21 10 C-18.18178397 8.12118931 -16.14357281 7.30990783 -12.9375 6.375 C-12.05964844 6.11460937 -11.18179687 5.85421875 -10.27734375 5.5859375 C-8 5 -8 5 -6 5 C-6 4.34 -6 3.68 -6 3 C-4.02 2.01 -2.04 1.02 0 0 Z " fill="#949494" transform="translate(437,482)"/>
<path d="M0 0 C6.49678438 -0.29530838 12.6221448 0.82706111 19 2 C19 2.66 19 3.32 19 4 C12.73 3.67 6.46 3.34 0 3 C0 2.01 0 1.02 0 0 Z " fill="#828282" transform="translate(95,495)"/>
<path d="M0 0 C0.66 0.33 1.32 0.66 2 1 C1.34 2.32 0.68 3.64 0 5 C-0.66 5 -1.32 5 -2 5 C-2.185625 5.70125 -2.37125 6.4025 -2.5625 7.125 C-4.48800117 10.97600234 -7.27944779 13.79584212 -11 16 C-11.99 15.67 -12.98 15.34 -14 15 C-13.07316406 14.08476562 -12.14632813 13.16953125 -11.19140625 12.2265625 C-9.98163961 11.0261739 -8.77201135 9.82564583 -7.5625 8.625 C-6.95083984 8.02171875 -6.33917969 7.4184375 -5.70898438 6.796875 C-5.12568359 6.21679688 -4.54238281 5.63671875 -3.94140625 5.0390625 C-3.40201416 4.50490723 -2.86262207 3.97075195 -2.30688477 3.42041016 C-0.89153023 2.01347612 -0.89153023 2.01347612 0 0 Z " fill="#838383" transform="translate(472,452)"/>
<path d="M0 0 C0.99 0 1.98 0 3 0 C4.4606285 2.64738916 5 3.89448334 5 7 C5.66 7 6.32 7 7 7 C7.66 9.97 8.32 12.94 9 16 C8.34 16 7.68 16 7 16 C7 15.01 7 14.02 7 13 C6.34 13 5.68 13 5 13 C4.67 10.69 4.34 8.38 4 6 C3.34 6 2.68 6 2 6 C2 4.68 2 3.36 2 2 C1.34 2 0.68 2 0 2 C0 1.34 0 0.68 0 0 Z " fill="#6D6D6D" transform="translate(7,421)"/>
<path d="M0 0 C-3 2 -3 2 -5 2 C-5 2.66 -5 3.32 -5 4 C-6.65 4.33 -8.3 4.66 -10 5 C-10 5.66 -10 6.32 -10 7 C-10.66 7 -11.32 7 -12 7 C-12 7.66 -12 8.32 -12 9 C-12.99 9 -13.98 9 -15 9 C-15 9.66 -15 10.32 -15 11 C-15.66 10.67 -16.32 10.34 -17 10 C-16.34 8.68 -15.68 7.36 -15 6 C-14.01 6 -13.02 6 -12 6 C-12 5.34 -12 4.68 -12 4 C-10.35 3.67 -8.7 3.34 -7 3 C-7 2.34 -7 1.68 -7 1 C-4.53721199 -0.231394 -2.7204945 -0.07159196 0 0 Z " fill="#959595" transform="translate(65,16)"/>
<path d="M0 0 C4 1.33333333 8 2.66666667 12 4 C12 4.66 12 5.32 12 6 C12.99 6 13.98 6 15 6 C15 6.66 15 7.32 15 8 C16.32 8.33 17.64 8.66 19 9 C17 10 17 10 14.6171875 9.22265625 C13.71226562 8.83980469 12.80734375 8.45695312 11.875 8.0625 C10.96492188 7.68222656 10.05484375 7.30195313 9.1171875 6.91015625 C8.41851562 6.60980469 7.71984375 6.30945313 7 6 C7 5.34 7 4.68 7 4 C5.68 4 4.36 4 3 4 C3 3.34 3 2.68 3 2 C2.01 1.67 1.02 1.34 0 1 C0 0.67 0 0.34 0 0 Z " fill="#808080" transform="translate(372,299)"/>
<path d="M0 0 C1.0143635 3.16538964 0.95408471 5.27924121 0.1875 8.5 C0.01605469 9.2528125 -0.15539062 10.005625 -0.33203125 10.78125 C-1.00488931 13.01624052 -1.89502703 14.94857339 -3 17 C-3.66 17 -4.32 17 -5 17 C-4.35841048 14.35307023 -3.71195217 11.70750071 -3.0625 9.0625 C-2.88009766 8.30775391 -2.69769531 7.55300781 -2.50976562 6.77539062 C-1.11328125 1.11328125 -1.11328125 1.11328125 0 0 Z " fill="#666666" transform="translate(7,80)"/>
<path d="M0 0 C0.99 0.33 1.98 0.66 3 1 C1.71451591 2.33929505 0.42141845 3.67128643 -0.875 5 C-1.59429687 5.7425 -2.31359375 6.485 -3.0546875 7.25 C-5 9 -5 9 -7 9 C-7 9.66 -7 10.32 -7 11 C-8.32 10.67 -9.64 10.34 -11 10 C-9.73427767 8.84852339 -8.46222094 7.70400686 -7.1875 6.5625 C-6.47980469 5.92441406 -5.77210937 5.28632813 -5.04296875 4.62890625 C-3 3 -3 3 0 2 C0 1.34 0 0.68 0 0 Z " fill="#7B7B7B" transform="translate(46,25)"/>
<path d="M0 0 C0.66 0 1.32 0 2 0 C3.73901264 1.96783009 5.3720175 3.94564113 7 6 C7.78375 6.886875 8.5675 7.77375 9.375 8.6875 C9.91125 9.450625 10.4475 10.21375 11 11 C10.67 11.99 10.34 12.98 10 14 C9.67 13.01 9.34 12.02 9 11 C8.01 10.67 7.02 10.34 6 10 C5.67 9.01 5.34 8.02 5 7 C4.34 6.67 3.68 6.34 3 6 C3 5.34 3 4.68 3 4 C2.34 4 1.68 4 1 4 C0.67 2.68 0.34 1.36 0 0 Z " fill="#777777" transform="translate(21,446)"/>
<path d="M0 0 C3.96 1.98 3.96 1.98 8 4 C8 4.66 8 5.32 8 6 C10.475 6.99 10.475 6.99 13 8 C12.67 8.66 12.34 9.32 12 10 C11.01 9.67 10.02 9.34 9 9 C9 8.34 9 7.68 9 7 C7.35 6.67 5.7 6.34 4 6 C4 5.34 4 4.68 4 4 C2.68 3.34 1.36 2.68 0 2 C0 1.34 0 0.68 0 0 Z " fill="#818181" transform="translate(49,474)"/>
<path d="M0 0 C0 0.33 0 0.66 0 1 C-1.65 1 -3.3 1 -5 1 C-5 1.66 -5 2.32 -5 3 C-8.96 2.67 -12.92 2.34 -17 2 C-17 1.67 -17 1.34 -17 1 C-11.33357449 -0.22517308 -5.76291482 -0.09228867 0 0 Z " fill="#D0D0D0" transform="translate(393,496)"/>
<path d="M0 0 C0.33 0 0.66 0 1 0 C1.125 6.625 1.125 6.625 0 10 C-0.66 10 -1.32 10 -2 10 C-2 10.99 -2 11.98 -2 13 C-2.66 13 -3.32 13 -4 13 C-3.67 11.02 -3.34 9.04 -3 7 C-2.34 7 -1.68 7 -1 7 C-0.67 4.69 -0.34 2.38 0 0 Z " fill="#888888" transform="translate(488,424)"/>
<path d="M0 0 C0.33 0 0.66 0 1 0 C1 1.65 1 3.3 1 5 C1.66 5 2.32 5 3 5 C2.67 8.63 2.34 12.26 2 16 C1.67 16 1.34 16 1 16 C0.08342019 10.61509359 -0.11138159 5.45769811 0 0 Z " fill="#CDCDCD" transform="translate(496,107)"/>
<path d="M0 0 C-5.625 3 -5.625 3 -9 3 C-9 3.66 -9 4.32 -9 5 C-10.32 4.67 -11.64 4.34 -13 4 C-11.59248779 3.13083113 -10.1735479 2.28014851 -8.75 1.4375 C-7.96109375 0.96183594 -7.1721875 0.48617188 -6.359375 -0.00390625 C-3.69155375 -1.13022151 -2.65498232 -1.0169313 0 0 Z " fill="#626262" transform="translate(138,272)"/>
<path d="M0 0 C1.58294782 -0.05437607 3.16644256 -0.09296271 4.75 -0.125 C5.63171875 -0.14820313 6.5134375 -0.17140625 7.421875 -0.1953125 C10.1135858 0.00860498 11.69904974 0.63448279 14 2 C11.69 2.33 9.38 2.66 7 3 C7 2.34 7 1.68 7 1 C4.69 1 2.38 1 0 1 C0 0.67 0 0.34 0 0 Z " fill="#D2D2D2" transform="translate(107,496)"/>
<path d="M0 0 C2.97 0.33 5.94 0.66 9 1 C9.33 1.99 9.66 2.98 10 4 C8.68 4 7.36 4 6 4 C6 3.34 6 2.68 6 2 C4.02 2 2.04 2 0 2 C0 1.34 0 0.68 0 0 Z " fill="#767676" transform="translate(82,492)"/>
<path d="M0 0 C0.33 0 0.66 0 1 0 C1.33 4.29 1.66 8.58 2 13 C1.34 13 0.68 13 0 13 C-0.33 13.66 -0.66 14.32 -1 15 C-0.67 10.05 -0.34 5.1 0 0 Z " fill="#A8A8A8" transform="translate(496,388)"/>
<path d="M0 0 C0.66 0.33 1.32 0.66 2 1 C-2.625 6.875 -2.625 6.875 -6 8 C-4.55746343 4.63408134 -2.66735273 2.48952921 0 0 Z " fill="#484848" transform="translate(100,125)"/>
<path d="M0 0 C2.31 1.98 4.62 3.96 7 6 C6.01 6.33 5.02 6.66 4 7 C1.8125 5.8125 1.8125 5.8125 0 4 C0 2.68 0 1.36 0 0 Z " fill="#A2A2A2" transform="translate(32,458)"/>
<path d="M0 0 C0.33 0.99 0.66 1.98 1 3 C1.66 3 2.32 3 3 3 C3 3.66 3 4.32 3 5 C3.66 5 4.32 5 5 5 C5 6.98 5 8.96 5 11 C2 7.375 2 7.375 2 4 C1.34 4 0.68 4 0 4 C0 2.68 0 1.36 0 0 Z " fill="#949494" transform="translate(486,68)"/>
<path d="M0 0 C1.98 0 3.96 0 6 0 C5.67 0.99 5.34 1.98 5 3 C2.69 3 0.38 3 -2 3 C-1.34 2.67 -0.68 2.34 0 2 C0 1.34 0 0.68 0 0 Z " fill="#818181" transform="translate(95,2)"/>
<path d="M0 0 C5.75 1.875 5.75 1.875 8 3 C8 3.66 8 4.32 8 5 C8.66 5.33 9.32 5.66 10 6 C9.01 6 8.02 6 7 6 C7 5.34 7 4.68 7 4 C5.68 4 4.36 4 3 4 C3 3.34 3 2.68 3 2 C2.01 1.67 1.02 1.34 0 1 C0 0.67 0 0.34 0 0 Z " fill="#9B9B9B" transform="translate(271,299)"/>
<path d="M0 0 C-1.45381897 0.69699552 -2.91322953 1.38233866 -4.375 2.0625 C-5.18710937 2.44535156 -5.99921875 2.82820312 -6.8359375 3.22265625 C-7.55007813 3.47917969 -8.26421875 3.73570312 -9 4 C-9.66 3.67 -10.32 3.34 -11 3 C-4.03571429 -1.41964286 -4.03571429 -1.41964286 0 0 Z " fill="#969696" transform="translate(401,187)"/>
<path d="M0 0 C4.455 0.99 4.455 0.99 9 2 C9 2.66 9 3.32 9 4 C2.25 3.125 2.25 3.125 0 2 C0 1.34 0 0.68 0 0 Z " fill="#747474" transform="translate(409,4)"/>
<path d="M0 0 C0.33 0.99 0.66 1.98 1 3 C0.67 3.66 0.34 4.32 0 5 C-0.66 5 -1.32 5 -2 5 C-2 5.99 -2 6.98 -2 8 C-2.66 8 -3.32 8 -4 8 C-2.25 2.25 -2.25 2.25 0 0 Z " fill="#6B6B6B" transform="translate(483,437)"/>
<path d="M0 0 C3.96 0 7.92 0 12 0 C12 0.33 12 0.66 12 1 C9.03 1 6.06 1 3 1 C3 1.66 3 2.32 3 3 C2.01 2.67 1.02 2.34 0 2 C0 1.34 0 0.68 0 0 Z " fill="#C4C4C4" transform="translate(122,168)"/>
<path d="M0 0 C-0.33 2.64 -0.66 5.28 -1 8 C-3 6 -3 6 -3.125 3.375 C-3.08375 2.59125 -3.0425 1.8075 -3 1 C-1 0 -1 0 0 0 Z " fill="#9A9A9A" transform="translate(5,96)"/>
<path d="" fill="#343434" transform="translate(0,0)"/>
<path d="" fill="#323232" transform="translate(0,0)"/>
</svg>
