<?xml version="1.0" encoding="UTF-8"?>
<svg version="1.1" xmlns="http://www.w3.org/2000/svg" width="256" height="256">
<path d="M0 0 C1.49436573 -0.00735359 2.9887258 -0.01594354 4.483078 -0.02566528 C8.51647314 -0.04775926 12.54966324 -0.05081793 16.58311057 -0.04891777 C19.96474834 -0.04879746 23.34634363 -0.05738663 26.72796947 -0.06569529 C34.7161365 -0.08488742 42.70419905 -0.08782919 50.69238281 -0.08105469 C58.89720345 -0.0744236 67.10157342 -0.09725019 75.30630273 -0.13436842 C82.38101632 -0.16519768 89.45558598 -0.17641101 96.53036529 -0.1725316 C100.74224655 -0.17047696 104.95377725 -0.17574158 109.1655941 -0.20042419 C113.13282292 -0.22290774 117.09932676 -0.22063735 121.06656075 -0.20049667 C122.50996352 -0.19712389 123.9534172 -0.2020115 125.3967514 -0.21648026 C143.81845721 -0.38818205 159.35210348 6.10486234 172.84106445 18.66992188 C185.70305498 32.48819423 190.75731664 48.48966245 190.61303711 67.02148438 C190.61983524 68.51659196 190.62875052 70.01169114 190.6395874 71.5067749 C190.66212736 75.51937672 190.65365101 79.53132638 190.63769197 83.54393768 C190.62489995 87.77296005 190.63680956 92.00193212 190.6446228 96.23095703 C190.6536811 103.32855093 190.64183253 110.42588343 190.61791992 117.5234375 C190.5907159 125.69147254 190.59953279 133.85888321 190.62705195 142.02690315 C190.6498517 149.080514 190.6528904 156.13393854 190.6398586 163.18757439 C190.63212338 167.38257939 190.63085667 171.5772924 190.64754105 175.77227783 C190.66214625 179.71910606 190.65167711 183.66514119 190.62306976 187.61188507 C190.61654346 189.04721011 190.61820858 190.4826037 190.62938309 191.91790009 C190.75915898 210.30322074 184.25591046 225.83302837 171.71606445 239.29492188 C157.8977921 252.15691241 141.89632387 257.21117406 123.36450195 257.06689453 C121.86939437 257.07369266 120.37429519 257.08260795 118.87921143 257.09344482 C114.8666096 257.11598478 110.85465995 257.10750843 106.84204865 257.0915494 C102.61302628 257.07875737 98.38405421 257.09066698 94.1550293 257.09848022 C87.0574354 257.10753852 79.9601029 257.09568996 72.86254883 257.07177734 C64.69451379 257.04457332 56.52710311 257.05339022 48.35908318 257.08090937 C41.30547233 257.10370912 34.25204779 257.10674782 27.19841194 257.09371603 C23.00340693 257.0859808 18.80869393 257.08471409 14.6137085 257.10139847 C10.66688027 257.11600367 6.72084514 257.10553453 2.77410126 257.07692719 C1.33877621 257.07040088 -0.09661738 257.07206601 -1.53191376 257.08324051 C-19.62523776 257.21095529 -34.50968252 251.16540594 -47.7175293 238.76367188 C-61.33179398 224.98869918 -66.49842652 209.40805555 -66.45385742 190.38598633 C-66.46121102 188.8916206 -66.46980097 187.39726053 -66.47952271 185.90290833 C-66.50161668 181.86951319 -66.50467535 177.83632309 -66.50277519 173.80287576 C-66.50265488 170.42123799 -66.51124406 167.0396427 -66.51955271 163.65801686 C-66.53874484 155.66984983 -66.54168662 147.68178727 -66.53491211 139.69360352 C-66.52828102 131.48878288 -66.55110761 123.2844129 -66.58822584 115.0796836 C-66.6190551 108.00497001 -66.63026843 100.93040035 -66.62638903 93.85562104 C-66.62433438 89.64373978 -66.629599 85.43220908 -66.65428162 81.22039223 C-66.67676516 77.25316341 -66.67449477 73.28665957 -66.6543541 69.31942558 C-66.65098131 67.8760228 -66.65586893 66.43256912 -66.67033768 64.98923492 C-66.83932052 46.85924311 -60.80521373 31.97164564 -48.37768555 18.73632812 C-34.60271285 5.12206345 -19.02206922 -0.04456909 0 0 Z M5.96606445 78.41992188 C-1.70327214 87.85910538 -1.49642904 98.41588505 -1.4675293 109.91601562 C-1.47209941 111.51587646 -1.47740743 113.11573534 -1.4834137 114.71559143 C-1.49231062 118.05665092 -1.48996089 121.39747095 -1.47998047 124.73852539 C-1.46849389 128.99628426 -1.48871443 133.25321333 -1.51789761 137.5108633 C-1.53634216 140.81139782 -1.53595085 144.11173647 -1.53026009 147.41230965 C-1.53010789 148.98102037 -1.53606756 150.54974524 -1.54855156 152.1184063 C-1.62902646 163.88569148 -0.33064995 174.38366747 7.96606445 183.41992188 C17.2895333 191.99564385 28.46760054 191.88362882 40.42700195 191.85351562 C42.02446716 191.85808616 43.62193041 191.86339431 45.21939087 191.86940002 C48.55625429 191.87829774 51.89287796 191.87594692 55.22973633 191.8659668 C59.47842972 191.85448961 63.72629038 191.87468597 67.9748745 191.90388393 C71.27116032 191.92234694 74.56725035 191.92193339 77.86357498 191.91624641 C79.42866813 191.91609439 80.99377557 191.92203932 82.55881882 191.93453789 C94.89038682 192.01915396 105.17712881 190.58057422 114.95825195 182.41210938 C125.05097253 172.39793137 126.05916905 160.85843552 126.13066101 147.31716919 C126.13177383 146.0336557 126.13288666 144.75014221 126.1340332 143.42773438 C126.1372541 142.07306891 126.14061878 140.71840378 126.14411926 139.36373901 C126.15007892 136.53463943 126.1519624 133.70557025 126.15136719 130.87646484 C126.15126566 127.2769374 126.1649229 123.67760759 126.1821394 120.07812691 C126.19333472 117.28289926 126.19528411 114.48771831 126.19475746 111.69247055 C126.19648847 109.72848798 126.20727788 107.76451999 126.2183075 105.80056763 C126.18669121 93.31787878 124.83926925 83.25100607 116.3684082 73.59960938 C107.16457733 64.93974014 96.09443545 64.8181453 84.1887207 64.88867188 C82.57026436 64.88597079 80.95180961 64.88208326 79.33335876 64.8770752 C75.95531637 64.87120738 72.57769959 64.87965333 69.19970703 64.8984375 C64.89832377 64.92120744 60.59794023 64.90809965 56.29659367 64.88414764 C52.95825351 64.86959978 49.62014506 64.87433675 46.28179741 64.88465881 C44.69717728 64.88730233 43.1125352 64.88414128 41.52794075 64.8747406 C26.66319011 64.8058921 16.43978644 67.281822 5.96606445 78.41992188 Z " fill="#029BFE" transform="translate(66.033935546875,-0.419921875)"/>
<path d="M0 0 C4.85220362 -0.12554464 9.70342022 -0.21523191 14.55688477 -0.2746582 C16.20060737 -0.29948301 17.84422349 -0.3333554 19.48754883 -0.37719727 C39.25684899 -0.89060714 55.16298798 4.54566003 69.875 18.25 C82.73699053 32.06827235 87.79125219 48.06974058 87.64697266 66.6015625 C87.65377079 68.09667008 87.66268607 69.59176927 87.67352295 71.08685303 C87.6960629 75.09945485 87.68758655 79.1114045 87.67162752 83.12401581 C87.6588355 87.35303818 87.67074511 91.58201024 87.67855835 95.81103516 C87.68761665 102.90862906 87.67576808 110.00596155 87.65185547 117.10351562 C87.62465145 125.27155066 87.63346834 133.43896134 87.6609875 141.60698128 C87.68378725 148.66059212 87.68682594 155.71401666 87.67379415 162.76765251 C87.66605893 166.96265752 87.66479222 171.15737052 87.68147659 175.35235596 C87.6960818 179.29918418 87.68561266 183.24521931 87.65700531 187.1919632 C87.65047901 188.62728824 87.65214413 190.06268183 87.66331863 191.49797821 C87.79309452 209.88329887 81.289846 225.41310649 68.75 238.875 C53.23181943 253.31925804 36.45618056 256.82578002 16.0625 256.3125 C14.30016243 256.28734462 12.53778961 256.26454443 10.77539062 256.24414062 C6.51603394 256.18981242 2.25842243 256.10395758 -2 256 C-2 255.67 -2 255.34 -2 255 C-1.03320312 254.84144531 -0.06640625 254.68289062 0.9296875 254.51953125 C12.00307563 252.58796059 20.97189068 250.13129301 28.52734375 241.2578125 C34.04224672 232.80260317 34.34054435 223.81055037 33 214 C30.49499408 205.81128747 25.30099232 200.28749549 18 196 C10.34686913 191.99545478 1.44031489 192.30033022 -7 192 C-6 190 -6 190 -3.8125 189.17578125 C-2.884375 188.89089844 -1.95625 188.60601562 -1 188.3125 C8.18446142 185.08004669 14.71851406 179.79782133 19 171 C22.69775215 162.12539485 22.15978422 152.44771981 22.16796875 143.0078125 C22.17118965 141.65314704 22.17455432 140.29848191 22.17805481 138.94381714 C22.18401446 136.11471756 22.18589795 133.28564838 22.18530273 130.45654297 C22.1852012 126.85701553 22.19885845 123.25768572 22.21607494 119.65820503 C22.22727027 116.86297739 22.22921966 114.06779643 22.22869301 111.27254868 C22.23042402 109.30856611 22.24121342 107.34459811 22.25224304 105.38064575 C22.22142409 93.21275861 21.19106903 82.19106903 12.1796875 73.1796875 C7.31181402 69.25779753 1.86521587 67.04321045 -4 65 C-4 64.67 -4 64.34 -4 64 C-2.90042969 63.92523438 -1.80085937 63.85046875 -0.66796875 63.7734375 C9.47220099 62.93483731 18.35542954 61.63293217 25.89453125 54.109375 C33.27197686 44.99078043 34.16127255 35.29703972 33 24 C30.85880716 16.11792779 25.66615636 10.52774941 19 6 C13.09439673 3.11442502 6.42754211 2.1405868 0 1 C0 0.67 0 0.34 0 0 Z " fill="#005EAA" transform="translate(169,0)"/>
</svg>
