<?xml version="1.0" encoding="UTF-8"?>
<svg version="1.1" xmlns="http://www.w3.org/2000/svg" width="500" height="500">
<path d="M0 0 C1.52043915 0.00081573 1.52043915 0.00081573 3.07159424 0.00164795 C19.26871221 0.04152583 34.81258365 0.90752199 50.6875 4.375 C52.22688232 4.70443604 52.22688232 4.70443604 53.79736328 5.04052734 C90.19954314 13.02876778 124.32904613 28.27148766 153.6875 51.375 C155.1415625 52.51195313 155.1415625 52.51195313 156.625 53.671875 C171.32719241 65.45033596 185.05648647 78.54596699 196.6875 93.375 C197.45449219 94.3134375 198.22148437 95.251875 199.01171875 96.21875 C206.84422597 106.00623084 213.31488682 116.5958611 219.6875 127.375 C220.08211426 128.03725586 220.47672852 128.69951172 220.88330078 129.38183594 C233.52598472 150.86331368 241.26958719 175.36202245 246.4375 199.625 C246.73587769 201.02504272 246.73587769 201.02504272 247.0402832 202.45336914 C250.23556701 218.24336237 251.09498443 233.6208319 251.0625 249.6875 C251.06168427 251.20793915 251.06168427 251.20793915 251.06085205 252.75909424 C251.02097417 268.95621221 250.15497801 284.50008365 246.6875 300.375 C246.46787598 301.40125488 246.24825195 302.42750977 246.02197266 303.48486328 C238.03373222 339.88704314 222.79101234 374.01654613 199.6875 403.375 C198.92953125 404.344375 198.1715625 405.31375 197.390625 406.3125 C185.3759998 421.30947897 171.94349856 435.65048259 156.6875 447.375 C156.14287109 447.79604004 155.59824219 448.21708008 155.03710938 448.65087891 C135.96632417 463.3071305 114.96464004 475.43181292 92.6875 484.5 C91.75655518 484.89074707 90.82561035 485.28149414 89.86645508 485.68408203 C83.45217202 488.19632862 77.57699665 489.25101829 70.6875 488.375 C67.19702096 486.72161519 65.36167607 485.64636061 63.55111694 482.23200989 C62.44742946 478.58080077 62.41114819 475.12702512 62.43212891 471.3503418 C62.42669823 470.15884773 62.42669823 470.15884773 62.42115784 468.94328308 C62.41427848 467.22184584 62.41175566 465.50038685 62.41310501 463.77893639 C62.41407483 461.03939162 62.40106952 458.30023443 62.38412476 455.56074524 C62.33802334 447.77254327 62.31330301 439.98437868 62.30664062 432.19604492 C62.30157586 427.4243953 62.27706836 422.65314524 62.24131393 417.88163185 C62.23162041 416.07788322 62.2291258 414.27407884 62.23448563 412.47031212 C62.28882331 393.26382572 59.56929024 375.69684699 45.6875 361.375 C48.71557974 359.35628017 50.03443341 358.99722572 53.52734375 358.515625 C54.49816895 358.3727002 55.46899414 358.22977539 56.46923828 358.08251953 C57.51063965 357.93153809 58.55204102 357.78055664 59.625 357.625 C85.11599914 353.63760254 107.89343477 345.33646624 127.6875 328.375 C128.29078125 327.86839844 128.8940625 327.36179687 129.515625 326.83984375 C148.49317381 309.50287743 157.2524953 280.20776254 158.81546021 255.33898926 C159.00884894 250.99240774 159.05905629 246.64956282 159.05810547 242.29907227 C159.06247691 240.0742513 159.0989618 237.85142614 159.13671875 235.62695312 C159.31272888 213.28089842 152.05496105 190.58400245 136.625 174 C134.6875 171.375 134.6875 171.375 134.96875 168.671875 C135.2059375 167.58390625 135.443125 166.4959375 135.6875 165.375 C139.98120719 145.30803686 139.73941812 126.85172623 132.6875 107.375 C132.6875 106.385 132.6875 105.395 132.6875 104.375 C115.80152725 103.50158762 99.65365994 110.04748527 84.9375 117.75 C84.21828369 118.12552002 83.49906738 118.50104004 82.75805664 118.88793945 C78.34986526 121.26750192 74.68577137 123.98854467 70.8125 127.1875 C67.14199115 129.72130283 64.75772857 130.63930007 60.39453125 130.0859375 C56.26757215 129.29903189 52.24234262 128.17606033 48.20166016 127.03417969 C44.1176092 125.9633953 39.98420527 125.31499418 35.8125 124.6875 C35.00949463 124.56552246 34.20648926 124.44354492 33.37915039 124.31787109 C6.91170556 120.40831153 -21.7446192 120.71695361 -47.62207031 127.8347168 C-61.07197287 131.44957354 -61.07197287 131.44957354 -67.37158203 127.95727539 C-69.82958161 126.32312536 -72.16386793 124.56675249 -74.48046875 122.73876953 C-77.67866461 120.35802299 -81.16190146 118.53363305 -84.6875 116.6875 C-85.39624268 116.31471924 -86.10498535 115.94193848 -86.83520508 115.55786133 C-99.362595 109.13009861 -112.16244252 104.94584584 -126.3125 104.375 C-129.43615187 105.02875668 -129.43615187 105.02875668 -130.375 107.4296875 C-136.40021053 125.55552918 -139.06895051 145.91825283 -133.125 164.4375 C-132.19842459 167.7874265 -132.29464241 169.07885369 -133.3125 172.375 C-134.78000463 174.5376384 -136.27154833 176.5703005 -137.875 178.625 C-156.62227362 203.84977058 -159.46006761 234.93505711 -155.1875 265.4375 C-150.93648365 292.26314667 -140.13989617 317.34320553 -118.25 334.3203125 C-97.06456878 349.13884551 -73.69501623 355.26146531 -48.47290039 358.97363281 C-46.3125 359.375 -46.3125 359.375 -44.3125 360.375 C-45.62513496 363.21800557 -47.1109356 365.42644482 -49.125 367.8125 C-54.12085025 374.35962894 -56.98970272 382.31106057 -58.0625 390.4375 C-58.58718998 393.00004841 -58.89983872 394.03673679 -60.9375 395.70703125 C-75.26791788 402.74052679 -92.33337187 403.2260897 -107.3125 398.375 C-119.97308353 393.32450942 -128.19417035 383.54591581 -135.35546875 372.30078125 C-143.00672003 360.86208422 -152.81966058 352.71499963 -166.3125 349.375 C-171.65846627 348.76663968 -176.46297298 348.78858559 -181.3125 351.375 C-180.84576012 355.57565888 -178.43503972 357.8107952 -175.3125 360.375 C-173.58463999 361.54360098 -171.85531422 362.71003597 -170.125 363.875 C-157.63455747 372.86141234 -149.89446196 387.4761586 -143.51171875 401.1875 C-137.60585678 413.86386641 -130.41823424 421.1761692 -117.3125 426.375 C-108.20826509 429.3978905 -99.55752973 430.56911306 -90 430.5625 C-88.55633057 430.5634668 -88.55633057 430.5634668 -87.08349609 430.56445312 C-78.36949889 430.50108907 -69.93245697 429.60164413 -61.3125 428.375 C-60.96797758 438.7317471 -60.65079858 449.08893667 -60.36645508 459.44750977 C-60.31921805 461.13500462 -60.26831159 462.82239594 -60.21679688 464.50976562 C-60.1487279 466.86076337 -60.10004243 469.21085323 -60.0625 471.5625 C-60.02382813 473.37814453 -60.02382813 473.37814453 -59.984375 475.23046875 C-60.43841136 479.58165057 -62.03441207 482.83064375 -64.8125 486.1875 C-68.89173163 489.4168917 -74.41068514 488.82046134 -79.3125 488.375 C-82.82023478 487.50654729 -86.09731149 486.24428545 -89.4375 484.875 C-90.35055908 484.5126123 -91.26361816 484.15022461 -92.2043457 483.77685547 C-100.48895902 480.42823433 -108.4442172 476.59876562 -116.3125 472.375 C-117.04065918 471.99085938 -117.76881836 471.60671875 -118.51904297 471.2109375 C-129.03743421 465.64778752 -138.85178763 459.58875901 -148.3125 452.375 C-148.8895166 451.94074707 -149.4665332 451.50649414 -150.06103516 451.05908203 C-158.96904403 444.33693693 -167.27142182 437.10848195 -175.3125 429.375 C-175.80379395 428.90562012 -176.29508789 428.43624023 -176.80126953 427.95263672 C-183.52900225 421.49627473 -189.56498626 414.71011369 -195.3125 407.375 C-196.09109375 406.41335938 -196.8696875 405.45171875 -197.671875 404.4609375 C-223.91208517 371.45175592 -241.0493552 331.02275818 -247.3125 289.375 C-247.57740234 287.6902356 -247.57740234 287.6902356 -247.84765625 285.97143555 C-249.50830136 274.33876485 -249.71123248 262.80048827 -249.6875 251.0625 C-249.68695618 250.0488739 -249.68641235 249.0352478 -249.68585205 247.99090576 C-249.64597417 231.79378779 -248.77997801 216.24991635 -245.3125 200.375 C-245.09287598 199.34874512 -244.87325195 198.32249023 -244.64697266 197.26513672 C-236.65873222 160.86295686 -221.41601234 126.73345387 -198.3125 97.375 C-197.55453125 96.405625 -196.7965625 95.43625 -196.015625 94.4375 C-184.23716404 79.73530759 -171.14153301 66.00601353 -156.3125 54.375 C-155.3740625 53.60800781 -154.435625 52.84101562 -153.46875 52.05078125 C-143.68126916 44.21827403 -133.0916389 37.74761318 -122.3125 31.375 C-121.65024414 30.98038574 -120.98798828 30.58577148 -120.30566406 30.17919922 C-98.82418632 17.53651528 -74.32547755 9.79291281 -50.0625 4.625 C-49.12913818 4.42608154 -48.19577637 4.22716309 -47.23413086 4.0222168 C-31.44413763 0.82693299 -16.0666681 -0.03248443 0 0 Z " fill="#FFFFFF" transform="translate(249.3125,-0.375)"/>
</svg>
