<?xml version="1.0" encoding="UTF-8"?>
<svg version="1.1" xmlns="http://www.w3.org/2000/svg" width="500" height="500">
<path d="M0 0 C0.92176025 -0.00926514 1.84352051 -0.01853027 2.79321289 -0.02807617 C9.05256701 0.00034757 14.85056055 0.80265191 20.9375 2.25 C20.9375 2.91 20.9375 3.57 20.9375 4.25 C23.9075 4.745 23.9075 4.745 26.9375 5.25 C26.9375 5.91 26.9375 6.57 26.9375 7.25 C28.06478516 7.38341797 28.06478516 7.38341797 29.21484375 7.51953125 C35.41419495 9.18277182 39.81801009 16.88447736 42.9375 22.25 C42.9375 23.24 42.9375 24.23 42.9375 25.25 C43.5975 25.25 44.2575 25.25 44.9375 25.25 C45.2675 27.56 45.5975 29.87 45.9375 32.25 C46.5975 32.25 47.2575 32.25 47.9375 32.25 C48.2675 36.54 48.5975 40.83 48.9375 45.25 C49.5975 45.25 50.2575 45.25 50.9375 45.25 C50.9375 51.52 50.9375 57.79 50.9375 64.25 C50.2775 64.25 49.6175 64.25 48.9375 64.25 C48.9375 64.91 48.9375 65.57 48.9375 66.25 C42.99270371 66.32401579 37.04817407 66.37853813 31.10302734 66.41479492 C29.07954234 66.42990526 27.0560902 66.45039437 25.03271484 66.47631836 C22.12849835 66.51260328 19.22471385 66.52970355 16.3203125 66.54296875 C15.41193634 66.55845261 14.50356018 66.57393646 13.56765747 66.58988953 C12.30657669 66.59022942 12.30657669 66.59022942 11.02001953 66.59057617 C9.90749313 66.60056892 9.90749313 66.60056892 8.77249146 66.61076355 C8.16694427 66.49171158 7.56139709 66.37265961 6.9375 66.25 C4.53630941 62.64821412 4.49978678 59.74133631 4.3125 55.5625 C4.27382812 54.86060547 4.23515625 54.15871094 4.1953125 53.43554688 C4.1012666 51.70745345 4.0183032 49.97876325 3.9375 48.25 C3.2775 48.25 2.6175 48.25 1.9375 48.25 C1.3496875 47.2909375 1.3496875 47.2909375 0.75 46.3125 C-1.88191084 43.31756697 -4.17688166 43.51797368 -8.0625 43.25 C-9.72878955 43.21454703 -11.39659803 43.19951812 -13.0625 43.25 C-13.0625 43.91 -13.0625 44.57 -13.0625 45.25 C-14.5475 45.745 -14.5475 45.745 -16.0625 46.25 C-17.40077304 47.91270287 -18.73439785 49.57916181 -20.0625 51.25 C-20.7225 51.25 -21.3825 51.25 -22.0625 51.25 C-22.3925 52.57 -22.7225 53.89 -23.0625 55.25 C-23.7225 55.25 -24.3825 55.25 -25.0625 55.25 C-25.206875 56.013125 -25.35125 56.77625 -25.5 57.5625 C-26.0625 60.25 -26.0625 60.25 -27.0625 63.25 C-27.7225 63.25 -28.3825 63.25 -29.0625 63.25 C-29.3925 65.56 -29.7225 67.87 -30.0625 70.25 C-30.7225 70.25 -31.3825 70.25 -32.0625 70.25 C-32.3925 72.56 -32.7225 74.87 -33.0625 77.25 C-33.7225 77.25 -34.3825 77.25 -35.0625 77.25 C-35.3925 80.55 -35.7225 83.85 -36.0625 87.25 C-36.7225 87.25 -37.3825 87.25 -38.0625 87.25 C-38.3925 91.87 -38.7225 96.49 -39.0625 101.25 C-39.7225 101.25 -40.3825 101.25 -41.0625 101.25 C-40.96842956 105.27055525 -40.86222181 109.29059488 -40.74511719 113.31054688 C-40.70700798 114.67601921 -40.67212464 116.04158577 -40.640625 117.40722656 C-40.59458122 119.37847607 -40.53568951 121.34941204 -40.4765625 123.3203125 C-40.4451416 124.50383301 -40.4137207 125.68735352 -40.38134766 126.90673828 C-40.05770815 130.30024473 -39.19435463 133.04960303 -38.0625 136.25 C-38.0625 137.24 -38.0625 138.23 -38.0625 139.25 C-37.4025 139.25 -36.7425 139.25 -36.0625 139.25 C-34.4375 140.625 -34.4375 140.625 -33.0625 142.25 C-33.0625 142.91 -33.0625 143.57 -33.0625 144.25 C-26.15569878 144.71475672 -21.03163516 144.34965809 -14.83984375 141.125 C-13.0625 140.25 -13.0625 140.25 -11.0625 140.25 C-10.7325 138.93 -10.4025 137.61 -10.0625 136.25 C-9.4025 136.25 -8.7425 136.25 -8.0625 136.25 C-7.7325 134.93 -7.4025 133.61 -7.0625 132.25 C-6.4025 132.25 -5.7425 132.25 -5.0625 132.25 C-4.5675 129.28 -4.5675 129.28 -4.0625 126.25 C-3.4025 126.25 -2.7425 126.25 -2.0625 126.25 C-1.7325 124.27 -1.4025 122.29 -1.0625 120.25 C-2.06152344 120.26160156 -3.06054688 120.27320313 -4.08984375 120.28515625 C-5.38019531 120.29417969 -6.67054687 120.30320312 -8 120.3125 C-9.28777344 120.32410156 -10.57554688 120.33570313 -11.90234375 120.34765625 C-15.0625 120.25 -15.0625 120.25 -16.0625 119.25 C-16.20365161 116.57941149 -16.10497107 113.92567762 -16.0625 111.25 C-15.4025 111.25 -14.7425 111.25 -14.0625 111.25 C-13.7325 106.96 -13.4025 102.67 -13.0625 98.25 C-12.4025 98.25 -11.7425 98.25 -11.0625 98.25 C-10.7325 93.96 -10.4025 89.67 -10.0625 85.25 C-9.4025 85.25 -8.7425 85.25 -8.0625 85.25 C-8.0625 84.59 -8.0625 83.93 -8.0625 83.25 C14.7075 83.25 37.4775 83.25 60.9375 83.25 C60.9375 83.91 60.9375 84.57 60.9375 85.25 C61.5975 85.25 62.2575 85.25 62.9375 85.25 C62.9375 87.23 62.9375 89.21 62.9375 91.25 C62.2775 91.25 61.6175 91.25 60.9375 91.25 C60.6075 95.54 60.2775 99.83 59.9375 104.25 C59.2775 104.25 58.6175 104.25 57.9375 104.25 C57.6075 108.54 57.2775 112.83 56.9375 117.25 C56.2775 117.25 55.6175 117.25 54.9375 117.25 C54.9375 118.24 54.9375 119.23 54.9375 120.25 C50.9775 120.25 47.0175 120.25 42.9375 120.25 C42.669375 121.219375 42.40125 122.18875 42.125 123.1875 C39.35437783 132.79869278 35.70525772 141.99521648 31.9375 151.25 C31.2775 151.25 30.6175 151.25 29.9375 151.25 C29.81375 152.219375 29.69 153.18875 29.5625 154.1875 C29.35625 155.198125 29.15 156.20875 28.9375 157.25 C28.2775 157.58 27.6175 157.91 26.9375 158.25 C26.6075 159.24 26.2775 160.23 25.9375 161.25 C25.2775 161.25 24.6175 161.25 23.9375 161.25 C23.6075 162.57 23.2775 163.89 22.9375 165.25 C22.2775 165.25 21.6175 165.25 20.9375 165.25 C20.69 165.83265625 20.4425 166.4153125 20.1875 167.015625 C18.75224554 169.58114236 17.16086987 171.08724798 14.9375 173 C14.23625 173.61359375 13.535 174.2271875 12.8125 174.859375 C10.9375 176.25 10.9375 176.25 8.9375 176.25 C8.9375 176.91 8.9375 177.57 8.9375 178.25 C7.6175 178.58 6.2975 178.91 4.9375 179.25 C4.9375 179.91 4.9375 180.57 4.9375 181.25 C3.57625 181.683125 3.57625 181.683125 2.1875 182.125 C-0.89388073 183.10031381 -0.89388073 183.10031381 -2.96533203 184.2512207 C-11.48120443 188.30691733 -22.00611074 187.58529392 -31.1875 187.5625 C-32.49332031 187.57861328 -33.79914062 187.59472656 -35.14453125 187.61132812 C-42.45768816 187.61502537 -48.28991865 187.05832422 -55.0625 184.25 C-55.0625 183.59 -55.0625 182.93 -55.0625 182.25 C-55.92875 182.064375 -55.92875 182.064375 -56.8125 181.875 C-61.86741258 180.47085762 -63.83359629 178.35951382 -67.0625 174.25 C-67.949375 173.569375 -68.83625 172.88875 -69.75 172.1875 C-72.16644436 170.16291148 -72.73390682 169.31686972 -73.0625 166.25 C-73.7225 166.25 -74.3825 166.25 -75.0625 166.25 C-75.3925 164.6 -75.7225 162.95 -76.0625 161.25 C-76.7225 161.25 -77.3825 161.25 -78.0625 161.25 C-78.3925 158.94 -78.7225 156.63 -79.0625 154.25 C-79.7225 154.25 -80.3825 154.25 -81.0625 154.25 C-83.77256458 143.09799164 -84.54713429 132.62881035 -84.4375 121.1875 C-84.43484131 120.38438385 -84.43218262 119.5812677 -84.42944336 118.7538147 C-84.37896592 105.73500401 -83.45799723 93.06876199 -81.0625 80.25 C-80.4025 80.25 -79.7425 80.25 -79.0625 80.25 C-78.7325 76.62 -78.4025 72.99 -78.0625 69.25 C-77.4025 69.25 -76.7425 69.25 -76.0625 69.25 C-75.7325 66.28 -75.4025 63.31 -75.0625 60.25 C-74.4025 60.25 -73.7425 60.25 -73.0625 60.25 C-72.7325 57.94 -72.4025 55.63 -72.0625 53.25 C-71.4025 53.25 -70.7425 53.25 -70.0625 53.25 C-69.5675 50.28 -69.5675 50.28 -69.0625 47.25 C-68.4025 47.25 -67.7425 47.25 -67.0625 47.25 C-66.9696875 46.2290625 -66.9696875 46.2290625 -66.875 45.1875 C-65.92795516 41.76356867 -64.37712589 39.67169955 -62.21875 36.8984375 C-60.865969 35.13688064 -60.865969 35.13688064 -60.0625 32.25 C-59.4025 32.25 -58.7425 32.25 -58.0625 32.25 C-57.753125 31.2290625 -57.753125 31.2290625 -57.4375 30.1875 C-54.67396407 24.28358234 -50.16887757 20.18920555 -45.0625 16.25 C-44.7325 15.59 -44.4025 14.93 -44.0625 14.25 C-41.5 13.625 -41.5 13.625 -39.0625 13.25 C-38.7325 12.26 -38.4025 11.27 -38.0625 10.25 C-37.0725 10.25 -36.0825 10.25 -35.0625 10.25 C-35.0625 9.59 -35.0625 8.93 -35.0625 8.25 C-33.0825 7.92 -31.1025 7.59 -29.0625 7.25 C-29.0625 6.59 -29.0625 5.93 -29.0625 5.25 C-19.64390602 0.64535405 -10.35470396 0.06484118 0 0 Z " fill="#0AE147" transform="translate(84.0625,130.75)"/>
<path d="M0 0 C7.39732867 -0.02314716 14.79464955 -0.04092723 22.19200706 -0.05181217 C25.62671562 -0.05703579 29.06139943 -0.06412401 32.49609375 -0.07543945 C36.44270535 -0.08836035 40.38930684 -0.09323252 44.3359375 -0.09765625 C45.57242035 -0.10281754 46.8089032 -0.10797882 48.08285522 -0.11329651 C49.22388702 -0.11337204 50.36491882 -0.11344757 51.54052734 -0.11352539 C52.548685 -0.115746 53.55684265 -0.11796661 54.59555054 -0.12025452 C57 0 57 0 59 1 C60.34131012 5.02393037 60.13212837 8.89192277 60.11523438 13.0871582 C60.11519661 14.50256299 60.11519661 14.50256299 60.11515808 15.94656181 C60.11331717 19.12716534 60.10372455 22.30769347 60.09375 25.48828125 C60.08994754 27.76385977 60.08633071 30.03943861 60.08288574 32.3150177 C60.02727296 60.10466477 59.78930161 87.89367392 59.55461884 115.68227112 C59.49245963 123.05199352 59.43279058 130.42173559 59.37324238 137.79147947 C59.25142789 152.86100849 59.1264394 167.93050894 59 183 C44.48 183 29.96 183 15 183 C15 182.34 15 181.68 15 181 C14.34 181 13.68 181 13 181 C12.94574774 178.60385874 12.90620973 176.20896147 12.875 173.8125 C12.84986328 172.80219727 12.84986328 172.80219727 12.82421875 171.77148438 C12.78165432 167.40863028 13.31602545 165.20993638 15 161 C1.8 161 -11.4 161 -25 161 C-25 161.66 -25 162.32 -25 163 C-25.66 163 -26.32 163 -27 163 C-27.495 166.96 -27.495 166.96 -28 171 C-28.66 171 -29.32 171 -30 171 C-30.33 173.31 -30.66 175.62 -31 178 C-31.66 178 -32.32 178 -33 178 C-33.33 179.65 -33.66 181.3 -34 183 C-40.22964615 183.02529951 -46.45927912 183.04284549 -52.68896484 183.05493164 C-54.80941259 183.05996872 -56.92985685 183.06679859 -59.05029297 183.07543945 C-62.09343322 183.08753234 -65.13652766 183.09323447 -68.1796875 183.09765625 C-69.13181122 183.10281754 -70.08393494 183.10797882 -71.06491089 183.11329651 C-71.94567291 183.11337204 -72.82643494 183.11344757 -73.73388672 183.11352539 C-74.51110077 183.115746 -75.28831482 183.11796661 -76.08908081 183.12025452 C-78 183 -78 183 -80 182 C-80 180.02 -80 178.04 -80 176 C-79.34 176 -78.68 176 -78 176 C-77.896875 175.154375 -77.79375 174.30875 -77.6875 173.4375 C-76.9171146 169.58557299 -75.63725486 166.55924969 -74 163 C-73.34 163 -72.68 163 -72 163 C-71.938125 162.21625 -71.87625 161.4325 -71.8125 160.625 C-70.8794484 156.4621544 -69.17828588 153.2389002 -67.2109375 149.48046875 C-65.68825364 146.36142279 -64.80532623 143.36772786 -64 140 C-63.34 140 -62.68 140 -62 140 C-61.67 137.69 -61.34 135.38 -61 133 C-60.34 133 -59.68 133 -59 133 C-58.67 130.69 -58.34 128.38 -58 126 C-57.34 126 -56.68 126 -56 126 C-55.67 124.02 -55.34 122.04 -55 120 C-54.34 120 -53.68 120 -53 120 C-52.67 117.69 -52.34 115.38 -52 113 C-51.34 113 -50.68 113 -50 113 C-49.67 111.02 -49.34 109.04 -49 107 C-48.34 107 -47.68 107 -47 107 C-46.67 104.69 -46.34 102.38 -46 100 C-45.34 100 -44.68 100 -44 100 C-43.9071875 98.8553125 -43.9071875 98.8553125 -43.8125 97.6875 C-42.85010083 93.31968839 -41.11354486 89.66738694 -39.2109375 85.63671875 C-37.91499965 82.81491859 -36.88477904 79.97607495 -36 77 C-35.34 77 -34.68 77 -34 77 C-33.67 74.69 -33.34 72.38 -33 70 C-32.34 70 -31.68 70 -31 70 C-30.67 68.02 -30.34 66.04 -30 64 C-29.34 64 -28.68 64 -28 64 C-27.67 61.69 -27.34 59.38 -27 57 C-26.34 57 -25.68 57 -25 57 C-24.67 54.69 -24.34 52.38 -24 50 C-23.34 50 -22.68 50 -22 50 C-21.896875 49.154375 -21.79375 48.30875 -21.6875 47.4375 C-20.9171146 43.58557299 -19.63725486 40.55924969 -18 37 C-17.34 37 -16.68 37 -16 37 C-15.67 34.69 -15.34 32.38 -15 30 C-14.34 30 -13.68 30 -13 30 C-12.938125 29.21625 -12.87625 28.4325 -12.8125 27.625 C-11.8794484 23.4621544 -10.17828588 20.2389002 -8.2109375 16.48046875 C-6.68825364 13.36142279 -5.80532623 10.36772786 -5 7 C-4.34 7 -3.68 7 -3 7 C-2.67 5.35 -2.34 3.7 -2 2 C-1.34 2 -0.68 2 0 2 C0 1.34 0 0.68 0 0 Z M18 52 C19 56 19 56 19 56 Z M16 56 C15.67 58.64 15.34 61.28 15 64 C14.34 64 13.68 64 13 64 C12.67 66.31 12.34 68.62 12 71 C11.34 71 10.68 71 10 71 C9.67 73.64 9.34 76.28 9 79 C8.34 79 7.68 79 7 79 C6.67 81.31 6.34 83.62 6 86 C5.34 86 4.68 86 4 86 C3.67 88.64 3.34 91.28 3 94 C2.34 94 1.68 94 1 94 C0.68546875 94.90621094 0.3709375 95.81242187 0.046875 96.74609375 C-2.16158372 103.03221871 -4.39518399 109.22403648 -7.30078125 115.23046875 C-8.18374686 117.14790157 -8.18374686 117.14790157 -8 120 C-0.08 120 7.84 120 16 120 C16.06058594 117.88078125 16.12117188 115.7615625 16.18359375 113.578125 C16.24545043 111.51949738 16.30881017 109.46092112 16.37231445 107.40234375 C16.41555318 105.97465612 16.45723585 104.54692046 16.49731445 103.11914062 C16.55528602 101.06365504 16.61890175 99.00840872 16.68359375 96.953125 C16.72025146 95.71723633 16.75690918 94.48134766 16.79467773 93.20800781 C17 90 17 90 17.51367188 88 C18.24075714 85.00989834 18.11067227 82.11865528 18.09765625 79.046875 C18.09553383 78.05654266 18.09553383 78.05654266 18.09336853 77.04620361 C18.08779245 74.94742206 18.07524447 72.84874905 18.0625 70.75 C18.0574819 69.32291821 18.05291954 67.89583475 18.04882812 66.46875 C18.03783088 62.97913168 18.0205828 59.48957644 18 56 C17.34 56 16.68 56 16 56 Z " fill="#0ADF46" transform="translate(303,133)"/>
<path d="M0 0 C6.22964615 -0.02529951 12.45927912 -0.04284549 18.68896484 -0.05493164 C20.80941259 -0.05996872 22.92985685 -0.06679859 25.05029297 -0.07543945 C28.09343322 -0.08753234 31.13652766 -0.09323447 34.1796875 -0.09765625 C35.13181122 -0.10281754 36.08393494 -0.10797882 37.06491089 -0.11329651 C37.94567291 -0.11337204 38.82643494 -0.11344757 39.73388672 -0.11352539 C40.89970779 -0.11685631 40.89970779 -0.11685631 42.08908081 -0.12025452 C44 0 44 0 46 1 C48.01681117 1.31829158 50.03863768 1.60515169 52.0625 1.875 C57.68826877 2.70011275 62.68063097 4.01650646 68 6 C68 6.66 68 7.32 68 8 C68.556875 8.103125 69.11375 8.20625 69.6875 8.3125 C74.35662074 9.70061698 77.82324198 12.35261117 81 16 C81 16.66 81 17.32 81 18 C81.66 18 82.32 18 83 18 C85.3283935 19.76957906 85.95288806 20.81583516 86.6875 23.6875 C86.790625 24.450625 86.89375 25.21375 87 26 C87.66 26 88.32 26 89 26 C89.33 27.98 89.66 29.96 90 32 C90.66 32 91.32 32 92 32 C93.91182793 40.48673046 94.3046782 48.63233627 94.25 57.3125 C94.25773438 58.52873047 94.26546875 59.74496094 94.2734375 60.99804688 C94.25533561 69.51951168 93.4139841 77.602255 92 86 C91.34 86 90.68 86 90 86 C89.67 88.97 89.34 91.94 89 95 C88.34 95 87.68 95 87 95 C86.67 96.98 86.34 98.96 86 101 C85.34 101 84.68 101 84 101 C83.67 102.98 83.34 104.96 83 107 C82.34 107 81.68 107 81 107 C80.896875 107.763125 80.79375 108.52625 80.6875 109.3125 C79.95288806 112.18416484 79.3283935 113.23042094 77 115 C76.34 115 75.68 115 75 115 C74.505 116.98 74.505 116.98 74 119 C73.34 119 72.68 119 72 119 C71.505 120.485 71.505 120.485 71 122 C70.34 122 69.68 122 69 122 C68.505 123.485 68.505 123.485 68 125 C67.34 125 66.68 125 66 125 C65.505 126.485 65.505 126.485 65 128 C61.55555556 131 61.55555556 131 59 131 C59 131.66 59 132.32 59 133 C52.375 137 52.375 137 49 137 C49 137.66 49 138.32 49 139 C46.36 139.33 43.72 139.66 41 140 C41 140.66 41 141.32 41 142 C39.64870353 142.48720213 38.29375684 142.96428184 36.9375 143.4375 C36.18339844 143.70433594 35.42929687 143.97117187 34.65234375 144.24609375 C28.69744972 145.93872195 22.79661531 146.14107509 16.66015625 146.09765625 C15.89319931 146.0962413 15.12624237 146.09482635 14.33604431 146.09336853 C11.9114881 146.08781766 9.48702781 146.07527463 7.0625 146.0625 C5.40820447 146.05747864 3.75390747 146.05291685 2.09960938 146.04882812 C-1.93363012 146.03786438 -5.96679886 146.02063424 -10 146 C-10 146.66 -10 147.32 -10 148 C-8.02 148.33 -6.04 148.66 -4 149 C-4 149.66 -4 150.32 -4 151 C-3.0925 151.28875 -2.185 151.5775 -1.25 151.875 C5.62790698 154.25581395 5.62790698 154.25581395 7 157 C7.42971976 164.4484758 6.15526728 171.65580086 5 179 C4.34 179 3.68 179 3 179 C3 180.32 3 181.64 3 183 C-11.19 183 -25.38 183 -40 183 C-40.85439685 177.87361891 -40.89038866 174.94660369 -40 170 C-39.34 170 -38.68 170 -38 170 C-37.67 165.71 -37.34 161.42 -37 157 C-36.34 157 -35.68 157 -35 157 C-34.95101563 156.14277344 -34.90203125 155.28554688 -34.8515625 154.40234375 C-34.45296046 148.30648156 -33.87647854 142.83793322 -32 137 C-31.22879571 133.81932692 -30.50657558 130.62893254 -29.78125 127.4375 C-29.05601098 124.24644833 -28.31019837 121.06084524 -27.5625 117.875 C-26.27825143 112.3031279 -25.0634847 106.71793252 -23.875 101.125 C-23.70427979 100.32819824 -23.53355957 99.53139648 -23.35766602 98.71044922 C-22.39728365 94.15281582 -21.60351214 89.61871532 -21 85 C-20.34 85 -19.68 85 -19 85 C-18.67 80.71 -18.34 76.42 -18 72 C-17.34 72 -16.68 72 -16 72 C-15.67 67.71 -15.34 63.42 -15 59 C-14.34 59 -13.68 59 -13 59 C-12.67 54.71 -12.34 50.42 -12 46 C-11.34 46 -10.68 46 -10 46 C-9.95101563 45.14277344 -9.90203125 44.28554687 -9.8515625 43.40234375 C-9.45296046 37.30648156 -8.87647854 31.83793322 -7 26 C-6.48670735 23.83644388 -5.98810966 21.66937627 -5.5 19.5 C-3.98624745 12.85926644 -2.1651848 6.45961773 0 0 Z M13 41 C15.67247634 43.34287418 15.67247634 43.34287418 19 44 C19 44.66 19 45.32 19 46 C21.97 46.495 21.97 46.495 25 47 C25 47.66 25 48.32 25 49 C27.97 49.495 27.97 49.495 31 50 C30.67 55.61 30.34 61.22 30 67 C29.34 67 28.68 67 28 67 C27.67 71.29 27.34 75.58 27 80 C26.34 80 25.68 80 25 80 C24.67 84.29 24.34 88.58 24 93 C23.34 93 22.68 93 22 93 C21.67 96.96 21.34 100.92 21 105 C22.4025 104.71125 23.805 104.4225 25.25 104.125 C26.43335938 103.88136719 26.43335938 103.88136719 27.640625 103.6328125 C29.96831144 103.00849925 31.89031952 102.15161458 34 101 C34 100.34 34 99.68 34 99 C35.485 98.505 35.485 98.505 37 98 C40.03277199 94.94491974 40.03277199 94.94491974 41 91 C41.66 91 42.32 91 43 91 C43.33 89.02 43.66 87.04 44 85 C44.66 85 45.32 85 46 85 C46.33 82.03 46.66 79.06 47 76 C47.66 76 48.32 76 49 76 C50.47841477 66.94470955 51.16113188 56.97041248 49 48 C48.34 48 47.68 48 47 48 C46.938125 47.401875 46.87625 46.80375 46.8125 46.1875 C45.63621219 43.02057128 44.00645067 42.45104514 41 41 C37.81217653 40.58971334 37.81217653 40.58971334 34.38671875 40.70703125 C33.13955078 40.71669922 31.89238281 40.72636719 30.60742188 40.73632812 C29.31384766 40.76146484 28.02027344 40.78660156 26.6875 40.8125 C25.37458984 40.82603516 24.06167969 40.83957031 22.70898438 40.85351562 C19.47223923 40.88882557 16.23632895 40.9381472 13 41 Z " fill="#0ADF46" transform="translate(406,133)"/>
<path d="M0 0 C1.23298828 -0.01224609 2.46597656 -0.02449219 3.73632812 -0.03710938 C12.7120542 -0.05148587 20.77152225 0.1539824 28.5 5.125 C29.30050781 5.62902344 30.10101563 6.13304687 30.92578125 6.65234375 C35.41813899 9.70156066 35.41813899 9.70156066 37.1875 11.1875 C37.1875 11.8475 37.1875 12.5075 37.1875 13.1875 C37.8475 13.1875 38.5075 13.1875 39.1875 13.1875 C39.6825 15.1675 39.6825 15.1675 40.1875 17.1875 C40.8475 17.1875 41.5075 17.1875 42.1875 17.1875 C42.6825 19.6625 42.6825 19.6625 43.1875 22.1875 C43.8475 22.1875 44.5075 22.1875 45.1875 22.1875 C45.6825 25.1575 45.6825 25.1575 46.1875 28.1875 C46.8475 28.1875 47.5075 28.1875 48.1875 28.1875 C49.14011487 32.95057437 49.27083357 37.3541528 49.1875 42.1875 C49.8475 42.1875 50.5075 42.1875 51.1875 42.1875 C51.1875 46.8075 51.1875 51.4275 51.1875 56.1875 C50.5275 56.1875 49.8675 56.1875 49.1875 56.1875 C49.1875 56.8475 49.1875 57.5075 49.1875 58.1875 C35.6575 58.1875 22.1275 58.1875 8.1875 58.1875 C8.1875 57.5275 8.1875 56.8675 8.1875 56.1875 C7.5275 56.1875 6.8675 56.1875 6.1875 56.1875 C5.8575 51.8975 5.5275 47.6075 5.1875 43.1875 C4.5275 43.1875 3.8675 43.1875 3.1875 43.1875 C2.5275 42.1975 1.8675 41.2075 1.1875 40.1875 C-0.91092369 39.71027528 -0.91092369 39.71027528 -3.25 39.8125 C-4.03246094 39.80476563 -4.81492187 39.79703125 -5.62109375 39.7890625 C-8.27745085 40.27203652 -9.03662291 41.23041096 -10.8125 43.1875 C-11.4725 43.1875 -12.1325 43.1875 -12.8125 43.1875 C-13.14467441 50.56915355 -13.10163446 56.48272591 -9.8125 63.1875 C-9.1525 63.5175 -8.4925 63.8475 -7.8125 64.1875 C-7.1875 66.75 -7.1875 66.75 -6.8125 69.1875 C-5.3275 69.6825 -5.3275 69.6825 -3.8125 70.1875 C-3.8125 70.8475 -3.8125 71.5075 -3.8125 72.1875 C-3.1525 72.1875 -2.4925 72.1875 -1.8125 72.1875 C-0.2265625 73.796875 -0.2265625 73.796875 1.5625 75.9375 C3.52507727 78.25653702 5.4463295 80.43969284 7.625 82.5625 C9.1875 84.1875 9.1875 84.1875 9.1875 86.1875 C9.8475 86.1875 10.5075 86.1875 11.1875 86.1875 C12.9140625 88.0859375 12.9140625 88.0859375 14.8125 90.5625 C15.44414062 91.37460938 16.07578125 92.18671875 16.7265625 93.0234375 C18.1875 95.1875 18.1875 95.1875 18.1875 97.1875 C18.8475 97.1875 19.5075 97.1875 20.1875 97.1875 C20.5175 98.8375 20.8475 100.4875 21.1875 102.1875 C21.8475 102.1875 22.5075 102.1875 23.1875 102.1875 C23.5175 104.1675 23.8475 106.1475 24.1875 108.1875 C24.8475 108.1875 25.5075 108.1875 26.1875 108.1875 C26.6825 113.1375 26.6825 113.1375 27.1875 118.1875 C27.8475 118.1875 28.5075 118.1875 29.1875 118.1875 C29.1875 127.4275 29.1875 136.6675 29.1875 146.1875 C28.5275 146.1875 27.8675 146.1875 27.1875 146.1875 C26.8575 149.4875 26.5275 152.7875 26.1875 156.1875 C25.5275 156.1875 24.8675 156.1875 24.1875 156.1875 C23.6925 159.1575 23.6925 159.1575 23.1875 162.1875 C22.5275 162.1875 21.8675 162.1875 21.1875 162.1875 C21.084375 162.950625 20.98125 163.71375 20.875 164.5 C20.14038806 167.37166484 19.5158935 168.41792094 17.1875 170.1875 C16.5275 170.1875 15.8675 170.1875 15.1875 170.1875 C14.960625 170.744375 14.73375 171.30125 14.5 171.875 C10.2242983 179.40837918 2.37260372 183.12496843 -5.63110352 185.79394531 C-12.64018909 187.66526655 -19.8391444 187.55970718 -27.04125977 187.55810547 C-29.24248338 187.56248504 -31.44170661 187.5989208 -33.64257812 187.63671875 C-41.74442836 187.70091661 -48.5218367 187.05042991 -55.8125 183.1875 C-56.47419189 182.8670874 -57.13588379 182.5466748 -57.81762695 182.21655273 C-61.8123506 180.15164728 -64.21104925 177.81094926 -66.8125 174.1875 C-67.39 173.630625 -67.9675 173.07375 -68.5625 172.5 C-69.8125 171.1875 -69.8125 171.1875 -69.8125 169.1875 C-70.4725 169.1875 -71.1325 169.1875 -71.8125 169.1875 C-72.1425 167.5375 -72.4725 165.8875 -72.8125 164.1875 C-73.4725 164.1875 -74.1325 164.1875 -74.8125 164.1875 C-75.1425 161.5475 -75.4725 158.9075 -75.8125 156.1875 C-76.4725 156.1875 -77.1325 156.1875 -77.8125 156.1875 C-78.62229504 150.51893472 -78.96761846 145.03500751 -78.9375 139.3125 C-78.94136719 138.55453125 -78.94523437 137.7965625 -78.94921875 137.015625 C-78.93929967 131.44109933 -78.93929967 131.44109933 -77.8125 129.1875 C-63.9525 129.1875 -50.0925 129.1875 -35.8125 129.1875 C-34.55012269 131.71225462 -34.71393596 133.49950466 -34.75 136.3125 C-34.75902344 137.22257813 -34.76804688 138.13265625 -34.77734375 139.0703125 C-34.78894531 139.76898438 -34.80054688 140.46765625 -34.8125 141.1875 C-34.1525 141.1875 -33.4925 141.1875 -32.8125 141.1875 C-32.4825 143.1675 -32.1525 145.1475 -31.8125 147.1875 C-30.18759046 147.21448189 -28.56255367 147.23388757 -26.9375 147.25 C-25.58011719 147.26740234 -25.58011719 147.26740234 -24.1953125 147.28515625 C-21.7956415 147.34999257 -21.7956415 147.34999257 -19.8125 146.1875 C-19.4825 145.1975 -19.1525 144.2075 -18.8125 143.1875 C-18.1525 143.1875 -17.4925 143.1875 -16.8125 143.1875 C-16.92683363 140.93693278 -17.05436436 138.68703326 -17.1875 136.4375 C-17.25710937 135.18453125 -17.32671875 133.9315625 -17.3984375 132.640625 C-17.77111625 129.5326249 -18.28910341 127.83796236 -19.8125 125.1875 C-19.8125 124.5275 -19.8125 123.8675 -19.8125 123.1875 C-20.4725 123.1875 -21.1325 123.1875 -21.8125 123.1875 C-22.1425 121.8675 -22.4725 120.5475 -22.8125 119.1875 C-23.4725 119.1875 -24.1325 119.1875 -24.8125 119.1875 C-25.1528125 118.32125 -25.1528125 118.32125 -25.5 117.4375 C-26.70076853 115.05493868 -26.70076853 115.05493868 -29 113.5 C-32.30712291 110.78081006 -34.54487358 107.71156057 -37.1015625 104.30078125 C-39.07332124 101.86534408 -41.36763286 100.12901214 -43.8125 98.1875 C-44.625 95.9375 -44.625 95.9375 -44.8125 94.1875 C-45.4725 94.1875 -46.1325 94.1875 -46.8125 94.1875 C-47.1425 92.8675 -47.4725 91.5475 -47.8125 90.1875 C-48.4725 90.1875 -49.1325 90.1875 -49.8125 90.1875 C-50.1425 88.5375 -50.4725 86.8875 -50.8125 85.1875 C-51.4725 85.1875 -52.1325 85.1875 -52.8125 85.1875 C-53.1425 83.2075 -53.4725 81.2275 -53.8125 79.1875 C-54.4725 79.1875 -55.1325 79.1875 -55.8125 79.1875 C-56.01746094 78.18847656 -56.22242188 77.18945312 -56.43359375 76.16015625 C-56.83771484 74.22462891 -56.83771484 74.22462891 -57.25 72.25 C-57.51683594 70.96222656 -57.78367188 69.67445313 -58.05859375 68.34765625 C-58.48431616 65.34111121 -58.48431616 65.34111121 -59.8125 64.1875 C-60.06478862 61.15410039 -59.99773613 58.10513947 -60 55.0625 C-60.01224609 54.21945313 -60.02449219 53.37640625 -60.03710938 52.5078125 C-60.04907716 47.36964451 -59.47627082 43.10513995 -57.8125 38.1875 C-57.60367188 37.45660156 -57.39484375 36.72570312 -57.1796875 35.97265625 C-56.49609375 33.58007812 -56.49609375 33.58007812 -55.8125 31.1875 C-55.1525 31.1875 -54.4925 31.1875 -53.8125 31.1875 C-53.4825 29.2075 -53.1525 27.2275 -52.8125 25.1875 C-52.1525 25.1875 -51.4925 25.1875 -50.8125 25.1875 C-50.4825 23.8675 -50.1525 22.5475 -49.8125 21.1875 C-49.1525 21.1875 -48.4925 21.1875 -47.8125 21.1875 C-47.7196875 20.32125 -47.7196875 20.32125 -47.625 19.4375 C-46.4937921 16.30492429 -44.43302199 15.15289149 -41.8125 13.1875 C-41.4825 12.5275 -41.1525 11.8675 -40.8125 11.1875 C-38.25 10.5625 -38.25 10.5625 -35.8125 10.1875 C-35.8125 9.5275 -35.8125 8.8675 -35.8125 8.1875 C-34.8225 7.8575 -33.8325 7.5275 -32.8125 7.1875 C-32.4825 6.5275 -32.1525 5.8675 -31.8125 5.1875 C-29.30078125 4.15234375 -29.30078125 4.15234375 -26.125 3.125 C-25.08988281 2.78339844 -24.05476563 2.44179687 -22.98828125 2.08984375 C-15.34130519 -0.08291329 -7.8917447 0.00408687 0 0 Z " fill="#0AE147" transform="translate(204.8125,130.8125)"/>
<path d="M0 0 C18.81 0 37.62 0 57 0 C57.495 1.485 57.495 1.485 58 3 C38.53 3 19.06 3 -1 3 C-1.99 5.97 -2.98 8.94 -4 12 C-4.66 11.67 -5.32 11.34 -6 11 C-5.67 9.68 -5.34 8.36 -5 7 C-4.34 7 -3.68 7 -3 7 C-2.67 5.35 -2.34 3.7 -2 2 C-1.34 2 -0.68 2 0 2 C0 1.34 0 0.68 0 0 Z " fill="#0AAF3A" transform="translate(303,133)"/>
<path d="M0 0 C-0.33 0.99 -0.66 1.98 -1 3 C-4.96 3.66 -8.92 4.32 -13 5 C-13 5.66 -13 6.32 -13 7 C-14.65 7.33 -16.3 7.66 -18 8 C-18 8.66 -18 9.32 -18 10 C-19.0828125 10.3403125 -19.0828125 10.3403125 -20.1875 10.6875 C-24.37077073 12.63969301 -26.99094996 15.61722772 -29.6875 19.3125 C-30.120625 19.869375 -30.55375 20.42625 -31 21 C-31.66 21 -32.32 21 -33 21 C-33.433125 22.09054688 -33.433125 22.09054688 -33.875 23.203125 C-34.56873213 24.92782016 -35.27455462 26.6477773 -36 28.359375 C-36.33 29.14828125 -36.66 29.9371875 -37 30.75 C-37.495 31.91789062 -37.495 31.91789062 -38 33.109375 C-40.50396057 40.34738602 -41.341153 47.44002545 -41.625 55.0625 C-41.66367188 55.92810547 -41.70234375 56.79371094 -41.7421875 57.68554688 C-41.83520481 59.79006359 -41.91862669 61.8950009 -42 64 C-42.66 63.67 -43.32 63.34 -44 63 C-44.0543251 59.97892098 -44.09382927 56.95883472 -44.125 53.9375 C-44.14175781 53.08994141 -44.15851563 52.24238281 -44.17578125 51.36914062 C-44.21568815 46.20119757 -43.68223251 41.94774267 -42 37 C-41.79117188 36.26910156 -41.58234375 35.53820312 -41.3671875 34.78515625 C-40.91145833 33.19010417 -40.45572917 31.59505208 -40 30 C-39.34 30 -38.68 30 -38 30 C-37.67 28.02 -37.34 26.04 -37 24 C-36.34 24 -35.68 24 -35 24 C-34.67 22.68 -34.34 21.36 -34 20 C-33.34 20 -32.68 20 -32 20 C-31.938125 19.4225 -31.87625 18.845 -31.8125 18.25 C-30.6812921 15.11742429 -28.62052199 13.96539149 -26 12 C-25.67 11.34 -25.34 10.68 -25 10 C-22.4375 9.375 -22.4375 9.375 -20 9 C-20 8.34 -20 7.68 -20 7 C-19.01 6.67 -18.02 6.34 -17 6 C-16.67 5.34 -16.34 4.68 -16 4 C-13.41796875 2.9296875 -13.41796875 2.9296875 -10.1875 1.875 C-9.12917969 1.52179688 -8.07085937 1.16859375 -6.98046875 0.8046875 C-4 0 -4 0 0 0 Z " fill="#0B8D30" transform="translate(189,132)"/>
<path d="M0 0 C5.37515933 -0.02467759 10.75028585 -0.04284928 16.12548828 -0.05493164 C17.95492121 -0.05996737 19.78435009 -0.06679627 21.61376953 -0.07543945 C24.23991898 -0.08753824 26.86601532 -0.09323583 29.4921875 -0.09765625 C30.31306854 -0.10281754 31.13394958 -0.10797882 31.97970581 -0.11329651 C37.77225659 -0.11387171 37.77225659 -0.11387171 40 1 C40 8.59 40 16.18 40 24 C39.505 23.01 39.505 23.01 39 22 C38.34 22 37.68 22 37 22 C36.94574774 19.60385874 36.90620973 17.20896147 36.875 14.8125 C36.85824219 14.13896484 36.84148437 13.46542969 36.82421875 12.77148438 C36.78165432 8.40863028 37.31602545 6.20993638 39 2 C26.13 2 13.26 2 0 2 C0 1.34 0 0.68 0 0 Z " fill="#0BAC39" transform="translate(279,292)"/>
<path d="M0 0 C0.495 1.98 0.495 1.98 1 4 C1.66 4 2.32 4 3 4 C3 8.62 3 13.24 3 18 C2.34 18 1.68 18 1 18 C1 18.66 1 19.32 1 20 C-12.53 20 -26.06 20 -40 20 C-40 19.34 -40 18.68 -40 18 C-40.66 18 -41.32 18 -42 18 C-42 17.34 -42 16.68 -42 16 C-41.01 16.33 -40.02 16.66 -39 17 C-36.05282827 17.15434158 -33.12501135 17.2575603 -30.17578125 17.31640625 C-29.31438034 17.33718735 -28.45297943 17.35796844 -27.56547546 17.37937927 C-24.81456456 17.44474909 -22.06355844 17.50370132 -19.3125 17.5625 C-17.44725579 17.60569717 -15.5820212 17.64931185 -13.71679688 17.69335938 C-9.14462742 17.80120316 -4.57238538 17.90036991 0 18 C0 12.06 0 6.12 0 0 Z " fill="#0AC23E" transform="translate(253,169)"/>
<path d="M0 0 C2 0 2 0 3.4453125 1.43359375 C3.99960938 2.09488281 4.55390625 2.75617188 5.125 3.4375 C5.74117187 4.16195312 6.35734375 4.88640625 6.9921875 5.6328125 C7.98605469 6.80457031 7.98605469 6.80457031 9 8 C10.41186798 9.60839173 11.8284791 11.2126333 13.25 12.8125 C13.89453125 13.54082031 14.5390625 14.26914063 15.203125 15.01953125 C16.93049903 16.98179769 16.93049903 16.98179769 18.69140625 18.5625 C20.69343273 20.76174103 20.68022201 23.12199808 21 26 C21.66 26 22.32 26 23 26 C24.02319033 29.06957098 24.13371939 31.22440323 24.125 34.4375 C24.12886719 35.85869141 24.12886719 35.85869141 24.1328125 37.30859375 C24.01473475 39.70140459 23.68112635 41.71336153 23 44 C22.34 44 21.68 44 21 44 C20.67 45.65 20.34 47.3 20 49 C15.05 49.495 15.05 49.495 10 50 C10 49.34 10 48.68 10 48 C9.34 48 8.68 48 8 48 C8.33 47.34 8.66 46.68 9 46 C11.01822917 46.03255208 13.03645833 46.06510417 15.0546875 46.09765625 C17.08185404 46.12649242 17.08185404 46.12649242 19 45 C19.33 44.01 19.66 43.02 20 42 C20.66 42 21.32 42 22 42 C21.88566637 39.74943278 21.75813564 37.49953326 21.625 35.25 C21.55539063 33.99703125 21.48578125 32.7440625 21.4140625 31.453125 C21.04138375 28.3451249 20.52339659 26.65046236 19 24 C19 23.34 19 22.68 19 22 C18.34 22 17.68 22 17 22 C16.67 20.68 16.34 19.36 16 18 C15.34 18 14.68 18 14 18 C13.6596875 17.13375 13.6596875 17.13375 13.3125 16.25 C12.11173147 13.86743868 12.11173147 13.86743868 9.8125 12.3125 C5.87518633 9.0751532 2.92724544 5.15888185 0 1 C0 0.67 0 0.34 0 0 Z " fill="#0B842E" transform="translate(166,232)"/>
<path d="M0 0 C1 2 1 2 -0.21484375 5.6953125 C-0.78133585 7.17485658 -1.35591889 8.65132181 -1.9375 10.125 C-2.22818359 10.87910156 -2.51886719 11.63320312 -2.81835938 12.41015625 C-3.53874998 14.27608602 -4.26850404 16.1383958 -5 18 C-5.66 18 -6.32 18 -7 18 C-7.103125 18.845625 -7.20625 19.69125 -7.3125 20.5625 C-8.0828854 24.41442701 -9.36274514 27.44075031 -11 31 C-11.66 31 -12.32 31 -13 31 C-13.061875 31.763125 -13.12375 32.52625 -13.1875 33.3125 C-14.13068274 37.59309858 -15.79209267 41.14716004 -17.65625 45.09765625 C-19.61521268 49.32878785 -21.31282474 53.6548168 -23 58 C-23.66 58 -24.32 58 -25 58 C-25.33 59.98 -25.66 61.96 -26 64 C-26.99 63.67 -27.98 63.34 -29 63 C-28.34 63 -27.68 63 -27 63 C-26.67 60.69 -26.34 58.38 -26 56 C-25.34 56 -24.68 56 -24 56 C-23.505 53.03 -23.505 53.03 -23 50 C-22.34 50 -21.68 50 -21 50 C-20.67 47.69 -20.34 45.38 -20 43 C-19.34 43 -18.68 43 -18 43 C-17.67 40.69 -17.34 38.38 -17 36 C-16.34 36 -15.68 36 -15 36 C-14.8453125 34.7315625 -14.8453125 34.7315625 -14.6875 33.4375 C-13.9171146 29.58557299 -12.63725486 26.55924969 -11 23 C-10.34 23 -9.68 23 -9 23 C-8.67 20.69 -8.34 18.38 -8 16 C-7.34 16 -6.68 16 -6 16 C-5.938125 15.21625 -5.87625 14.4325 -5.8125 13.625 C-4.6967665 8.64711207 -2.39693773 4.47546306 0 0 Z " fill="#0B7F2C" transform="translate(296,147)"/>
<path d="M0 0 C0.495 0.99 0.495 0.99 1 2 C0.48050781 2.43570313 -0.03898437 2.87140625 -0.57421875 3.3203125 C-3.91331563 6.17181483 -7.10888821 8.9526635 -9.875 12.375 C-12 15 -12 15 -14 16 C-14.72159424 17.64363134 -15.39351421 19.31050386 -16 21 C-16.66 21 -17.32 21 -18 21 C-18.33 22.32 -18.66 23.64 -19 25 C-19.66 25 -20.32 25 -21 25 C-21.2475 25.66 -21.495 26.32 -21.75 27 C-23.04522322 30.10853573 -24.53391964 33.05520534 -26.09765625 36.03515625 C-27.00422907 38.00920876 -27.54224948 39.88113417 -28 42 C-28.66 42 -29.32 42 -30 42 C-30 42.99 -30 43.98 -30 45 C-30.66 44.67 -31.32 44.34 -32 44 C-31.67 42.68 -31.34 41.36 -31 40 C-30.34 40 -29.68 40 -29 40 C-28.505 37.03 -28.505 37.03 -28 34 C-27.34 34 -26.68 34 -26 34 C-25.938125 33.319375 -25.87625 32.63875 -25.8125 31.9375 C-24.86545516 28.51356867 -23.31462589 26.42169955 -21.15625 23.6484375 C-19.803469 21.88688064 -19.803469 21.88688064 -19 19 C-18.34 19 -17.68 19 -17 19 C-16.79375 18.319375 -16.5875 17.63875 -16.375 16.9375 C-13.61146407 11.03358234 -9.10637757 6.93920555 -4 3 C-3.67 2.34 -3.34 1.68 -3 1 C-2.01 0.67 -1.02 0.34 0 0 Z " fill="#0B7C2C" transform="translate(43,144)"/>
<path d="M0 0 C1.2077558 3.62326739 0.54311128 4.64146369 -1 8 C-1.66 8 -2.32 8 -3 8 C-3.33 10.31 -3.66 12.62 -4 15 C-4.66 15 -5.32 15 -6 15 C-6.33 17.31 -6.66 19.62 -7 22 C-7.66 22 -8.32 22 -9 22 C-9.33 25.3 -9.66 28.6 -10 32 C-10.66 32 -11.32 32 -12 32 C-12.33 36.62 -12.66 41.24 -13 46 C-13.66 46 -14.32 46 -15 46 C-15.33 47.32 -15.66 48.64 -16 50 C-16.23605839 44.21656938 -15.78850987 39.56425293 -14 34 C-13.2895341 31.00932261 -12.64080003 28.00630654 -12 25 C-11.34 25 -10.68 25 -10 25 C-9.87625 24.319375 -9.7525 23.63875 -9.625 22.9375 C-8.90899123 19.5722588 -7.97054875 16.29986575 -7 13 C-6.34 13 -5.68 13 -5 13 C-4.67 11.02 -4.34 9.04 -4 7 C-3.34 7 -2.68 7 -2 7 C-1.855625 6.030625 -1.71125 5.06125 -1.5625 4.0625 C-1 1 -1 1 0 0 Z " fill="#0B862E" transform="translate(58,186)"/>
<path d="M0 0 C1.40765625 -0.01836914 1.40765625 -0.01836914 2.84375 -0.03710938 C9.20683655 -0.05029257 15.06478925 0.70018434 21.25 2.1875 C21.25 2.8475 21.25 3.5075 21.25 4.1875 C22.57 4.5175 23.89 4.8475 25.25 5.1875 C24.26 5.5175 23.27 5.8475 22.25 6.1875 C20.91666667 5.52083333 19.58333333 4.85416667 18.25 4.1875 C13.53378111 3.35632621 9.00607162 3.06858413 4.22265625 3.08984375 C2.29389648 3.09467773 2.29389648 3.09467773 0.32617188 3.09960938 C-1.01171945 3.10796198 -2.34961007 3.11642689 -3.6875 3.125 C-5.05273274 3.13002341 -6.41796726 3.13458483 -7.78320312 3.13867188 C-11.10551457 3.15041149 -14.42773408 3.16683321 -17.75 3.1875 C-17.42 2.5275 -17.09 1.8675 -16.75 1.1875 C-11.28100624 -0.2154935 -5.60895143 0.00378983 0 0 Z " fill="#0B9933" transform="translate(83.75,130.8125)"/>
<path d="M0 0 C0.33 0 0.66 0 1 0 C0.85637523 1.83350768 0.70997295 3.66679783 0.5625 5.5 C0.48128906 6.5209375 0.40007812 7.541875 0.31640625 8.59375 C-0.03758928 12.40466486 -0.52527927 16.20223419 -1 20 C11.21 20 23.42 20 36 20 C36 20.33 36 20.66 36 21 C23.13 21 10.26 21 -3 21 C-3.85439685 15.87361891 -3.89038866 12.94660369 -3 8 C-2.34 8 -1.68 8 -1 8 C-1.020625 7.05125 -1.04125 6.1025 -1.0625 5.125 C-1 2 -1 2 0 0 Z " fill="#0B862F" transform="translate(369,295)"/>
<path d="M0 0 C0.33 0 0.66 0 1 0 C0.67 4.29 0.34 8.58 0 13 C-0.66 13 -1.32 13 -2 13 C-2.33 16.96 -2.66 20.92 -3 25 C-3.66 25 -4.32 25 -5 25 C-5.33 29.29 -5.66 33.58 -6 38 C-6.66 38 -7.32 38 -8 38 C-8 39.98 -8 41.96 -8 44 C-8.66 44 -9.32 44 -10 44 C-9.67 41.03 -9.34 38.06 -9 35 C-8.34 35 -7.68 35 -7 35 C-6.95101563 34.14277344 -6.90203125 33.28554687 -6.8515625 32.40234375 C-6.45296046 26.30648156 -5.87647854 20.83793322 -4 15 C-3.2010185 11.60330429 -2.44013097 8.19934619 -1.68359375 4.79296875 C-1 2 -1 2 0 0 Z " fill="#0B9131" transform="translate(403,144)"/>
<path d="M0 0 C1.24330078 -0.00128906 2.48660156 -0.00257813 3.76757812 -0.00390625 C5.7253418 0.00189453 5.7253418 0.00189453 7.72265625 0.0078125 C9.02396484 0.00394531 10.32527344 0.00007812 11.66601562 -0.00390625 C12.91060547 -0.00261719 14.15519531 -0.00132812 15.4375 0 C17.1544104 0.00169189 17.1544104 0.00169189 18.90600586 0.00341797 C21.78515625 0.1328125 21.78515625 0.1328125 24.78515625 1.1328125 C24.78515625 2.1228125 24.78515625 3.1128125 24.78515625 4.1328125 C23.79515625 3.8028125 22.80515625 3.4728125 21.78515625 3.1328125 C19.79312595 3.04989297 17.79841912 3.02543073 15.8046875 3.03515625 C14.05961914 3.03999023 14.05961914 3.03999023 12.27929688 3.04492188 C10.45688477 3.05749023 10.45688477 3.05749023 8.59765625 3.0703125 C6.7578418 3.07708008 6.7578418 3.07708008 4.88085938 3.08398438 C1.84890957 3.09578185 -1.18294281 3.11224329 -4.21484375 3.1328125 C-3.55484375 3.4628125 -2.89484375 3.7928125 -2.21484375 4.1328125 C-2.21484375 4.7928125 -2.21484375 5.4528125 -2.21484375 6.1328125 C-4.65234375 5.3203125 -4.65234375 5.3203125 -7.21484375 4.1328125 C-7.54484375 3.1428125 -7.87484375 2.1528125 -8.21484375 1.1328125 C-5.4254129 -0.26190292 -3.11723956 0.00307485 0 0 Z " fill="#0B9231" transform="translate(425.21484375,171.8671875)"/>
<path d="M0 0 C-0.33 0.99 -0.66 1.98 -1 3 C-4.96 3.66 -8.92 4.32 -13 5 C-13 5.66 -13 6.32 -13 7 C-14.65 7.33 -16.3 7.66 -18 8 C-18 8.66 -18 9.32 -18 10 C-18.721875 10.226875 -19.44375 10.45375 -20.1875 10.6875 C-23.53652223 12.25037704 -25.47247546 14.33585251 -28 17 C-28.66 17.33 -29.32 17.66 -30 18 C-28.82884146 14.66670261 -27.88352404 12.13594373 -25 10 C-22.3125 9.3125 -22.3125 9.3125 -20 9 C-20 8.34 -20 7.68 -20 7 C-19.01 6.67 -18.02 6.34 -17 6 C-16.67 5.34 -16.34 4.68 -16 4 C-13.41796875 2.9296875 -13.41796875 2.9296875 -10.1875 1.875 C-8.60001953 1.34519531 -8.60001953 1.34519531 -6.98046875 0.8046875 C-4 0 -4 0 0 0 Z " fill="#0B9D35" transform="translate(189,132)"/>
<path d="M0 0 C0.66 0.33 1.32 0.66 2 1 C-1.33333333 9.33333333 -4.66666667 17.66666667 -8 26 C-8.66 26 -9.32 26 -10 26 C-10.12375 26.969375 -10.2475 27.93875 -10.375 28.9375 C-10.58125 29.948125 -10.7875 30.95875 -11 32 C-11.99 32.495 -11.99 32.495 -13 33 C-13.33 33.99 -13.66 34.98 -14 36 C-14.66 36 -15.32 36 -16 36 C-14.78065514 31.96678237 -13.44045073 28.45730521 -11 25 C-10.34 25 -9.68 25 -9 25 C-8.89042969 24.443125 -8.78085938 23.88625 -8.66796875 23.3125 C-7.55724752 17.96658969 -6.02774474 13.06936184 -4 8 C-3.34 8 -2.68 8 -2 8 C-1.855625 6.865625 -1.71125 5.73125 -1.5625 4.5625 C-1 1 -1 1 0 0 Z " fill="#0B842E" transform="translate(124,256)"/>
<path d="M0 0 C0.66 0.33 1.32 0.66 2 1 C1.67 1.66 1.34 2.32 1 3 C0.34 3 -0.32 3 -1 3 C-1.33217441 10.38165355 -1.28913446 16.29522591 2 23 C2.66 23.33 3.32 23.66 4 24 C4.625 26.5625 4.625 26.5625 5 29 C-0.66935484 23.62903226 -0.66935484 23.62903226 -2 20 C-2 19.01 -2 18.02 -2 17 C-2.66 17 -3.32 17 -4 17 C-5.26577141 10.55607284 -4.82299412 6.95965426 -2 1 C-1.34 0.67 -0.68 0.34 0 0 Z " fill="#0AAE39" transform="translate(193,171)"/>
<path d="M0 0 C0.99 0 1.98 0 3 0 C3.33 2.97 3.66 5.94 4 9 C4.66 9 5.32 9 6 9 C6.515625 10.175625 7.03125 11.35125 7.5625 12.5625 C10.07400164 17.62151048 13.8634263 22.43171315 19 25 C18.67 25.66 18.34 26.32 18 27 C14.26613864 25.75537955 13.35194152 24.08692325 11 21 C10.4225 20.443125 9.845 19.88625 9.25 19.3125 C8 18 8 18 8 16 C7.34 16 6.68 16 6 16 C5.67 14.35 5.34 12.7 5 11 C4.34 11 3.68 11 3 11 C2.67 8.36 2.34 5.72 2 3 C1.34 3 0.68 3 0 3 C0 2.01 0 1.02 0 0 Z " fill="#0B8E30" transform="translate(127,284)"/>
<path d="M0 0 C0.66 0 1.32 0 2 0 C2.67260351 1.76858691 3.33788395 3.53996016 4 5.3125 C4.37125 6.29863281 4.7425 7.28476563 5.125 8.30078125 C6 11 6 11 6 14 C6.66 14 7.32 14 8 14 C9.19303945 15.70434207 10.30532251 17.46564716 11.375 19.25 C13.63105102 23.00677219 15.90517992 25.91881349 19 29 C19 29.66 19 30.32 19 31 C18.34 31 17.68 31 17 31 C13 26.52941176 13 26.52941176 13 24 C12.34 24 11.68 24 11 24 C10.67 22.68 10.34 21.36 10 20 C9.34 20 8.68 20 8 20 C7.67 18.35 7.34 16.7 7 15 C6.34 15 5.68 15 5 15 C4.67 13.02 4.34 11.04 4 9 C3.34 9 2.68 9 2 9 C1.34 6.03 0.68 3.06 0 0 Z " fill="#0C6626" transform="translate(147,201)"/>
<path d="M0 0 C0.33 0 0.66 0 1 0 C1.02714434 2.7084017 1.04690846 5.41652721 1.0625 8.125 C1.07087891 8.88554687 1.07925781 9.64609375 1.08789062 10.4296875 C1.10646509 14.7389644 0.86117265 18.75516474 0 23 C-0.66 23 -1.32 23 -2 23 C-2.05429278 20.29139335 -2.09381211 17.58389099 -2.125 14.875 C-2.14175781 14.11445313 -2.15851563 13.35390625 -2.17578125 12.5703125 C-2.21546246 7.96729269 -1.75907577 4.33535996 0 0 Z " fill="#0B8C30" transform="translate(321,217)"/>
<path d="M0 0 C0.99 0 1.98 0 3 0 C3 1.32 3 2.64 3 4 C2.34 4 1.68 4 1 4 C0.67 7.3 0.34 10.6 0 14 C-0.66 14 -1.32 14 -2 14 C-2.33 15.98 -2.66 17.96 -3 20 C-3.66 20 -4.32 20 -5 20 C-5.103125 20.763125 -5.20625 21.52625 -5.3125 22.3125 C-6.04364039 25.17059424 -6.76951913 26.15742885 -9 28 C-9.66 27.67 -10.32 27.34 -11 27 C-10.34 25.68 -9.68 24.36 -9 23 C-8.34 23 -7.68 23 -7 23 C-5.50859979 19.37802806 -4.2125738 15.72433382 -3 12 C-2.34 12 -1.68 12 -1 12 C-0.67 8.04 -0.34 4.08 0 0 Z " fill="#0B882F" transform="translate(231,273)"/>
<path d="M0 0 C1.27351308 2.54702616 0.80191925 3.4282945 0.0625 6.125 C-0.13214844 6.84945312 -0.32679688 7.57390625 -0.52734375 8.3203125 C-0.68332031 8.87460938 -0.83929688 9.42890625 -1 10 C-1.66 10 -2.32 10 -3 10 C-3.33 11.65 -3.66 13.3 -4 15 C-4.66 15 -5.32 15 -6 15 C-6.103125 16.010625 -6.20625 17.02125 -6.3125 18.0625 C-7.03704767 22.21218208 -8.22269266 25.21356263 -10 29 C-10.66 29 -11.32 29 -12 29 C-12 29.99 -12 30.98 -12 32 C-12.66 31.67 -13.32 31.34 -14 31 C-13.67 29.68 -13.34 28.36 -13 27 C-12.34 27 -11.68 27 -11 27 C-10.67 25.02 -10.34 23.04 -10 21 C-9.34 21 -8.68 21 -8 21 C-7.67 18.69 -7.34 16.38 -7 14 C-6.34 14 -5.68 14 -5 14 C-4.87625 12.7625 -4.87625 12.7625 -4.75 11.5 C-3.83552731 7.23246079 -2.07776822 3.80763106 0 0 Z " fill="#0B822D" transform="translate(264,219)"/>
<path d="M0 0 C0.33 1.32 0.66 2.64 1 4 C1.66 4 2.32 4 3 4 C3 8.62 3 13.24 3 18 C2.34 18 1.68 18 1 18 C1 18.66 1 19.32 1 20 C0.34 20 -0.32 20 -1 20 C-0.67 13.4 -0.34 6.8 0 0 Z " fill="#0B8A30" transform="translate(253,169)"/>
<path d="M0 0 C2.56780471 3.8415976 2.22688882 7.8139175 2.125 12.25 C2.11597656 12.99507813 2.10695313 13.74015625 2.09765625 14.5078125 C2.07418358 16.33868059 2.03831525 18.16938238 2 20 C1.67 19.34 1.34 18.68 1 18 C0.34 18 -0.32 18 -1 18 C-1.02698422 15.56242587 -1.04683099 13.12515085 -1.0625 10.6875 C-1.07087891 9.99720703 -1.07925781 9.30691406 -1.08789062 8.59570312 C-1.10307906 5.4516975 -1.00193327 3.00579981 0 0 Z " fill="#0B8C30" transform="translate(317,296)"/>
<path d="M0 0 C2.66926629 7.85526937 -0.84669468 17.69006494 -4 25 C-5.3357457 21.22628488 -4.72408671 18.14168653 -4.0625 14.25 C-3.86785156 13.07953125 -3.67320312 11.9090625 -3.47265625 10.703125 C-3.31667969 9.81109375 -3.16070312 8.9190625 -3 8 C-2.34 8 -1.68 8 -1 8 C-1.020625 7.05125 -1.04125 6.1025 -1.0625 5.125 C-1 2 -1 2 0 0 Z " fill="#0B8E30" transform="translate(6,203)"/>
<path d="M0 0 C0.66 0 1.32 0 2 0 C0.83445193 6.0509304 -0.45343096 12.03466226 -2 18 C-2.99 18 -3.98 18 -5 18 C-5 17.01 -5 16.02 -5 15 C-4.34 15 -3.68 15 -3 15 C-2.67 10.71 -2.34 6.42 -2 2 C-1.34 2 -0.68 2 0 2 C0 1.34 0 0.68 0 0 Z " fill="#0B9C34" transform="translate(76,214)"/>
<path d="M0 0 C0.93045933 2.55144824 1.08564091 3.74006478 0.22265625 6.359375 C-0.16019531 7.14828125 -0.54304688 7.9371875 -0.9375 8.75 C-1.31777344 9.54921875 -1.69804687 10.3484375 -2.08984375 11.171875 C-2.39019531 11.77515625 -2.69054687 12.3784375 -3 13 C-3.66 13 -4.32 13 -5 13 C-5.061875 13.556875 -5.12375 14.11375 -5.1875 14.6875 C-6.33373872 17.94987173 -8.49390197 19.68667874 -11 22 C-11 19 -11 19 -9 16 C-8.34 16 -7.68 16 -7 16 C-6.67 14.68 -6.34 13.36 -6 12 C-5.34 12 -4.68 12 -4 12 C-3.67 10.02 -3.34 8.04 -3 6 C-2.34 6 -1.68 6 -1 6 C-0.67 4.02 -0.34 2.04 0 0 Z " fill="#0B852E" transform="translate(453,212)"/>
<path d="M0 0 C0.33 0.66 0.66 1.32 1 2 C1.66 2 2.32 2 3 2 C3.33 3.98 3.66 5.96 4 8 C4.66 8 5.32 8 6 8 C6.33 11.3 6.66 14.6 7 18 C7.66 18 8.32 18 9 18 C9 19.32 9 20.64 9 22 C8.01 22 7.02 22 6 22 C5.67 18.04 5.34 14.08 5 10 C4.34 10 3.68 10 3 10 C2.67 7.69 2.34 5.38 2 3 C1.34 3 0.68 3 0 3 C0 2.01 0 1.02 0 0 Z " fill="#0B762A" transform="translate(225,231)"/>
<path d="M0 0 C0.66 0 1.32 0 2 0 C1.67 2.97 1.34 5.94 1 9 C0.34 9 -0.32 9 -1 9 C-1.06058594 9.77085937 -1.12117188 10.54171875 -1.18359375 11.3359375 C-1.26738281 12.33882812 -1.35117187 13.34171875 -1.4375 14.375 C-1.51871094 15.37273437 -1.59992188 16.37046875 -1.68359375 17.3984375 C-2 20 -2 20 -3 22 C-3.66 22 -4.32 22 -5 22 C-4.80083984 21.02160156 -4.80083984 21.02160156 -4.59765625 20.0234375 C-3.65517178 15.3591713 -2.74231297 10.70131546 -2 6 C-1.34 6 -0.68 6 0 6 C0 4.02 0 2.04 0 0 Z " fill="#0B892F" transform="translate(429,217)"/>
<path d="M0 0 C3.93268867 -0.02473868 7.86534713 -0.04287835 11.7980957 -0.05493164 C13.79314768 -0.06242729 15.78817786 -0.07513345 17.78320312 -0.08789062 C19.03681641 -0.09111328 20.29042969 -0.09433594 21.58203125 -0.09765625 C22.73936768 -0.10289307 23.8967041 -0.10812988 25.08911133 -0.11352539 C28 0 28 0 31 1 C31 1.99 31 2.98 31 4 C30.30237549 3.67854004 29.60475098 3.35708008 28.88598633 3.02587891 C25.71850089 1.89993577 23.17826056 1.68507174 19.82421875 1.5859375 C18.66728516 1.54726562 17.51035156 1.50859375 16.31835938 1.46875 C14.52108398 1.42234375 14.52108398 1.42234375 12.6875 1.375 C11.46998047 1.33632812 10.25246094 1.29765625 8.99804688 1.2578125 C5.99884772 1.16371998 2.99965177 1.07807791 0 1 C0 0.67 0 0.34 0 0 Z " fill="#0BB13A" transform="translate(419,172)"/>
<path d="M0 0 C0.66 0 1.32 0 2 0 C0.96799394 3.81048393 -0.15493157 7.46027965 -1.625 11.125 C-2.81611956 14.20156006 -3.31285232 16.66290858 -3 20 C-3.99 19.67 -4.98 19.34 -6 19 C-6 17.02 -6 15.04 -6 13 C-5.34 13 -4.68 13 -4 13 C-3.896875 12.154375 -3.79375 11.30875 -3.6875 10.4375 C-2.9171146 6.58557299 -1.63725486 3.55924969 0 0 Z " fill="#0B802D" transform="translate(229,296)"/>
<path d="M0 0 C1.3357457 3.77371512 0.72408671 6.85831347 0.0625 10.75 C-0.13214844 11.92046875 -0.32679688 13.0909375 -0.52734375 14.296875 C-0.76130859 15.63492188 -0.76130859 15.63492188 -1 17 C-1.66 17 -2.32 17 -3 17 C-3 18.98 -3 20.96 -3 23 C-3.66 23 -4.32 23 -5 23 C-4.505 18.545 -4.505 18.545 -4 14 C-3.34 14 -2.68 14 -2 14 C-1.93941406 13.07316406 -1.87882812 12.14632812 -1.81640625 11.19140625 C-1.73261719 9.99386719 -1.64882813 8.79632813 -1.5625 7.5625 C-1.48128906 6.36753906 -1.40007812 5.17257813 -1.31640625 3.94140625 C-1 1 -1 1 0 0 Z " fill="#0C7C2C" transform="translate(398,165)"/>
<path d="M0 0 C0.66 0.33 1.32 0.66 2 1 C1.67 1.66 1.34 2.32 1 3 C0.34 3 -0.32 3 -1 3 C-1.24492188 3.58265625 -1.48984375 4.1653125 -1.7421875 4.765625 C-3.20435874 7.36302236 -4.84740414 8.83975831 -7.125 10.75 C-8.21167969 11.67039062 -8.21167969 11.67039062 -9.3203125 12.609375 C-9.87460938 13.06828125 -10.42890625 13.5271875 -11 14 C-11 11 -11 11 -9.7578125 9.39453125 C-9.21898438 8.87246094 -8.68015625 8.35039062 -8.125 7.8125 C-7.59132813 7.28269531 -7.05765625 6.75289063 -6.5078125 6.20703125 C-5 5 -5 5 -3 5 C-2.690625 4.360625 -2.38125 3.72125 -2.0625 3.0625 C-1 1 -1 1 0 0 Z " fill="#0B7C2C" transform="translate(106,293)"/>
<path d="M0 0 C0.33 0.99 0.66 1.98 1 3 C0.67 3.66 0.34 4.32 0 5 C-2.28515625 5.4140625 -2.28515625 5.4140625 -5.0625 5.625 C-5.98160156 5.69976562 -6.90070313 5.77453125 -7.84765625 5.8515625 C-8.91306641 5.92503906 -8.91306641 5.92503906 -10 6 C-10 5.34 -10 4.68 -10 4 C-10.66 4 -11.32 4 -12 4 C-11.67 3.34 -11.34 2.68 -11 2 C-9.01432292 2.06510417 -7.02864583 2.13020833 -5.04296875 2.1953125 C-2.68640281 2.13254462 -2.68640281 2.13254462 0 0 Z " fill="#0BA336" transform="translate(186,276)"/>
<path d="M0 0 C0 0.66 0 1.32 0 2 C-1.32 2 -2.64 2 -4 2 C-4 2.66 -4 3.32 -4 4 C-5.43554025 4.50559908 -6.8735202 5.0042749 -8.3125 5.5 C-9.51326172 5.91765625 -9.51326172 5.91765625 -10.73828125 6.34375 C-13 7 -13 7 -16 7 C-16 6.01 -16 5.02 -16 4 C-14.35 4 -12.7 4 -11 4 C-11 3.34 -11 2.68 -11 2 C-9.5422647 1.664061 -8.08378894 1.33133376 -6.625 1 C-5.81289063 0.814375 -5.00078125 0.62875 -4.1640625 0.4375 C-2 0 -2 0 0 0 Z " fill="#0B9332" transform="translate(451,271)"/>
<path d="M0 0 C0.33 0.66 0.66 1.32 1 2 C0.67 2.66 0.34 3.32 0 4 C-0.66 4 -1.32 4 -2 4 C-2.33 4.99 -2.66 5.98 -3 7 C-3.66 7 -4.32 7 -5 7 C-5.33 7.99 -5.66 8.98 -6 10 C-6.66 10 -7.32 10 -8 10 C-8.33 10.99 -8.66 11.98 -9 13 C-11.0625 14.1875 -11.0625 14.1875 -13 15 C-11.38989473 10.92623969 -8.46177729 8.23492931 -5.375 5.25 C-4.859375 4.74339844 -4.34375 4.23679688 -3.8125 3.71484375 C-2.54616661 2.47196098 -1.2736856 1.23534724 0 0 Z " fill="#0B9532" transform="translate(480,248)"/>
<path d="M0 0 C2.475 0.495 2.475 0.495 5 1 C5 1.66 5 2.32 5 3 C5.66 3 6.32 3 7 3 C7.33 3.66 7.66 4.32 8 5 C9.64363134 5.72159424 11.31050386 6.39351421 13 7 C13 7.66 13 8.32 13 9 C13.66 9 14.32 9 15 9 C14.67 9.99 14.34 10.98 14 12 C14 11.34 14 10.68 14 10 C13.4225 9.87625 12.845 9.7525 12.25 9.625 C7.24976847 8.2360468 5.12037071 6.16049427 2 2 C1.34 1.34 0.68 0.68 0 0 Z " fill="#0BAA38" transform="translate(15,303)"/>
<path d="M0 0 C0.33 0.66 0.66 1.32 1 2 C0.48050781 2.43570313 -0.03898437 2.87140625 -0.57421875 3.3203125 C-4.83222666 6.95654106 -8.55472652 10.58574336 -12 15 C-12.33 14.01 -12.66 13.02 -13 12 C-10.50898092 8.26347137 -7.50747306 5.74910051 -4 3 C-3.67 2.34 -3.34 1.68 -3 1 C-2.01 0.67 -1.02 0.34 0 0 Z " fill="#0BA837" transform="translate(43,144)"/>
<path d="M0 0 C0.66 0 1.32 0 2 0 C2.33 1.65 2.66 3.3 3 5 C3.66 5 4.32 5 5 5 C5.33 6.98 5.66 8.96 6 11 C6.66 11 7.32 11 8 11 C8.33 13.31 8.66 15.62 9 18 C8.34 18 7.68 18 7 18 C6.74605469 17.28714844 6.49210938 16.57429688 6.23046875 15.83984375 C4.30506746 10.48189183 2.31239649 5.2028921 0 0 Z " fill="#0B832D" transform="translate(245,148)"/>
<path d="M0 0 C0.66 0 1.32 0 2 0 C1.34 2.31 0.68 4.62 0 7 C-0.66 7 -1.32 7 -2 7 C-2.185625 8.4540625 -2.185625 8.4540625 -2.375 9.9375 C-2.58125 10.948125 -2.7875 11.95875 -3 13 C-3.99 13.495 -3.99 13.495 -5 14 C-5.33 14.99 -5.66 15.98 -6 17 C-6.66 17 -7.32 17 -8 17 C-6.78065514 12.96678237 -5.44045073 9.45730521 -3 6 C-2.34 6 -1.68 6 -1 6 C-0.67 4.02 -0.34 2.04 0 0 Z " fill="#0C6F28" transform="translate(116,275)"/>
<path d="M0 0 C0.33 0 0.66 0 1 0 C1 1.65 1 3.3 1 5 C0.34 5 -0.32 5 -1 5 C-0.979375 6.051875 -0.95875 7.10375 -0.9375 8.1875 C-0.98896802 11.32704904 -1.26517187 13.96883396 -2 17 C-2.99 17 -3.98 17 -5 17 C-5 16.34 -5 15.68 -5 15 C-4.34 15 -3.68 15 -3 15 C-2.67 10.71 -2.34 6.42 -2 2 C-1.34 2 -0.68 2 0 2 C0 1.34 0 0.68 0 0 Z " fill="#0C7C2C" transform="translate(390,203)"/>
<path d="M0 0 C0.66 0 1.32 0 2 0 C2.33 2.31 2.66 4.62 3 7 C3.66 7 4.32 7 5 7 C5.33 9.97 5.66 12.94 6 16 C5.34 16 4.68 16 4 16 C4 14.02 4 12.04 4 10 C3.34 10 2.68 10 2 10 C1.34 6.7 0.68 3.4 0 0 Z " fill="#0B842E" transform="translate(127,156)"/>
<path d="M0 0 C1.26823485 3.65393537 0.75715321 6.49070026 0.0625 10.25 C-0.13214844 11.32765625 -0.32679688 12.4053125 -0.52734375 13.515625 C-0.68332031 14.33546875 -0.83929688 15.1553125 -1 16 C-1.99 16 -2.98 16 -4 16 C-3.52546129 13.51986371 -3.04561015 11.04096744 -2.5625 8.5625 C-2.42779297 7.85544922 -2.29308594 7.14839844 -2.15429688 6.41992188 C-1.11328125 1.11328125 -1.11328125 1.11328125 0 0 Z " fill="#0B872F" transform="translate(379,250)"/>
<path d="M0 0 C4.68520915 1.21815438 8.70543612 2.69559987 13 5 C13 5.66 13 6.32 13 7 C9.7 6.01 6.4 5.02 3 4 C3 3.34 3 2.68 3 2 C2.01 2 1.02 2 0 2 C0 1.34 0 0.68 0 0 Z " fill="#0B9131" transform="translate(222,132)"/>
<path d="M0 0 C3.59476701 3.49205938 6.92026191 7.04033675 10 11 C10 11.66 10 12.32 10 13 C9.34 13 8.68 13 8 13 C4 8.52941176 4 8.52941176 4 6 C3.34 6 2.68 6 2 6 C1.34 4.02 0.68 2.04 0 0 Z " fill="#0B9733" transform="translate(156,219)"/>
<path d="M0 0 C2.51350838 2.51350838 3.11371585 4.90154819 4.21875 8.22265625 C4.86054904 10.19646447 4.86054904 10.19646447 7 11 C7.625 13.5625 7.625 13.5625 8 16 C3.92388228 12.36454366 1.78563754 9.16895076 0 4 C0 2.68 0 1.36 0 0 Z " fill="#0C7129" transform="translate(190,184)"/>
<path d="M0 0 C2.31 0.33 4.62 0.66 7 1 C7 1.66 7 2.32 7 3 C7.99 3 8.98 3 10 3 C9.67 3.99 9.34 4.98 9 6 C6.03 5.01 3.06 4.02 0 3 C0 2.01 0 1.02 0 0 Z " fill="#0BA637" transform="translate(150,312)"/>
<path d="M0 0 C0.99 0 1.98 0 3 0 C2.67 2.97 2.34 5.94 2 9 C1.34 9 0.68 9 0 9 C-0.33 9.66 -0.66 10.32 -1 11 C-0.67 7.37 -0.34 3.74 0 0 Z " fill="#0B832E" transform="translate(434,191)"/>
<path d="M0 0 C4.98012761 1.50912958 8.24259942 4.55661849 12 8 C11.67 8.66 11.34 9.32 11 10 C8.5 8.625 8.5 8.625 6 7 C6 6.34 6 5.68 6 5 C5.38125 4.690625 4.7625 4.38125 4.125 4.0625 C2.75 3.375 1.375 2.6875 0 2 C0 1.34 0 0.68 0 0 Z " fill="#0B9232" transform="translate(475,141)"/>
<path d="M0 0 C0 0.99 0 1.98 0 3 C-8.42857143 6.28571429 -8.42857143 6.28571429 -13 7 C-12.67 6.34 -12.34 5.68 -12 5 C-11.01 5 -10.02 5 -9 5 C-9 4.34 -9 3.68 -9 3 C-2.25 0 -2.25 0 0 0 Z " fill="#0B832E" transform="translate(64,133)"/>
<path d="M0 0 C0.33 0.66 0.66 1.32 1 2 C1.66 2 2.32 2 3 2 C3 4.64 3 7.28 3 10 C2.34 10 1.68 10 1 10 C-0.1577506 6.52674819 -0.06866652 3.63932552 0 0 Z " fill="#0B8A30" transform="translate(132,174)"/>
<path d="M0 0 C0.66 0 1.32 0 2 0 C0.125 7.75 0.125 7.75 -1 10 C-1.99 10 -2.98 10 -4 10 C-3.67 8.68 -3.34 7.36 -3 6 C-2.34 6 -1.68 6 -1 6 C-0.67 4.02 -0.34 2.04 0 0 Z " fill="#0B9232" transform="translate(80,257)"/>
<path d="M0 0 C2.0252003 1.40883499 2.91033987 2.50388059 3.3515625 4.9453125 C3.42117187 5.66460937 3.49078125 6.38390625 3.5625 7.125 C3.706875 8.40375 3.85125 9.6825 4 11 C4.66 11.33 5.32 11.66 6 12 C5.01 12 4.02 12 3 12 C2.67 10.02 2.34 8.04 2 6 C1.34 6 0.68 6 0 6 C0 4.02 0 2.04 0 0 Z " fill="#0B832E" transform="translate(42,259)"/>
<path d="M0 0 C0.33 0 0.66 0 1 0 C0.85904936 1.6254308 0.71207913 3.25034051 0.5625 4.875 C0.48128906 5.77992188 0.40007812 6.68484375 0.31640625 7.6171875 C0 10 0 10 -1 12 C-1.66 12 -2.32 12 -3 12 C-3 10.68 -3 9.36 -3 8 C-2.34 8 -1.68 8 -1 8 C-1.020625 7.05125 -1.04125 6.1025 -1.0625 5.125 C-1 2 -1 2 0 0 Z " fill="#0C862F" transform="translate(71,234)"/>
<path d="M0 0 C0.33 0.66 0.66 1.32 1 2 C1.66 2 2.32 2 3 2 C3 3.98 3 5.96 3 8 C2.34 8 1.68 8 1 8 C0.67 8.66 0.34 9.32 0 10 C0 6.7 0 3.4 0 0 Z " fill="#0B8E30" transform="translate(144,214)"/>
<path d="M0 0 C0.66 0.33 1.32 0.66 2 1 C1.38385645 2.81552978 0.75681772 4.6273653 0.125 6.4375 C-0.39707031 7.95150391 -0.39707031 7.95150391 -0.9296875 9.49609375 C-2 12 -2 12 -4 13 C-3.71517632 11.58194169 -3.42181856 10.16559621 -3.125 8.75 C-2.96257812 7.96109375 -2.80015625 7.1721875 -2.6328125 6.359375 C-2.00849925 4.03168856 -1.15161458 2.10968048 0 0 Z " fill="#0C7028" transform="translate(302,229)"/>
<path d="M0 0 C0.33 0.66 0.66 1.32 1 2 C-1.97 3.65 -4.94 5.3 -8 7 C-8 6.01 -8 5.02 -8 4 C-5.36 2.68 -2.72 1.36 0 0 Z " fill="#0B9031" transform="translate(211,308)"/>
<path d="M0 0 C0.66 0 1.32 0 2 0 C1.67 2.97 1.34 5.94 1 9 C0.34 9 -0.32 9 -1 9 C-1.33 9.66 -1.66 10.32 -2 11 C-2 9.35 -2 7.7 -2 6 C-1.34 6 -0.68 6 0 6 C0 4.02 0 2.04 0 0 Z " fill="#0B7B2B" transform="translate(143,226)"/>
<path d="M0 0 C0.33 0 0.66 0 1 0 C0.67 3.63 0.34 7.26 0 11 C-0.99 11 -1.98 11 -3 11 C-3 10.01 -3 9.02 -3 8 C-2.34 8 -1.68 8 -1 8 C-1.020625 7.05125 -1.04125 6.1025 -1.0625 5.125 C-1 2 -1 2 0 0 Z " fill="#0B822D" transform="translate(74,221)"/>
<path d="M0 0 C0.66 0 1.32 0 2 0 C1.67 1.65 1.34 3.3 1 5 C-0.98 5.66 -2.96 6.32 -5 7 C-5 6.34 -5 5.68 -5 5 C-3.68 4.67 -2.36 4.34 -1 4 C-0.67 2.68 -0.34 1.36 0 0 Z " fill="#0BA035" transform="translate(74,267)"/>
<path d="M0 0 C0.33 0.66 0.66 1.32 1 2 C0.01 2 -0.98 2 -2 2 C-2 2.66 -2 3.32 -2 4 C-3.98 4 -5.96 4 -8 4 C-7.67 3.01 -7.34 2.02 -7 1 C-3.535 0.505 -3.535 0.505 0 0 Z " fill="#0B832E" transform="translate(436,235)"/>
<path d="M0 0 C0.66 0 1.32 0 2 0 C1.67 2.97 1.34 5.94 1 9 C0.34 9 -0.32 9 -1 9 C-1.33 9.66 -1.66 10.32 -2 11 C-2 9.35 -2 7.7 -2 6 C-1.34 6 -0.68 6 0 6 C0 4.02 0 2.04 0 0 Z " fill="#0C752A" transform="translate(432,204)"/>
<path d="M0 0 C0.33 0 0.66 0 1 0 C1 1.65 1 3.3 1 5 C0.34 5 -0.32 5 -1 5 C-1 6.98 -1 8.96 -1 11 C-1.66 11 -2.32 11 -3 11 C-2.67 8.03 -2.34 5.06 -2 2 C-1.34 2 -0.68 2 0 2 C0 1.34 0 0.68 0 0 Z " fill="#0B7D2C" transform="translate(393,190)"/>
<path d="M0 0 C2.5 1.375 2.5 1.375 5 3 C5 3.66 5 4.32 5 5 C5.66 5 6.32 5 7 5 C7.33 6.32 7.66 7.64 8 9 C6.84775972 8.07038578 5.70340824 7.1309875 4.5625 6.1875 C3.60537109 5.40439453 3.60537109 5.40439453 2.62890625 4.60546875 C1 3 1 3 0 0 Z " fill="#0B742A" transform="translate(237,139)"/>
<path d="M0 0 C0.33 0.66 0.66 1.32 1 2 C1.804375 2.12375 2.60875 2.2475 3.4375 2.375 C6 3 6 3 7.3125 5.0625 C7.539375 5.701875 7.76625 6.34125 8 7 C4.65980694 6.40353695 2.49529367 5.31705841 0 3 C0 2.01 0 1.02 0 0 Z " fill="#0B9A34" transform="translate(110,136)"/>
<path d="M0 0 C2.97 0.495 2.97 0.495 6 1 C6 1.66 6 2.32 6 3 C7.32 3.33 8.64 3.66 10 4 C5.82412255 5.39195915 3.86525224 3.82323219 0 2 C0 1.34 0 0.68 0 0 Z " fill="#0B822D" transform="translate(99,132)"/>
<path d="M0 0 C0.66 0 1.32 0 2 0 C2 1.32 2 2.64 2 4 C2.66 4 3.32 4 4 4 C4 5.32 4 6.64 4 8 C3.01 8 2.02 8 1 8 C0.67 5.36 0.34 2.72 0 0 Z " fill="#0B9231" transform="translate(230,245)"/>
<path d="M0 0 C0.33 0 0.66 0 1 0 C1 2.97 1 5.94 1 9 C0.01 9.33 -0.98 9.66 -2 10 C-2 8.68 -2 7.36 -2 6 C-1.34 6 -0.68 6 0 6 C0 4.02 0 2.04 0 0 Z " fill="#0ACF42" transform="translate(321,234)"/>
<path d="M0 0 C4.39158329 1.4638611 4.87947433 3.97831338 7 8 C6.34 8 5.68 8 5 8 C5 7.34 5 6.68 5 6 C4.01 5.67 3.02 5.34 2 5 C0.8125 2.4375 0.8125 2.4375 0 0 Z " fill="#0B7D2C" transform="translate(216,219)"/>
</svg>
