<?xml version="1.0" encoding="UTF-8"?>
<svg version="1.1" xmlns="http://www.w3.org/2000/svg" width="500" height="500">
<path d="M0 0 C0.99450668 -0.00637985 1.98901337 -0.0127597 3.01365662 -0.01933289 C4.09591019 -0.02044571 5.17816376 -0.02155853 6.29321289 -0.02270508 C7.39685684 -0.02603348 8.50050079 -0.02936188 9.6375885 -0.03279114 C11.97713808 -0.03786519 14.31669493 -0.04019932 16.65625 -0.04003906 C20.2469468 -0.04222481 23.83733619 -0.06037367 27.42797852 -0.0793457 C29.69555558 -0.08227959 31.96313412 -0.08426442 34.23071289 -0.08520508 C35.8510569 -0.09598335 35.8510569 -0.09598335 37.50413513 -0.10697937 C38.50179398 -0.10390274 39.49945282 -0.10082611 40.52734375 -0.09765625 C41.84852455 -0.09979378 41.84852455 -0.09979378 43.19639587 -0.10197449 C45.32836914 0.14526367 45.32836914 0.14526367 47.32836914 2.14526367 C46.99836914 3.79526367 46.66836914 5.44526367 46.32836914 7.14526367 C43.02836914 8.13526367 39.72836914 9.12526367 36.32836914 10.14526367 C37.2912458 14.95964695 38.18235296 16.81195272 40.89086914 20.70776367 C41.61145508 21.75706055 42.33204102 22.80635742 43.07446289 23.88745117 C43.81825195 24.9625293 44.56204102 26.03760742 45.32836914 27.14526367 C46.70751506 29.2049937 48.08263847 31.26742382 49.45336914 33.33276367 C50.10563477 34.31116211 50.75790039 35.28956055 51.42993164 36.29760742 C54.06274414 40.24682617 56.69555664 44.19604492 59.32836914 48.14526367 C62.53500329 45.1395768 64.95508806 41.96623905 67.40258789 38.32104492 C67.77188919 37.77417526 68.14119049 37.2273056 68.52168274 36.66386414 C69.69061836 34.93128618 70.85347112 33.19473289 72.01586914 31.45776367 C73.1901376 29.71089222 74.36564962 27.96486985 75.54219055 26.2195282 C76.60301438 24.64464119 77.66047724 23.06749182 78.71777344 21.49023438 C80.32836914 19.14526367 80.32836914 19.14526367 81.32836914 18.14526367 C81.71748288 14.08523499 81.71748288 14.08523499 80.26586914 10.39526367 C77.46931767 8.59103692 74.53838965 7.93262719 71.32836914 7.14526367 C71.28582558 5.14571621 71.28756131 3.14484731 71.32836914 1.14526367 C72.85921339 -0.38558057 74.24040058 0.01810588 76.37329102 0.01586914 C77.23088013 0.01271698 78.08846924 0.00956482 78.9720459 0.00631714 C79.90432007 0.00834137 80.83659424 0.0103656 81.79711914 0.01245117 C83.22308411 0.01101608 83.22308411 0.01101608 84.67785645 0.009552 C86.69205796 0.0088701 88.70626166 0.01072505 90.72045898 0.01489258 C93.81507269 0.02024069 96.90954124 0.0149479 100.00415039 0.00854492 C101.95597363 0.0092057 103.90779678 0.01048686 105.85961914 0.01245117 C106.79189331 0.01042694 107.72416748 0.00840271 108.68469238 0.00631714 C109.54228149 0.0094693 110.39987061 0.01262146 111.28344727 0.01586914 C112.04210083 0.01666473 112.80075439 0.01746033 113.58239746 0.01828003 C115.32836914 0.14526367 115.32836914 0.14526367 116.32836914 1.14526367 C116.36917697 3.14484731 116.3709127 5.14571621 116.32836914 7.14526367 C115.12180664 7.35280273 113.91524414 7.5603418 112.67211914 7.77416992 C111.05727186 8.08399527 109.44270243 8.39527126 107.82836914 8.70776367 C107.03688477 8.83989258 106.24540039 8.97202148 105.42993164 9.1081543 C96.99986983 10.80107655 92.02124749 15.49265511 87.16821289 22.41479492 C86.18909463 23.92159843 85.22181303 25.43615247 84.26586914 26.95776367 C83.23154134 28.55725804 82.19639086 30.15622071 81.16040039 31.75463867 C80.67265137 32.51454102 80.18490234 33.27444336 79.68237305 34.05737305 C77.99999431 36.65162169 76.24182033 39.1856906 74.45336914 41.70776367 C73.93000977 42.45413086 73.40665039 43.20049805 72.86743164 43.96948242 C71.76937011 45.52181814 70.65855322 47.0651637 69.53930664 48.60229492 C68.97469727 49.40022461 68.41008789 50.1981543 67.82836914 51.02026367 C67.07040039 52.06827148 67.07040039 52.06827148 66.29711914 53.13745117 C65.17978209 55.05099922 65.17978209 55.05099922 65.40258789 56.98901367 C66.76827507 60.16985469 68.68449944 62.93270685 70.64086914 65.77026367 C71.55907585 67.124269 72.47703427 68.47844272 73.39477539 69.83276367 C73.8770459 70.54045898 74.35931641 71.2481543 74.85620117 71.97729492 C77.28811156 75.55861569 79.68097534 79.16579047 82.07836914 82.77026367 C83.08481551 84.27811892 84.0913276 85.78593031 85.09790039 87.29370117 C87.41736209 90.77181356 89.72478746 94.25766216 92.02758789 97.74682617 C92.64988281 98.68703613 93.27217773 99.62724609 93.91333008 100.59594727 C95.118668 102.41729737 96.32128979 104.24044885 97.52075195 106.06567383 C102.37781355 114.17275902 102.37781355 114.17275902 109.32836914 120.14526367 C112.96223347 120.46240092 116.59684606 120.65697403 120.23852539 120.86401367 C123.32836914 121.14526367 123.32836914 121.14526367 124.32836914 122.14526367 C124.32836914 124.12526367 124.32836914 126.10526367 124.32836914 128.14526367 C107.16836914 128.14526367 90.00836914 128.14526367 72.32836914 128.14526367 C71.99836914 126.49526367 71.66836914 124.84526367 71.32836914 123.14526367 C73.74967245 120.72396036 75.12948291 120.61685864 78.45336914 120.02026367 C79.36344727 119.85268555 80.27352539 119.68510742 81.21118164 119.51245117 C81.90985352 119.3912793 82.60852539 119.27010742 83.32836914 119.14526367 C81.95101222 114.22720118 79.71331291 110.36331855 76.82836914 106.20776367 C75.92587514 104.88104295 75.02353586 103.55421697 74.12133789 102.22729492 C73.65904785 101.55263184 73.19675781 100.87796875 72.72045898 100.18286133 C70.50268922 96.93671849 68.32101597 93.66674606 66.14086914 90.39526367 C65.52236084 89.46907227 65.52236084 89.46907227 64.89135742 88.52416992 C61.28824571 83.11590644 57.78399897 77.64909794 54.32836914 72.14526367 C49.62360363 77.72128206 45.77940894 83.89589225 41.77539062 89.97973633 C39.05151025 94.10380864 36.33111724 98.20635533 33.37524414 102.16870117 C32.94945068 102.74620117 32.52365723 103.32370117 32.08496094 103.91870117 C30.9738314 105.40899146 29.84136354 106.88330672 28.70727539 108.35620117 C26.90797815 111.99557293 27.43668195 114.26039947 28.32836914 118.14526367 C31.62836914 119.46526367 34.92836914 120.78526367 38.32836914 122.14526367 C38.32836914 123.79526367 38.32836914 125.44526367 38.32836914 127.14526367 C37.32836914 128.14526367 37.32836914 128.14526367 34.36914062 128.25878906 C33.07564697 128.25355225 31.78215332 128.24831543 30.44946289 128.24291992 C29.41946922 128.2407975 29.41946922 128.2407975 28.3686676 128.2386322 C26.16769113 128.23301846 23.96681505 128.22046374 21.76586914 128.20776367 C20.27693831 128.20275044 18.7880059 128.19818722 17.29907227 128.1940918 C13.64213839 128.1830446 9.98526356 128.1657708 6.32836914 128.14526367 C6.27213379 128.75909912 6.21589844 129.37293457 6.15795898 130.00537109 C5.60056217 135.85692062 4.87928205 141.65351539 3.95336914 147.45776367 C3.82397949 148.27229004 3.69458984 149.08681641 3.5612793 149.92602539 C0.44447167 169.02916114 0.44447167 169.02916114 -1.67163086 171.14526367 C-3.06306775 171.24069462 -4.45931453 171.26714942 -5.85401917 171.26551819 C-7.20655289 171.26758018 -7.20655289 171.26758018 -8.58641052 171.26968384 C-9.58334427 171.26608856 -10.58027802 171.26249329 -11.60742188 171.25878906 C-12.65119995 171.25893509 -13.69497803 171.25908112 -14.77038574 171.25923157 C-18.23879029 171.25853194 -21.70714188 171.2507372 -25.17553711 171.24291992 C-27.57307404 171.24105592 -29.97061135 171.23963193 -32.3681488 171.2386322 C-38.6925867 171.23480561 -45.0170018 171.22497413 -51.34143066 171.21392822 C-57.78938488 171.20371713 -64.23734277 171.19913523 -70.68530273 171.1940918 C-83.34742186 171.18335199 -96.00952515 171.16646486 -108.67163086 171.14526367 C-109.70511782 168.0448028 -109.84918999 167.08916149 -108.67163086 164.14526367 C-105.67163086 163.14526367 -105.67163086 163.14526367 -102.42163086 163.20776367 C-98.61811822 163.14437179 -93.53548866 163.00912147 -90.67163086 160.14526367 C-90.57409103 158.77108188 -90.54531469 157.39193647 -90.54464722 156.01429749 C-90.54182739 155.12391281 -90.53900757 154.23352814 -90.53610229 153.31616211 C-90.53812653 152.33172119 -90.54015076 151.34728027 -90.54223633 150.33300781 C-90.54048401 149.30219589 -90.53873169 148.27138397 -90.53692627 147.20933533 C-90.53250513 143.78301334 -90.53544688 140.35674248 -90.53881836 136.93041992 C-90.53814534 134.5600941 -90.53717534 132.18976834 -90.53591919 129.81944275 C-90.53444182 124.84348902 -90.53659784 119.86755321 -90.54125977 114.89160156 C-90.54695397 108.50097507 -90.54368024 102.1103906 -90.5376873 95.71976566 C-90.53408011 90.82229799 -90.53522106 85.92484033 -90.53781509 81.02737236 C-90.53848408 78.67055697 -90.53765691 76.31374069 -90.53533554 73.95692635 C-90.53280678 70.66689761 -90.53665297 67.37693765 -90.54223633 64.08691406 C-90.53919998 62.61328903 -90.53919998 62.61328903 -90.53610229 61.1098938 C-90.54033203 59.77008705 -90.54033203 59.77008705 -90.54464722 58.4032135 C-90.54502424 57.62467546 -90.54540127 56.84613741 -90.54578972 56.0440073 C-90.55444192 54.05707044 -90.55444192 54.05707044 -91.67163086 52.14526367 C-95.13875197 50.98955664 -98.21312646 50.81691074 -101.85913086 50.58276367 C-103.13143555 50.49897461 -104.40374023 50.41518555 -105.71459961 50.32885742 C-106.69041992 50.26827148 -107.66624023 50.20768555 -108.67163086 50.14526367 C-108.67163086 47.83526367 -108.67163086 45.52526367 -108.67163086 43.14526367 C-104.38163086 43.14526367 -100.09163086 43.14526367 -95.67163086 43.14526367 C-96.09831118 40.14337095 -96.53761995 37.14421755 -96.98413086 34.14526367 C-97.16105469 32.88649414 -97.16105469 32.88649414 -97.34155273 31.60229492 C-98.80359381 21.84551529 -98.80359381 21.84551529 -104.04663086 13.77026367 C-112.38716777 8.60707416 -121.72271019 9.06510368 -131.23413086 9.02026367 C-131.93707275 9.01559082 -132.64001465 9.01091797 -133.36425781 9.00610352 C-137.14370931 8.9617367 -137.14370931 8.9617367 -140.67163086 10.14526367 C-140.74165206 24.19213644 -140.79438582 38.23898223 -140.82706738 52.28599358 C-140.84274974 58.80799267 -140.86403493 65.32987485 -140.89794922 71.85180664 C-140.93045092 78.14116699 -140.94846449 84.43041462 -140.95626259 90.71985245 C-140.96182264 93.12413433 -140.97267942 95.52840977 -140.98882103 97.93264389 C-141.01047296 101.28995032 -141.0136029 104.64678583 -141.01220703 108.00415039 C-141.02299286 109.0068396 -141.03377869 110.00952881 -141.04489136 111.04260254 C-141.04076736 111.95408051 -141.03664337 112.86555847 -141.03239441 113.80465698 C-141.03515979 114.59924253 -141.03792517 115.39382809 -141.04077435 116.21249199 C-140.85804832 117.16921397 -140.85804832 117.16921397 -140.67163086 118.14526367 C-137.43214984 120.30491769 -136.36246214 120.41941301 -132.60131836 120.52416992 C-131.62291992 120.55833008 -130.64452148 120.59249023 -129.63647461 120.62768555 C-128.61682617 120.65411133 -127.59717773 120.68053711 -126.54663086 120.70776367 C-124.52306717 120.7674296 -122.49961389 120.831014 -120.47631836 120.89916992 C-119.13029541 120.93506226 -119.13029541 120.93506226 -117.75708008 120.97167969 C-115.67163086 121.14526367 -115.67163086 121.14526367 -114.67163086 122.14526367 C-114.63082303 124.14484731 -114.6290873 126.14571621 -114.67163086 128.14526367 C-123.91160638 128.16838891 -133.151572 128.18617968 -142.39157009 128.19707584 C-146.68163001 128.20230428 -150.97167019 128.2094012 -155.26171875 128.22070312 C-159.39842486 128.23153342 -163.53511194 128.23754081 -167.67183113 128.24014091 C-169.2535539 128.24199491 -170.83527557 128.24561503 -172.41699028 128.25099373 C-174.62485924 128.25820607 -176.83264859 128.25925453 -179.04052734 128.25878906 C-180.29961411 128.26100967 -181.55870087 128.26323029 -182.85594177 128.26551819 C-185.67163086 128.14526367 -185.67163086 128.14526367 -186.67163086 127.14526367 C-186.71226918 125.47909252 -186.71435186 123.81138272 -186.67163086 122.14526367 C-184.34082638 120.97986143 -182.83910133 120.97666198 -180.24194336 120.89916992 C-179.3640918 120.86629883 -178.48624023 120.83342773 -177.58178711 120.79956055 C-175.73294531 120.73862397 -173.8839807 120.68130069 -172.03491211 120.62768555 C-171.15448242 120.59352539 -170.27405273 120.55936523 -169.36694336 120.52416992 C-168.56272949 120.49911377 -167.75851563 120.47405762 -166.92993164 120.44824219 C-164.27255749 120.21598501 -164.27255749 120.21598501 -160.67163086 118.14526367 C-160.67163086 82.50526367 -160.67163086 46.86526367 -160.67163086 10.14526367 C-171.79660714 7.92026842 -185.9120131 7.64474733 -196.17163086 12.95776367 C-204.21374563 19.9946141 -204.82672429 32.13978316 -205.55834961 42.19604492 C-205.59573242 42.83928711 -205.63311523 43.4825293 -205.67163086 44.14526367 C-207.32777743 44.52745134 -208.9962011 44.85921469 -210.67163086 45.14526367 C-212.36107851 43.45581603 -211.82067385 41.37822947 -211.82397461 39.06323242 C-211.76566753 32.15946979 -211.1635908 25.34062769 -210.44482422 18.47753906 C-210.23048909 16.4228525 -210.02766363 14.3672375 -209.82592773 12.3112793 C-208.80300285 2.27663566 -208.80300285 2.27663566 -207.67163086 1.14526367 C-206.19379285 1.04741593 -204.71129818 1.01894602 -203.23022461 1.01828003 C-202.27108154 1.01546021 -201.31193848 1.01264038 -200.32373047 1.00973511 C-199.2629126 1.01175934 -198.20209473 1.01378357 -197.10913086 1.01586914 C-195.99868408 1.01411682 -194.8882373 1.0123645 -193.74414062 1.01055908 C-190.0532884 1.00613795 -186.36248362 1.00907948 -182.67163086 1.01245117 C-180.11954743 1.01177821 -177.56746407 1.01080825 -175.01538086 1.009552 C-169.65860324 1.00807467 -164.30184281 1.01013611 -158.94506836 1.01489258 C-152.74379371 1.02033517 -146.54255193 1.0185725 -140.34127808 1.01306617 C-134.3862887 1.0079893 -128.43130959 1.0085166 -122.47631836 1.01144791 C-119.93725581 1.01211744 -117.39819243 1.01128785 -114.85913086 1.00896835 C-111.31744122 1.00644337 -107.77581569 1.01028025 -104.23413086 1.01586914 C-103.17331299 1.01384491 -102.11249512 1.01182068 -101.01953125 1.00973511 C-100.06038818 1.01255493 -99.10124512 1.01537476 -98.11303711 1.01828003 C-97.27458252 1.01865705 -96.43612793 1.01903408 -95.57226562 1.01942253 C-93.67163086 1.14526367 -93.67163086 1.14526367 -92.67163086 2.14526367 C-92.38097077 4.759112 -92.1481005 7.35584012 -91.95288086 9.97729492 C-91.85867859 11.15952888 -91.85867859 11.15952888 -91.76257324 12.36564636 C-91.56128437 14.89603457 -91.36593058 17.42682985 -91.17163086 19.95776367 C-90.97693847 22.47794846 -90.78088642 24.99799227 -90.58068848 27.51774597 C-90.45603088 29.08789 -90.33457237 30.65829205 -90.2166748 32.22895813 C-89.94412325 35.67296816 -89.512952 38.77997909 -88.67163086 42.14526367 C-60.62163086 42.47526367 -32.57163086 42.80526367 -3.67163086 43.14526367 C-2.42375007 47.51284644 -1.41446328 51.06822304 -0.85522461 55.43823242 C-0.73115234 56.3932666 -0.60708008 57.34830078 -0.47924805 58.33227539 C-0.29604004 59.81751709 -0.29604004 59.81751709 -0.10913086 61.33276367 C0.01945313 62.35128418 0.14803711 63.36980469 0.28051758 64.41918945 C2.29131706 80.60638374 2.29131706 80.60638374 2.32836914 85.14526367 C1.32836914 86.14526367 1.32836914 86.14526367 -1.23413086 86.20776367 C-2.03850586 86.18713867 -2.84288086 86.16651367 -3.67163086 86.14526367 C-3.80118164 84.96383789 -3.80118164 84.96383789 -3.93334961 83.75854492 C-5.14034794 74.40153954 -6.7105374 63.34851922 -13.85913086 56.52026367 C-21.16454367 51.49788133 -29.41935614 50.70122649 -38.05444336 50.85229492 C-39.30729126 50.85682678 -39.30729126 50.85682678 -40.58544922 50.8614502 C-43.65597182 50.87694942 -46.72631597 50.9188306 -49.79663086 50.95776367 C-60.12975586 51.05057617 -60.12975586 51.05057617 -70.67163086 51.14526367 C-71.00163086 67.64526367 -71.33163086 84.14526367 -71.67163086 101.14526367 C-70.68163086 100.81526367 -69.69163086 100.48526367 -68.67163086 100.14526367 C-66.14381041 100.12517883 -63.63496509 100.15064975 -61.10913086 100.20776367 C-50.22363611 100.56606461 -50.22363611 100.56606461 -40.48022461 96.51635742 C-38.07561946 93.36388371 -37.89416152 90.87538335 -37.48413086 86.95776367 C-36.7410753 80.21470812 -36.7410753 80.21470812 -35.67163086 79.14526367 C-34.02163086 79.14526367 -32.37163086 79.14526367 -30.67163086 79.14526367 C-30.67163086 95.64526367 -30.67163086 112.14526367 -30.67163086 129.14526367 C-32.32163086 129.14526367 -33.97163086 129.14526367 -35.67163086 129.14526367 C-37.48621016 127.33068437 -37.14640359 124.35029091 -37.42163086 121.89526367 C-38.04253508 117.84608114 -38.47790214 115.45401881 -40.67163086 111.95776367 C-47.94214991 107.56515841 -56.0723555 107.94719332 -64.31347656 108.13037109 C-69.48456978 108.23879421 -69.48456978 108.23879421 -71.67163086 107.14526367 C-71.6969457 114.49592353 -71.71448287 121.84657218 -71.7265625 129.19726562 C-71.73159727 131.6988975 -71.73842547 134.20052643 -71.74707031 136.70214844 C-71.75917324 140.29387133 -71.76486768 143.88555539 -71.76928711 147.47729492 C-71.77702904 149.16022392 -71.77702904 149.16022392 -71.78492737 150.87715149 C-71.7850029 151.918004 -71.78507843 152.95885651 -71.78515625 154.03125 C-71.78737686 154.94836258 -71.78959747 155.86547516 -71.79188538 156.81037903 C-71.76774444 159.30194532 -71.76774444 159.30194532 -70.67163086 162.14526367 C-67.46257649 163.74979085 -63.96439036 163.35092909 -60.43725586 163.38354492 C-59.19283722 163.39565254 -59.19283722 163.39565254 -57.92327881 163.40800476 C-56.15793958 163.42186008 -54.3925734 163.43257574 -52.62719727 163.44042969 C-50.8448893 163.45184855 -49.06261271 163.47213623 -47.28051758 163.50195312 C-28.11986885 163.85331007 -28.11986885 163.85331007 -11.04663086 155.95776367 C-3.73371925 148.56705513 -2.08905295 137.90496242 0.32836914 128.14526367 C-2.31163086 128.14526367 -4.95163086 128.14526367 -7.67163086 128.14526367 C-7.67163086 125.83526367 -7.67163086 123.52526367 -7.67163086 121.14526367 C-6.18663086 121.01571289 -6.18663086 121.01571289 -4.67163086 120.88354492 C5.24216518 119.88789646 12.1039664 118.30996792 18.64086914 110.39526367 C22.88175481 104.59906457 26.68343696 98.49055822 30.55102539 92.44213867 C33.00426484 88.62089343 35.54166912 84.86836671 38.14086914 81.14526367 C38.85629883 80.11530273 39.57172852 79.0853418 40.30883789 78.02416992 C41.61063836 76.1684118 42.92487576 74.32128596 44.25415039 72.48510742 C45.09526367 71.29594727 45.09526367 71.29594727 45.95336914 70.08276367 C46.44063477 69.41116211 46.92790039 68.73956055 47.42993164 68.04760742 C48.60233668 65.56516718 48.19945767 64.71888133 47.32836914 62.14526367 C46.10327443 59.97261438 46.10327443 59.97261438 44.55493164 57.75854492 C43.98291016 56.91106689 43.41088867 56.06358887 42.8215332 55.19042969 C42.20503906 54.2886499 41.58854492 53.38687012 40.95336914 52.45776367 C39.66846308 50.55743282 38.38462189 48.65638155 37.10180664 46.75463867 C36.46210938 45.80782227 35.82241211 44.86100586 35.16333008 43.88549805 C33.04147837 40.71683604 30.97230005 37.51776087 28.91894531 34.30444336 C27.16964222 31.56850911 25.39785206 28.84764318 23.62084961 26.12963867 C22.74652912 24.78727431 21.87852358 23.44077908 21.01635742 22.09057617 C19.74715324 20.11362851 18.44855627 18.15940302 17.14086914 16.20776367 C16.58931152 15.32906616 16.58931152 15.32906616 16.02661133 14.43261719 C13.27054239 10.41485702 10.84473416 9.2691302 6.25244141 8.41308594 C5.61749756 8.32470459 4.98255371 8.23632324 4.32836914 8.14526367 C2.98452148 7.95770508 2.98452148 7.95770508 1.61352539 7.76635742 C0.88004883 7.70577148 0.14657227 7.64518555 -0.60913086 7.58276367 C-4.56676195 7.25013259 -4.56676195 7.25013259 -5.67163086 6.14526367 C-5.79663086 3.64526367 -5.79663086 3.64526367 -5.67163086 1.14526367 C-4.0471131 -0.47925409 -2.24322982 0.00971684 0 0 Z " fill="#FFFFFF" transform="translate(359.671630859375,156.854736328125)"/>
<path d="M0 0 C1.17792114 -0.00315216 2.35584229 -0.00630432 3.56945801 -0.009552 C4.85171265 -0.00752777 6.13396729 -0.00550354 7.45507812 -0.00341797 C8.76085815 -0.00437469 10.06663818 -0.00533142 11.4119873 -0.00631714 C14.17945535 -0.0077938 16.94689116 -0.00564058 19.71435547 -0.00097656 C23.26895462 0.00472073 26.82347827 0.00144155 30.37807465 -0.00454903 C33.75791526 -0.00902294 37.13773536 -0.00589433 40.51757812 -0.00341797 C41.79983276 -0.0054422 43.0820874 -0.00746643 44.40319824 -0.009552 C46.17007996 -0.00482376 46.17007996 -0.00482376 47.97265625 0 C49.0155481 0.00079559 50.05843994 0.00159119 51.13293457 0.00241089 C53.48632812 0.12939453 53.48632812 0.12939453 54.48632812 1.12939453 C54.52713595 3.12897817 54.52887169 5.12984707 54.48632812 7.12939453 C52.85824219 7.20287109 52.85824219 7.20287109 51.19726562 7.27783203 C49.75193028 7.35291439 48.30661894 7.42845981 46.86132812 7.50439453 C46.14847656 7.53533203 45.435625 7.56626953 44.70117188 7.59814453 C37.54594911 7.8536853 37.54594911 7.8536853 31.48632812 11.12939453 C31.39078414 12.55885924 31.36444374 13.99302118 31.36607361 15.42567444 C31.36469894 16.35260605 31.36332428 17.27953766 31.36190796 18.23455811 C31.36550323 19.25954407 31.36909851 20.28453003 31.37280273 21.34057617 C31.37265671 22.41361496 31.37251068 23.48665375 31.37236023 24.59220886 C31.37305989 28.15800969 31.38085474 31.72375902 31.38867188 35.28955078 C31.39053587 37.75434846 31.39195986 40.21914652 31.39295959 42.6839447 C31.39678626 49.18593358 31.4066178 55.68790028 31.41766357 62.18988037 C31.42841065 68.8188027 31.43245653 75.44773146 31.4375 82.07666016 C31.44823994 95.09424777 31.46512716 108.11181997 31.48632812 121.12939453 C36.12770491 121.0847844 40.76777965 121.01448785 45.40844727 120.921875 C46.98223421 120.89390657 48.55615534 120.87257391 50.13012695 120.85839844 C65.35561045 120.9190728 65.35561045 120.9190728 78.64306641 114.28100586 C86.93015743 105.72237456 89.24811788 94.45725592 90.24023438 82.97705078 C90.48632812 81.12939453 90.48632812 81.12939453 91.48632812 79.12939453 C93.13632813 79.12939453 94.78632812 79.12939453 96.48632812 79.12939453 C97.6509762 82.62333876 97.3772343 84.76722393 96.99804688 88.42236328 C96.86849609 89.69402344 96.73894531 90.96568359 96.60546875 92.27587891 C96.46159477 93.62288478 96.31771455 94.96988999 96.17382812 96.31689453 C96.04298828 97.60015625 95.91214844 98.88341797 95.77734375 100.20556641 C94.81122589 109.53537124 93.65047611 118.81621066 92.48632812 128.12939453 C59.81632812 128.12939453 27.14632812 128.12939453 -6.51367188 128.12939453 C-6.51367188 126.14939453 -6.51367188 124.16939453 -6.51367188 122.12939453 C-1.99801865 121.1423665 2.45899246 120.75934148 7.06054688 120.41064453 C9.49248971 120.26849127 9.49248971 120.26849127 11.48632812 119.12939453 C11.48632812 83.15939453 11.48632812 47.18939453 11.48632812 10.12939453 C7.03627346 8.34937267 4.33250529 7.7867386 -0.32617188 7.50439453 C-1.48761719 7.42962891 -2.6490625 7.35486328 -3.84570312 7.27783203 C-4.72613281 7.22884766 -5.6065625 7.17986328 -6.51367188 7.12939453 C-6.55621544 5.12984707 -6.5544797 3.12897817 -6.51367188 1.12939453 C-4.770678 -0.61359934 -2.36960935 0.00180771 0 0 Z " fill="#FFFFFF" transform="translate(22.513671875,156.87060546875)"/>
<path d="M0 0 C2.3125 0.1875 2.3125 0.1875 5 1 C7.46562517 4.52266293 8.98322191 8.24179491 10.49609375 12.25 C10.97102513 13.49633923 11.44596019 14.74267706 11.92089844 15.98901367 C12.16771362 16.64211517 12.41452881 17.29521667 12.66882324 17.96810913 C17.47485269 30.67218435 22.52203233 43.25827958 27.75488281 55.79199219 C31.1479492 63.92135484 34.46314908 72.07680941 37.67871094 80.27807617 C38.89393751 83.90691936 38.89393751 83.90691936 41 87 C42.68183948 87.23287008 44.3712416 87.41264166 46.0625 87.5625 C47.44115234 87.68818359 47.44115234 87.68818359 48.84765625 87.81640625 C49.55792969 87.87699219 50.26820313 87.93757813 51 88 C51.38218767 89.65614657 51.71395102 91.32457024 52 93 C51 94 51 94 47.48999023 94.11352539 C45.92951578 94.11336626 44.36903607 94.10767142 42.80859375 94.09765625 C41.98875504 94.0962413 41.16891632 94.09482635 40.32423401 94.09336853 C37.69528618 94.08775289 35.06642227 94.07519779 32.4375 94.0625 C30.65950643 94.05748701 28.88151154 94.05292376 27.10351562 94.04882812 C22.73564455 94.03777839 18.36783652 94.02050331 14 94 C14 92.02 14 90.04 14 88 C18.455 87.505 18.455 87.505 23 87 C24.1817019 83.4548943 23.7911988 82.85982494 22.34765625 79.55078125 C22.02031494 78.78677002 21.69297363 78.02275879 21.35571289 77.2355957 C20.71557251 75.78866333 20.71557251 75.78866333 20.0625 74.3125 C18.0515625 69.7028125 18.0515625 69.7028125 16 65 C4.12 64.67 -7.76 64.34 -20 64 C-20.99 67.3 -21.98 70.6 -23 74 C-24.75 78.875 -24.75 78.875 -25.546875 80.9921875 C-26.07422306 83.32888495 -25.74675717 84.74963718 -25 87 C-22.36 87.33 -19.72 87.66 -17 88 C-17 89.98 -17 91.96 -17 94 C-26.9 94 -36.8 94 -47 94 C-48 91 -48 91 -47 88 C-46.33613281 87.9484375 -45.67226562 87.896875 -44.98828125 87.84375 C-44.10527344 87.7303125 -43.22226563 87.616875 -42.3125 87.5 C-41.44238281 87.4071875 -40.57226562 87.314375 -39.67578125 87.21875 C-32.65994905 84.02321767 -30.2736433 74.17259556 -27.75 67.4375 C-26.96108228 65.37885076 -26.17201571 63.32025856 -25.3828125 61.26171875 C-24.98610352 60.21806152 -24.58939453 59.1744043 -24.18066406 58.09912109 C-18.98588858 44.46337254 -13.59501155 30.90236212 -8.125 17.375 C-7.42818115 15.64008301 -7.42818115 15.64008301 -6.71728516 13.87011719 C-6.27690918 12.78633789 -5.8365332 11.70255859 -5.3828125 10.5859375 C-4.80104248 9.14806885 -4.80104248 9.14806885 -4.20751953 7.68115234 C-2.98943345 4.97653825 -1.57655565 2.50984013 0 0 Z M-2 19 C-2.24492188 19.66 -2.48984375 20.32 -2.7421875 21 C-6.17015889 30.07821388 -9.90404592 39.0159517 -13.69677734 47.94726562 C-14.12297363 48.95853516 -14.54916992 49.96980469 -14.98828125 51.01171875 C-15.37540283 51.92397217 -15.76252441 52.83622559 -16.16137695 53.77612305 C-17.11761506 55.91576972 -17.11761506 55.91576972 -17 58 C-6.77 58 3.46 58 14 58 C12.4325 53.895625 10.865 49.79125 9.25 45.5625 C8.7643457 44.28705322 8.27869141 43.01160645 7.77832031 41.69750977 C4.81906883 33.97733071 1.73116847 26.38126919 -2 19 Z " fill="#FFFFFF" transform="translate(110,154)"/>
</svg>
