<?xml version="1.0" standalone="no"?>
<!DOCTYPE svg PUBLIC "-//W3C//DTD SVG 20010904//EN"
 "http://www.w3.org/TR/2001/REC-SVG-20010904/DTD/svg10.dtd">
<svg version="1.0" xmlns="http://www.w3.org/2000/svg"
 width="2500.000000pt" height="2500.000000pt" viewBox="0 0 2500.000000 2500.000000"
 preserveAspectRatio="xMidYMid meet">

<g transform="translate(0.000000,2500.000000) scale(0.100000,-0.100000)"
fill="#000000" stroke="none">
<path d="M11570 23073 c-58 -36 -208 -128 -335 -205 -126 -77 -232 -142 -234
-144 -2 -1 13 -29 32 -61 49 -80 158 -300 200 -403 150 -367 223 -679 248
-1050 37 -573 -82 -1123 -351 -1610 -254 -462 -640 -867 -1135 -1193 -130 -85
-265 -162 -360 -206 -361 -168 -839 -287 -1470 -365 -385 -49 -758 -77 -1810
-141 -279 -17 -523 -32 -615 -40 -36 -3 -128 -9 -205 -15 -188 -14 -360 -28
-540 -46 -82 -8 -177 -17 -210 -19 -33 -3 -71 -8 -85 -10 -14 -2 -54 -7 -90
-10 -109 -10 -451 -54 -669 -86 -335 -49 -292 -41 -658 -109 -170 -31 -334
-65 -523 -109 -269 -63 -434 -106 -685 -178 -650 -187 -1303 -443 -1877 -736
l-198 -101 1 -3656 c1 -3109 3 -3646 15 -3593 75 344 294 636 634 846 211 130
529 242 925 326 295 63 802 141 1440 221 284 36 473 61 646 86 l46 6 80 -128
c44 -71 143 -232 220 -359 77 -126 220 -360 318 -520 98 -159 239 -391 315
-515 75 -124 242 -396 370 -605 230 -374 335 -547 722 -1180 107 -176 226
-369 263 -430 38 -60 123 -200 190 -310 157 -258 406 -664 630 -1030 98 -159
190 -310 205 -335 15 -25 107 -175 205 -335 180 -295 358 -585 682 -1115 99
-162 285 -466 413 -675 128 -209 270 -441 315 -515 45 -74 187 -306 315 -515
128 -209 320 -522 425 -695 106 -173 273 -445 370 -605 98 -159 221 -361 274
-447 l96 -158 4098 0 c2253 0 4097 2 4097 5 0 3 -56 96 -124 207 -234 385
-533 873 -614 1006 -45 73 -82 135 -82 138 0 3 -22 40 -49 82 -27 42 -131 212
-231 377 -173 283 -247 405 -577 940 -74 121 -215 351 -312 510 -452 738 -602
984 -716 1170 -67 110 -220 360 -340 555 -120 195 -286 468 -370 605 -84 138
-250 410 -370 605 -120 195 -286 468 -370 605 -84 138 -250 410 -370 605 -120
195 -280 456 -355 580 -75 124 -166 272 -202 330 -66 106 -142 231 -471 770
-237 389 -383 624 -425 685 -308 440 -648 717 -1027 834 -324 101 -717 100
-1180 -4 -225 -51 -391 -101 -1040 -315 -478 -158 -638 -208 -855 -264 -732
-192 -1339 -214 -1920 -70 -338 84 -724 259 -1050 477 -119 80 -300 216 -300
226 0 5 19 12 43 16 109 18 568 112 682 140 11 2 88 20 170 40 83 19 166 40
185 45 19 5 96 26 170 46 620 165 1241 383 1815 637 190 84 598 282 750 364
190 103 251 137 287 160 21 12 40 23 43 23 12 0 403 242 530 328 429 290 762
567 1161 966 301 301 498 526 740 846 189 250 393 559 539 815 37 66 78 138
90 160 94 165 278 557 368 780 164 409 255 711 377 1245 42 186 99 598 115
835 4 50 9 97 12 105 9 26 11 751 3 870 -22 290 -24 315 -51 530 -23 173 -59
394 -91 545 -11 55 -24 118 -29 140 -15 76 -91 370 -120 470 -57 192 -91 300
-104 340 -54 156 -108 305 -120 335 -7 19 -31 78 -51 130 -137 353 -357 814
-554 1165 -133 238 -233 405 -240 404 -3 0 -52 -30 -110 -66z"/>
</g>
</svg>
