<?xml version="1.0" encoding="UTF-8"?>
<svg version="1.1" xmlns="http://www.w3.org/2000/svg" width="1280" height="1262">
<path d="M0 0 C4.16377743 4.59083153 4.95802776 8.98734834 5 15 C4.475187 18.44655695 3.52584798 21.71278859 2.51953125 25.046875 C2.2399054 26.02177887 1.96027954 26.99668274 1.67218018 28.00112915 C0.73455232 31.25549797 -0.226477 34.50246996 -1.1875 37.75 C-1.8648673 40.08371093 -2.54068981 42.4178707 -3.21508789 44.75244141 C-4.67918029 49.81000758 -6.1530532 54.86457148 -7.63476562 59.91699219 C-9.86540268 67.52551199 -12.0699792 75.14143402 -14.26867485 82.75923729 C-19.0800986 99.42902539 -23.91817809 116.09100607 -28.76409912 132.75079346 C-29.99370308 136.97810961 -31.22273805 141.20559105 -32.45166016 145.43310547 C-36.96435783 160.95639812 -41.48016208 176.47878466 -46 192 C-45.25246995 191.81917972 -44.5049399 191.63835943 -43.73475742 191.45205975 C-34.7188631 189.31637246 -25.65743853 187.57209678 -16.54467773 185.91918945 C-14.92187034 185.62252088 -13.29911135 185.32558741 -11.67639637 185.02841377 C-7.27104789 184.22242926 -2.86502618 183.42018199 1.54112339 182.61859012 C6.26156822 181.75911642 10.98135826 180.89606087 15.70123291 180.03346252 C26.93398912 177.98132697 38.16772847 175.93460245 49.4015584 173.8883543 C54.66030979 172.93032502 59.91894745 171.97167201 65.17758179 171.01300049 C66.74376201 170.72748573 66.74376201 170.72748573 68.34158224 170.436203 C70.45483365 170.05095494 72.56808453 169.66570389 74.68133485 169.28044987 C79.98206398 168.31410761 85.28279913 167.34779837 90.58354187 166.38153076 C91.63411776 166.19002001 92.68469364 165.99850925 93.76710516 165.80119514 C100.15451652 164.63688975 106.54202109 163.47309708 112.92958719 162.30964088 C137.62841948 157.81070201 162.32353097 153.29236201 187.0127092 148.74074048 C197.01284798 146.89743312 207.01436257 145.06161502 217.01604366 143.22669697 C224.77217134 141.80335241 232.52697484 140.37315962 240.2802211 138.93420118 C246.1208617 137.85092034 251.9636443 136.77953958 257.80730438 135.71265984 C260.15271894 135.28246182 262.49741717 134.84833505 264.84128571 134.40979195 C296.71715076 128.45053786 296.71715076 128.45053786 308 135 C315.64901509 140.31929747 320.47688035 147.04125799 323 156 C323.30078125 159.11328125 323.30078125 159.11328125 323.3125 162.3125 C323.32925781 163.36050781 323.34601563 164.40851563 323.36328125 165.48828125 C322.47435561 174.08122908 318.55288272 181.02426892 314.25 188.375 C313.07572931 190.41603787 311.9025987 192.45773199 310.73046875 194.5 C310.11864746 195.5621875 309.50682617 196.624375 308.87646484 197.71875 C305.71835037 203.24113597 302.64263674 208.80886458 299.5625 214.375 C292.98521409 226.23725804 286.36781206 238.07657043 279.73388672 249.90722656 C276.8206086 255.10370745 273.91047173 260.30194696 271 265.5 C269.8333482 267.58334166 268.66668154 269.66667499 267.5 271.75 C266.9225 272.78125 266.345 273.8125 265.75 274.875 C260.50000001 284.24999998 260.50000001 284.24999998 258.75024414 287.37451172 C257.58270421 289.45943936 256.41522381 291.54440034 255.24780273 293.62939453 C252.34498248 298.81360899 249.44115533 303.99725417 246.53515625 309.1796875 C240.47939914 319.98203312 234.44391126 330.79513013 228.4375 341.625 C223.30621402 350.87593606 218.1288365 360.09905816 212.91162109 369.30175781 C208.11250644 377.77731882 203.3824394 386.29050355 198.65844727 394.80810547 C192.71367618 405.52472941 186.72776111 416.21800966 180.73388672 426.90722656 C177.82060861 432.10370742 174.91043473 437.30192626 172 442.5 C168.51323215 448.72741207 165.02587556 454.95448933 161.53515625 461.1796875 C155.47939914 471.98203312 149.44391126 482.79513013 143.4375 493.625 C138.30621402 502.87593606 133.1288365 512.09905816 127.91162109 521.30175781 C123.11250644 529.77731882 118.3824394 538.29050355 113.65844727 546.80810547 C107.71367618 557.52472941 101.72776111 568.21800966 95.73388672 578.90722656 C92.82060861 584.10370742 89.91043473 589.30192626 87 594.5 C83.51323215 600.72741207 80.02587556 606.95448933 76.53515625 613.1796875 C70.47939914 623.98203312 64.44391126 634.79513013 58.4375 645.625 C53.30621402 654.87593606 48.1288365 664.09905816 42.91162109 673.30175781 C38.11250644 681.77731882 33.3824394 690.29050355 28.65844727 698.80810547 C22.71367618 709.52472941 16.72776111 720.21800966 10.73388672 730.90722656 C7.82060861 736.10370742 4.91043473 741.30192626 2 746.5 C-1.48676785 752.72741207 -4.97412444 758.95448933 -8.46484375 765.1796875 C-14.52060086 775.98203312 -20.55608874 786.79513013 -26.5625 797.625 C-31.69378598 806.87593606 -36.8711635 816.09905816 -42.08837891 825.30175781 C-46.88749356 833.77731882 -51.6175606 842.29050355 -56.34155273 850.80810547 C-62.28632382 861.52472941 -68.27223889 872.21800966 -74.26611328 882.90722656 C-77.17939139 888.10370742 -80.08956527 893.30192626 -83 898.5 C-86.48676785 904.72741207 -89.97412444 910.95448933 -93.46484375 917.1796875 C-99.52060086 927.98203312 -105.55608874 938.79513013 -111.5625 949.625 C-116.69378598 958.87593606 -121.8711635 968.09905816 -127.08837891 977.30175781 C-131.88749356 985.77731882 -136.6175606 994.29050355 -141.34155273 1002.80810547 C-147.28632382 1013.52472941 -153.27223889 1024.21800966 -159.26611328 1034.90722656 C-162.17939139 1040.10370742 -165.08956527 1045.30192626 -168 1050.5 C-171.48676785 1056.72741207 -174.97412444 1062.95448933 -178.46484375 1069.1796875 C-184.52060086 1079.98203312 -190.55608874 1090.79513013 -196.5625 1101.625 C-201.69378598 1110.87593606 -206.8711635 1120.09905816 -212.08837891 1129.30175781 C-216.24271006 1136.63858754 -220.34770454 1144.00202513 -224.4375 1151.375 C-231.0557204 1163.30346518 -237.67969273 1175.22825487 -244.37744141 1187.11230469 C-245.95275652 1189.91591997 -247.51386724 1192.72710023 -249.07421875 1195.5390625 C-250.02790735 1197.23479054 -250.98229303 1198.9301268 -251.9375 1200.625 C-252.34967773 1201.37652344 -252.76185547 1202.12804688 -253.18652344 1202.90234375 C-258.40826662 1212.07919041 -264.9980772 1217.66602573 -275 1221 C-286.50157048 1221.78830989 -294.93696504 1221.27540813 -304.1875 1213.8125 C-311.63250071 1206.75615489 -316.13816454 1197.34573648 -321 1188.4375 C-322.32970863 1186.01752328 -323.66380859 1183.59999643 -325 1181.18359375 C-325.50333862 1180.27327896 -325.50333862 1180.27327896 -326.0168457 1179.34457397 C-329.25367955 1173.50953383 -332.61388099 1167.749549 -336 1162 C-340.96121787 1153.56803182 -345.77365139 1145.0657835 -350.5 1136.5 C-355.80206842 1126.89183937 -361.23960957 1117.37820912 -366.80078125 1107.91796875 C-370.95900268 1100.82838852 -375.0036613 1093.68193905 -379 1086.5 C-383.575664 1078.2779741 -388.23570748 1070.1141857 -393 1062 C-398.37279449 1052.84945939 -403.5927244 1043.62331625 -408.75219727 1034.35107422 C-412.72815635 1027.22371733 -416.80163998 1020.16060908 -420.9375 1013.125 C-426.57899163 1003.52434496 -432.01212614 993.82047748 -437.39208984 984.07128906 C-442.07243587 975.61248188 -446.90186334 967.2516336 -451.80078125 958.91796875 C-456.56693713 950.79188766 -461.17197811 942.58240211 -465.75244141 934.35058594 C-469.72836053 927.2234156 -473.80173218 920.16045222 -477.9375 913.125 C-483.57899163 903.52434496 -489.01212614 893.82047748 -494.39208984 884.07128906 C-499.07243587 875.61248188 -503.90186334 867.2516336 -508.80078125 858.91796875 C-512.95900268 851.82838852 -517.0036613 844.68193905 -521 837.5 C-525.57566642 829.27796975 -530.23587865 821.1142887 -535 813 C-540.31839275 803.93815741 -545.49871109 794.80807301 -550.61376953 785.63012695 C-554.987516 777.78903143 -559.41487167 769.97969078 -563.875 762.1875 C-564.20836365 761.60504517 -564.54172729 761.02259033 -564.88519287 760.42248535 C-566.57873714 757.46406468 -568.27307826 754.50610134 -569.96777344 751.54833984 C-572.98368289 746.28378943 -575.99260211 741.015245 -579.00201416 735.74697876 C-580.66771971 732.83115361 -582.33388314 729.91559013 -584 727 C-584.66666886 725.83333459 -585.33333552 724.66666792 -586 723.5 C-586.33 722.9225 -586.66 722.345 -587 721.75 C-590.00000002 716.49999997 -590.00000002 716.49999997 -590.99996948 714.75004578 C-591.66672911 713.58322151 -592.3334975 712.41640226 -593.00027466 711.24958801 C-594.66559088 708.33537354 -596.33075537 705.42107258 -597.99560547 702.5065918 C-601.01154606 697.22724336 -604.02862341 691.94856056 -607.05130005 686.67306519 C-608.7432784 683.71996984 -610.43437464 680.76637011 -612.125 677.8125 C-612.45755798 677.23149536 -612.79011597 676.65049072 -613.13275146 676.05187988 C-617.84669898 667.81214849 -622.50367995 659.54203158 -627.125 651.25 C-632.22214598 642.10554429 -637.44998746 633.04640908 -642.75048828 624.01855469 C-647.52923087 615.85881504 -652.15176686 607.61791893 -656.75 599.35546875 C-660.74964452 592.18646305 -664.84348044 585.07907237 -669 578 C-674.37279449 568.84945939 -679.5927244 559.62331625 -684.75219727 550.35107422 C-688.72815635 543.22371733 -692.80163998 536.16060908 -696.9375 529.125 C-702.57899163 519.52434496 -708.01212614 509.82047748 -713.39208984 500.07128906 C-718.07243587 491.61248188 -722.90186334 483.2516336 -727.80078125 474.91796875 C-732.56693713 466.79188766 -737.17197811 458.58240211 -741.75244141 450.35058594 C-745.72836053 443.2234156 -749.80173218 436.16045222 -753.9375 429.125 C-759.57899163 419.52434496 -765.01212614 409.82047748 -770.39208984 400.07128906 C-775.07243587 391.61248188 -779.90186334 383.2516336 -784.80078125 374.91796875 C-788.95900268 367.82838852 -793.0036613 360.68193905 -797 353.5 C-801.57566642 345.27796975 -806.23587865 337.1142887 -811 329 C-816.31839275 319.93815741 -821.49871109 310.80807301 -826.61376953 301.63012695 C-830.987516 293.78903143 -835.41487167 285.97969078 -839.875 278.1875 C-840.20836365 277.60504517 -840.54172729 277.02259033 -840.88519287 276.42248535 C-842.57873714 273.46406468 -844.27307826 270.50610134 -845.96777344 267.54833984 C-848.98368289 262.28378943 -851.99260211 257.015245 -855.00201416 251.74697876 C-856.66771971 248.83115361 -858.33388314 245.91559013 -860 243 C-860.66666886 241.83333459 -861.33333552 240.66666792 -862 239.5 C-862.33 238.9225 -862.66 238.345 -863 237.75 C-866 232.5 -866 232.5 -866.99981689 230.75028992 C-867.66705886 229.58263683 -868.33433593 228.4150038 -869.00164795 227.24739075 C-870.65979996 224.34597849 -872.31722202 221.44415513 -873.97363281 218.54174805 C-877.0746282 213.10965166 -880.18082851 207.68082695 -883.30749512 202.26345825 C-884.77201027 199.72518189 -886.23328926 197.18504943 -887.69433594 194.64477539 C-888.38673752 193.44300067 -889.08069551 192.24212105 -889.77636719 191.04223633 C-903.40758658 167.5280491 -903.40758658 167.5280491 -899.875 154.125 C-896.67990991 144.34653823 -891.02669222 138.03271032 -882.203125 132.96875 C-869.28345513 127.00582545 -851.78146057 132.49052184 -838.5546875 134.9140625 C-836.13004717 135.34889893 -833.70520983 135.782638 -831.28019714 136.21539307 C-825.97056477 137.16539461 -820.66236046 138.12286676 -815.35525513 139.08685303 C-807.45210955 140.5222654 -799.54646491 141.94351859 -791.6401788 143.36151814 C-778.59254831 145.70185939 -765.54651655 148.05098956 -752.50129497 150.40471721 C-727.13550039 154.98109589 -701.76423043 159.52679467 -676.39243984 164.06979609 C-666.93136142 165.76389377 -657.4703386 167.45830204 -648.00931168 169.15268731 C-645.63407409 169.57806905 -643.25883503 170.00344259 -640.88359451 170.42880797 C-623.4132968 173.55748664 -605.9434902 176.68889448 -588.47412109 179.82275391 C-586.80527532 180.12212919 -586.80527532 180.12212919 -585.10271549 180.42755246 C-579.58806525 181.41684318 -574.07342288 182.40617776 -568.55878448 183.39553452 C-532.04211747 189.94680807 -495.52416376 196.49063076 -459 203 C-458.97557799 202.35039873 -458.95115599 201.70079746 -458.92599392 201.03151131 C-458.37441153 186.48878757 -457.72498969 171.95820304 -456.87890625 157.4296875 C-456.82715681 156.53461613 -456.77540737 155.63954475 -456.72208977 154.71735001 C-456.45004308 150.01470019 -456.1753282 145.31221589 -455.89819336 140.60986328 C-455.61443376 135.78574397 -455.34033957 130.96112259 -455.06820774 126.13633537 C-454.85470938 122.38189312 -454.6341798 118.62788751 -454.411726 114.87396622 C-454.3074401 113.09361058 -454.20577481 111.3130993 -454.10687447 109.53243637 C-453.96876635 107.05741584 -453.82066522 104.58318051 -453.67016602 102.10888672 C-453.63217392 101.38786774 -453.59418182 100.66684875 -453.55503845 99.92398071 C-453.16069325 93.739161 -452.57087315 87.65722639 -447.82080078 83.28320312 C-441.98993582 78.61278297 -435.01347245 77.74664745 -427.8671875 76.46875 C-426.27621693 76.163538 -424.68571577 75.85587109 -423.09564209 75.54602051 C-419.58478576 74.86705539 -416.07129814 74.20483679 -412.55499268 73.5546875 C-406.68947998 72.46954309 -400.8315335 71.34669088 -394.97412109 70.21875 C-388.31540123 68.93833924 -381.65614092 67.66099427 -374.99465942 66.39501953 C-355.14271478 62.6208906 -335.31151716 58.74575755 -315.484375 54.84375 C-313.86793274 54.52571041 -312.2514891 54.20767786 -310.6350441 53.88965225 C-304.03077156 52.59022607 -297.42655459 51.29051782 -290.82243538 49.99031258 C-272.95080262 46.47205279 -255.07652468 42.96730866 -237.20187616 39.46440744 C-234.63224575 38.96082643 -232.06262542 38.45719402 -229.49300766 37.95354843 C-188.42420221 29.90420193 -147.35220124 21.87119509 -106.27864003 13.84615374 C-104.31979749 13.46341283 -102.36096663 13.08061217 -100.40213585 12.69781113 C-94.18911637 11.48374909 -87.97592071 10.27060551 -81.76229858 9.05963135 C-71.40309093 7.03981599 -61.04529193 5.01412531 -50.6949234 2.94941902 C-46.38041243 2.08892203 -42.06503374 1.23282196 -37.74961853 0.37687302 C-34.81162222 -0.20807196 -31.8751192 -0.80012492 -28.93859863 -1.39242554 C-27.17724066 -1.74198042 -25.4158111 -2.09117478 -23.65429688 -2.43994141 C-22.87342209 -2.5998418 -22.0925473 -2.7597422 -21.28800964 -2.92448807 C-13.29165099 -4.49069298 -6.87245492 -4.79577832 0 0 Z " fill="#8C72FE" transform="translate(929,8)"/>
<path d="M0 0 C4.16377743 4.59083153 4.95802776 8.98734834 5 15 C4.475187 18.44655695 3.52584798 21.71278859 2.51953125 25.046875 C2.2399054 26.02177887 1.96027954 26.99668274 1.67218018 28.00112915 C0.73455232 31.25549797 -0.226477 34.50246996 -1.1875 37.75 C-1.8648673 40.08371093 -2.54068981 42.4178707 -3.21508789 44.75244141 C-4.67918029 49.81000758 -6.1530532 54.86457148 -7.63476562 59.91699219 C-10.07572794 68.24291417 -12.4846173 76.57798456 -14.890625 84.9140625 C-18.46597226 97.29580326 -22.05513385 109.67346357 -25.6544075 122.04826927 C-28.49562324 131.81702812 -31.32908774 141.58798366 -34.15440941 151.36135101 C-35.44133642 155.81151615 -36.73068525 160.26098016 -38.01980591 164.71051025 C-38.7075925 167.08647102 -39.3943623 169.4627264 -40.08004761 171.83929443 C-41.02052321 175.09813616 -41.96487644 178.35583037 -42.91015625 181.61328125 C-43.31658859 183.02709328 -43.31658859 183.02709328 -43.73123169 184.46946716 C-45.26889117 189.75148302 -47.03070403 194.86382107 -49 200 C-49.4537596 201.4209217 -49.88893675 202.84820962 -50.2890625 204.28515625 C-50.50369141 205.04699219 -50.71832031 205.80882812 -50.93945312 206.59375 C-51.16568359 207.4084375 -51.39191406 208.223125 -51.625 209.0625 C-52.14767105 210.9181848 -52.67116175 212.77363886 -53.1953125 214.62890625 C-53.48051758 215.63969238 -53.76572266 216.65047852 -54.05957031 217.69189453 C-55.65309743 223.29737024 -57.28471378 228.89177296 -58.91387939 234.48696899 C-63.48286828 250.17735097 -63.48286828 250.17735097 -67.95947266 265.89428711 C-69.0718029 269.83001264 -70.22359399 273.74327182 -71.4765625 277.63671875 C-76.05718394 291.59153476 -76.05718394 291.59153476 -73.3125 305.5625 C-70.34677286 308.68853671 -68.31996215 310.81666887 -63.85899353 311.16918945 C-57.93106037 311.18509398 -52.4781232 310.55873523 -46.69140625 309.3125 C-45.82367081 309.13447342 -44.95593536 308.95644684 -44.06190491 308.77302551 C-42.19782617 308.38980935 -40.33461582 308.00234845 -38.472229 307.61099243 C-33.45320624 306.55708503 -28.42743179 305.53624236 -23.40234375 304.51171875 C-22.37157715 304.30077072 -21.34081055 304.08982269 -20.27880859 303.8724823 C-9.75067785 301.72629133 0.80727143 299.75276039 11.375 297.8125 C14.91026306 297.16333942 18.44547239 296.51389281 21.98046875 295.86328125 C22.82707062 295.70751617 23.67367249 295.5517511 24.54592896 295.39126587 C30.13919135 294.35724859 35.7222743 293.27869285 41.30078125 292.16796875 C42.02366333 292.02470657 42.74654541 291.8814444 43.49133301 291.73384094 C46.81776121 291.07400214 50.14215682 290.40680564 53.46435547 289.72583008 C67.93759514 286.84111893 67.93759514 286.84111893 73.42578125 288.91796875 C80.49571042 293.67516747 80.49571042 293.67516747 82 298 C83.29483935 307.35046128 80.22430808 314.10219513 76.03103638 322.26745605 C75.3804437 323.57416249 74.73178643 324.881834 74.08488739 326.19037294 C72.3109707 329.76462242 70.51005919 333.3246495 68.7042551 336.88287067 C66.75760164 340.73058019 64.83651344 344.59102711 62.91221619 348.44995117 C59.14081125 356.00312276 55.34631135 363.54446151 51.54419215 371.08221 C47.10991692 379.87584019 42.70034131 388.68177458 38.29209875 397.48847586 C30.41781464 413.21785366 22.5236564 428.93716922 14.6171875 444.65039062 C6.96239847 459.86352062 -0.6821738 475.0817149 -8.31347656 490.30664062 C-8.78275483 491.2428726 -9.25203309 492.17910457 -9.73553191 493.14370722 C-11.62237531 496.90814383 -13.50915394 500.67261289 -15.39584493 504.43712589 C-29.89755227 533.37196674 -44.4090568 562.30192624 -58.95109367 591.21652222 C-60.46991722 594.2365472 -61.98796436 597.2569602 -63.50525475 600.27775574 C-76.47521934 626.09749439 -76.47521934 626.09749439 -81.8999176 636.28396606 C-89.23812564 650.08199973 -96.10952256 664.12462778 -103.07737696 678.11198354 C-105.23464457 682.44128683 -107.39439591 686.7693508 -109.5539093 691.09753418 C-112.80476242 697.61355867 -116.05484311 704.12996745 -119.30399477 710.64684053 C-125.68617874 723.44767373 -132.07344846 736.24596336 -138.46250916 749.04336548 C-139.47168576 751.06482875 -140.48085932 753.08629354 -141.49002987 755.10775983 C-143.01867689 758.1697789 -144.5473266 761.23179663 -146.07598801 764.29380851 C-151.82117799 775.80186483 -157.56579859 787.31020526 -163.30981445 798.81884766 C-163.83412807 799.86935195 -164.35844169 800.91985624 -164.89864361 802.002194 C-173.40640336 819.04864464 -181.9082634 836.09803205 -190.40834255 853.14831357 C-199.15553799 870.69384344 -207.91041008 888.23552806 -216.67204088 905.7738539 C-222.06587834 916.57147254 -227.45356356 927.37211551 -232.83327519 938.17677923 C-236.51931568 945.57849036 -240.2127123 952.97650058 -243.91184241 960.37167852 C-246.04264105 964.63206144 -248.1701961 968.89398148 -250.28890991 973.16038895 C-252.23251459 977.07401169 -254.1855039 980.98280529 -256.14571434 984.88813587 C-256.84893779 986.29317614 -257.54884759 987.6998815 -258.24488033 989.10849778 C-271.16915792 1015.246933 -271.16915792 1015.246933 -280.10546875 1018.54296875 C-284.42216285 1019.58431557 -287.31578107 1019.86156414 -291.3671875 1017.7890625 C-295.35204778 1015.28101945 -298.22580324 1013.46350448 -300 1009 C-300.97889806 999.71426486 -299.30063283 990.81217632 -297.35717773 981.76904297 C-297.07185782 980.39559143 -296.78768745 979.02190066 -296.50456238 977.647995 C-295.73874344 973.94777881 -294.95716923 970.25105459 -294.17264819 966.55476522 C-293.34421828 962.63739242 -292.53098866 958.71686482 -291.71607971 954.79666138 C-290.16574338 947.3496833 -288.6025152 939.90547576 -287.03431517 932.46224129 C-284.93260358 922.483907 -282.84884681 912.50183039 -280.76472676 902.51980996 C-280.254513 900.07619232 -279.74423292 897.63258854 -279.23390198 895.18899536 C-279.067485 894.39210017 -278.90106803 893.59520499 -278.72960812 892.77416146 C-277.61276277 887.42841866 -276.49097729 882.08372921 -275.36705017 876.73947144 C-271.93509816 860.40699933 -268.58003359 844.06173656 -265.33975124 827.69004631 C-263.80432272 819.94202763 -262.21347614 812.21073313 -260.5 804.5 C-258.2190658 794.19106589 -256.15665062 783.84388345 -254.11642456 773.48516846 C-251.88025283 762.14244624 -249.48218651 750.85468601 -246.77758789 739.61230469 C-244.20345996 729.19146308 -244.20345996 729.19146308 -246.5 719.0625 C-246.995 718.381875 -247.49 717.70125 -248 717 C-248 716.34 -248 715.68 -248 715 C-248.804375 714.690625 -249.60875 714.38125 -250.4375 714.0625 C-253 713 -253 713 -254 712 C-262.76466428 710.76554024 -270.48468943 713.40054247 -278.65722656 716.20410156 C-282.98182543 717.67327542 -287.33577048 719.05120968 -291.6875 720.4375 C-292.61264404 720.73382324 -293.53778809 721.03014648 -294.4909668 721.33544922 C-301.88071529 723.68652966 -309.31499726 725.84871517 -316.78540039 727.92797852 C-321.47571399 729.2416602 -326.04952121 730.69457287 -330.625 732.375 C-337.41426184 734.68334903 -343.83121457 735.49797129 -350.4375 732.375 C-356.62870206 726.63681273 -356.62870206 726.63681273 -357.28833008 721.95239258 C-357.46397972 712.17390833 -355.25967032 702.77918249 -353.3125 693.25 C-352.94158121 691.39589589 -352.57138718 689.54164665 -352.2019043 687.68725586 C-350.14421352 677.40796461 -348.00584412 667.14756208 -345.72167969 656.91601562 C-344.19660705 650.05190716 -342.86265719 643.15993348 -341.5625 636.25 C-339.6554949 626.13104364 -337.5023206 616.0860576 -335.23291016 606.04272461 C-333.30238376 597.46322724 -331.52232531 588.86195094 -329.83520508 580.23144531 C-328.80682238 574.98130302 -327.73672392 569.74655214 -326.578125 564.5234375 C-326.34552979 563.46084717 -326.11293457 562.39825684 -325.87329102 561.3034668 C-325.43350549 559.30525297 -324.98430393 557.30907465 -324.52319336 555.31567383 C-322.82274222 547.52542633 -321.22949353 538.88149496 -324.625 531.4375 C-327.75673152 528.22335449 -330.41397831 526.21612687 -335.00961304 525.83204651 C-340.24703381 525.81861162 -344.96227778 526.40105548 -350.0390625 527.65234375 C-350.78529373 527.82750015 -351.53152496 528.00265656 -352.30036926 528.18312073 C-354.74416898 528.75881546 -357.18443869 529.34824255 -359.625 529.9375 C-361.36180727 530.34872744 -363.09887334 530.7588632 -364.83618164 531.16796875 C-368.44048744 532.01767841 -372.04364017 532.87204308 -375.64599609 533.72998047 C-383.9007157 535.69258768 -392.16901938 537.59636628 -400.4375 539.5 C-401.22690979 539.68181824 -402.01631958 539.86363647 -402.82965088 540.05096436 C-406.86518047 540.98024884 -410.9009709 541.90838768 -414.93701172 542.83544922 C-418.45499574 543.64383374 -421.97211286 544.45588064 -425.48876953 545.27001953 C-430.10232814 546.33763773 -434.71766815 547.39723468 -439.33425903 548.45166016 C-441.09339643 548.85475679 -442.85193785 549.2604643 -444.60983276 549.66894531 C-447.05081505 550.23565803 -449.49381135 550.79274742 -451.9375 551.34765625 C-453.00986656 551.60005821 -453.00986656 551.60005821 -454.10389709 551.8575592 C-459.84553725 553.14435688 -464.86236963 554.13168667 -470.1875 551.3125 C-473.90038355 548.25968464 -476.46933176 545.59200472 -478 541 C-478.4059359 530.98800141 -477.83905246 520.9507274 -477.265625 510.95703125 C-477.18651963 509.52668573 -477.10775912 508.09632111 -477.02931213 506.66593933 C-476.81839569 502.84062364 -476.60222052 499.01562295 -476.38476944 495.19067383 C-476.20330193 491.98845469 -476.02473905 488.78607608 -475.84613132 485.58369637 C-475.28690879 475.56047665 -474.71714151 465.53787164 -474.14382172 455.51544952 C-474.00085836 453.01501275 -473.85820514 450.51455847 -473.71563721 448.01409912 C-473.1302449 437.75134447 -472.53911769 427.4889359 -471.94187927 417.22686386 C-471.81307426 415.00988407 -471.68496825 412.7928648 -471.55700684 410.57583618 C-471.31838533 406.4462092 -471.0755005 402.31684402 -470.83203125 398.1875 C-470.72756432 396.37357002 -470.72756432 396.37357002 -470.62098694 394.522995 C-470.29489963 389.05350499 -469.87504557 383.62968439 -469.22917175 378.18933105 C-468.78488241 373.94493162 -468.62137016 369.68353234 -468.421875 365.421875 C-468.31442548 363.24665673 -468.20683298 361.07144553 -468.09912109 358.89624023 C-468.01437531 357.1573201 -468.01437531 357.1573201 -467.92791748 355.38327026 C-467.61488079 348.99071744 -467.29005664 342.59877436 -466.9609375 336.20703125 C-466.9252277 335.51348604 -466.8895179 334.81994083 -466.85272598 334.1053791 C-465.83945077 314.50269351 -464.69352196 294.90750564 -463.54341125 275.31245422 C-463.37528925 272.44243782 -463.20819267 269.57236339 -463.04138184 266.70227051 C-462.77587609 262.13687468 -462.50781201 257.5716361 -462.23771286 253.00650978 C-462.13783797 251.31341738 -462.03869931 249.62028135 -461.94035721 247.92709923 C-461.09377151 233.37815352 -461.09377151 233.37815352 -460.45458984 227.90966797 C-459.99308814 223.94055502 -459.77130426 220.00149467 -459.640625 216.01171875 C-459.57930912 214.37896752 -459.51742466 212.74623759 -459.45507812 211.11352539 C-459.4222876 210.23648956 -459.38949707 209.35945374 -459.35571289 208.45584106 C-458.4751286 185.39566716 -457.17938184 162.35761206 -455.83483887 139.32070923 C-455.61093605 135.48380926 -455.39080418 131.64672242 -455.1739502 127.80941772 C-454.91413885 123.21842376 -454.64617108 118.62797516 -454.37203217 114.03781509 C-454.27084897 112.32389789 -454.17228936 110.60982352 -454.0765152 108.89559555 C-453.94325009 106.52176369 -453.80000305 104.14873108 -453.65429688 101.77563477 C-453.61787205 101.08751552 -453.58144722 100.39939627 -453.54391861 99.69042492 C-453.14988315 93.58297879 -452.50405609 87.59569904 -447.82080078 83.28320312 C-441.98993582 78.61278297 -435.01347245 77.74664745 -427.8671875 76.46875 C-426.27621693 76.163538 -424.68571577 75.85587109 -423.09564209 75.54602051 C-419.58478576 74.86705539 -416.07129814 74.20483679 -412.55499268 73.5546875 C-406.68947998 72.46954309 -400.8315335 71.34669088 -394.97412109 70.21875 C-388.31540123 68.93833924 -381.65614092 67.66099427 -374.99465942 66.39501953 C-355.14271478 62.6208906 -335.31151716 58.74575755 -315.484375 54.84375 C-313.86793274 54.52571041 -312.2514891 54.20767786 -310.6350441 53.88965225 C-304.03077156 52.59022607 -297.42655459 51.29051782 -290.82243538 49.99031258 C-272.95080262 46.47205279 -255.07652468 42.96730866 -237.20187616 39.46440744 C-234.63224575 38.96082643 -232.06262542 38.45719402 -229.49300766 37.95354843 C-188.42420221 29.90420193 -147.35220124 21.87119509 -106.27864003 13.84615374 C-104.31979749 13.46341283 -102.36096663 13.08061217 -100.40213585 12.69781113 C-94.18911637 11.48374909 -87.97592071 10.27060551 -81.76229858 9.05963135 C-71.40309093 7.03981599 -61.04529193 5.01412531 -50.6949234 2.94941902 C-46.38041243 2.08892203 -42.06503374 1.23282196 -37.74961853 0.37687302 C-34.81162222 -0.20807196 -31.8751192 -0.80012492 -28.93859863 -1.39242554 C-27.17724066 -1.74198042 -25.4158111 -2.09117478 -23.65429688 -2.43994141 C-22.4829847 -2.679792 -22.4829847 -2.679792 -21.28800964 -2.92448807 C-13.29165099 -4.49069298 -6.87245492 -4.79577832 0 0 Z " fill="#FEC923" transform="translate(929,8)"/>
</svg>
