<?xml version="1.0" encoding="UTF-8"?>
<svg version="1.1" xmlns="http://www.w3.org/2000/svg" width="2500" height="2500">
<path d="M0 0 C825 0 1650 0 2500 0 C2500 825 2500 1650 2500 2500 C1675 2500 850 2500 0 2500 C0 1675 0 850 0 0 Z " fill="#000000" transform="translate(0,0)"/>
<path d="M0 0 C0.23332031 0.51304687 0.46664063 1.02609375 0.70703125 1.5546875 C3.59631752 7.61912583 6.9638725 13.29898059 10.5 19 C13.9359311 24.54198956 17.21503776 30.0476984 20.0078125 35.94921875 C21.01572936 38.03251148 22.13589552 40.00788689 23.3125 42 C25 45 25 45 25 47 C25.66 47 26.32 47 27 47 C27.67119549 48.4562545 28.33681807 49.91507867 29 51.375 C29.37125 52.18710938 29.7425 52.99921875 30.125 53.8359375 C31 56 31 56 31 58 C31.66 58 32.32 58 33 58 C36.77981651 66.42201835 36.77981651 66.42201835 38 69.625 C39.06616407 72.15713967 40.3995932 74.46123379 41.78125 76.83203125 C43.3398748 79.60458499 44.80168523 82.41827136 46.25 85.25 C46.77078125 86.26578125 47.2915625 87.2815625 47.828125 88.328125 C49 91 49 91 49 94 C49.66 94 50.32 94 51 94 C51.41958984 95.05574219 51.41958984 95.05574219 51.84765625 96.1328125 C54.72185555 103.21203007 57.95087023 109.9449984 61.546875 116.67578125 C63.07608366 120.17405159 63.63539681 123.21484322 64 127 C64.66 127 65.32 127 66 127 C68.22656164 131.74354436 69.46148032 135.72250715 70 141 C70.66 141 71.32 141 72 141 C72.67220351 142.93558599 73.33758077 144.87354372 74 146.8125 C74.37125 147.89144531 74.7425 148.97039062 75.125 150.08203125 C76 153 76 153 76 156 C76.66 156 77.32 156 78 156 C78.36351562 156.969375 78.72703125 157.93875 79.1015625 158.9375 C79.46133179 159.89644165 79.46133179 159.89644165 79.82836914 160.87475586 C80.36739984 162.31277678 80.90562598 163.75109949 81.44311523 165.18969727 C82.79677521 168.80953084 84.1597907 172.42469038 85.55859375 176.02734375 C88.5203542 183.70382134 91.12480401 191.37951301 93.26391602 199.32983398 C94.10335995 202.36463413 94.97016728 204.95052135 96.6015625 207.65625 C98.20166908 210.33799287 98.4812168 212.21825207 98.6875 215.3125 C98.75324219 216.19550781 98.81898437 217.07851563 98.88671875 217.98828125 C98.92410156 218.65214844 98.96148438 219.31601562 99 220 C99.66 220 100.32 220 101 220 C101.12117188 220.56847656 101.24234375 221.13695312 101.3671875 221.72265625 C102.92939054 230.01637941 102.92939054 230.01637941 105.98046875 237.7890625 C107.30757449 240.66700062 107.75426639 243.44255631 108.3125 246.5625 C109.50179303 252.9027284 110.98474889 259.13661957 112.625 265.375 C112.84325439 266.21361572 113.06150879 267.05223145 113.28637695 267.91625977 C114.03851161 271.76680871 114.03851161 271.76680871 116 275 C116.57725112 278.35527214 117.03085686 281.72178372 117.5 285.09375 C117.69242705 287.88475283 117.69242705 287.88475283 119 289 C119.67196901 291.97543034 120.29214258 294.94430718 120.875 297.9375 C121.05353516 298.85136475 121.23207031 299.76522949 121.41601562 300.70678711 C121.95059472 303.46997661 122.47634279 306.23472245 123 309 C123.20544434 310.06202637 123.20544434 310.06202637 123.41503906 311.14550781 C125.84127708 323.83416253 127.17451416 336.66648126 128.5546875 349.50219727 C129.32650418 356.61043113 130.19668634 363.65132946 131.5559082 370.67651367 C133.46162869 380.64723487 134.13822965 390.78866641 134.55078125 400.9140625 C134.59310883 401.95033279 134.6354364 402.98660309 134.67904663 404.05427551 C135.1371917 416.26418973 135.15372485 428.47058345 135.125 440.6875 C135.12267365 442.45426086 135.12267365 442.45426086 135.12030029 444.25671387 C135.04765957 491.36142947 135.04765957 491.36142947 132.47265625 511.29296875 C131.93628477 515.49971698 131.57027227 519.70604116 131.24609375 523.93359375 C131 526 131 526 130 529 C129.78626703 530.6977458 129.61265449 532.40071816 129.46484375 534.10546875 C129.37783203 535.08837891 129.29082031 536.07128906 129.20117188 537.08398438 C129.11416016 538.10814453 129.02714844 539.13230469 128.9375 540.1875 C128.80118164 541.74114258 128.80118164 541.74114258 128.66210938 543.32617188 C128.43816517 545.88385044 128.21759327 548.44177459 128 551 C127.34 551 126.68 551 126 551 C126.06960938 551.89912109 126.06960938 551.89912109 126.140625 552.81640625 C126.58894178 564.07235957 124.10391722 574.99360329 122 586 C121.34 586 120.68 586 120 586 C120.05671875 586.88558594 120.1134375 587.77117188 120.171875 588.68359375 C120.16592539 594.60791332 118.5729016 600.32112284 117.25 606.0625 C116.97704102 607.2688208 116.70408203 608.4751416 116.42285156 609.71801758 C114.75819153 616.98203318 112.96152589 624.16422443 110.8125 631.30078125 C109.74711078 634.84012717 108.86242887 638.40654639 108 642 C107.34 642 106.68 642 106 642 C105.814375 643.918125 105.814375 643.918125 105.625 645.875 C104.62437101 654.62022321 102.84230404 662.0603012 99 670 C97.58859447 673.23793034 96.5503417 676.48884161 95.5625 679.875 C94.32647606 684.07375469 92.77944134 687.99625698 91 692 C89.38177958 696.07926398 87.93714833 700.18791995 86.625 704.375 C85.55051825 707.6600041 84.22802105 710.62673169 82.625 713.6875 C79.40353727 719.88563346 77.23648717 726.39522511 75 733 C74.34 733 73.68 733 73 733 C72.9175 733.825 72.835 734.65 72.75 735.5 C71.97183066 739.13145692 70.70753573 741.78029608 68.98828125 745.03125 C67.6978365 747.60193836 66.82523112 750.24922959 66 753 C65.34 753 64.68 753 64 753 C63.89171875 753.70769531 63.7834375 754.41539062 63.671875 755.14453125 C62.92659477 758.31197224 61.7457664 760.80005404 60.25 763.6875 C59.71503906 764.73164062 59.18007812 765.77578125 58.62890625 766.8515625 C58.09136719 767.89054688 57.55382813 768.92953125 57 770 C56.05886063 771.85232205 55.12102811 773.70633041 54.1875 775.5625 C53.78917969 776.34753906 53.39085937 777.13257813 52.98046875 777.94140625 C51.89354502 780.11530772 51.89354502 780.11530772 51 783 C50.34 783 49.68 783 49 783 C48.896875 783.70125 48.79375 784.4025 48.6875 785.125 C47.90640997 788.39137647 46.57941257 791.0471852 45 794 C44.34 794 43.68 794 43 794 C42.75685059 794.83716553 42.51370117 795.67433105 42.26318359 796.53686523 C40.826511 800.47563616 38.94185296 803.82898984 36.7890625 807.41015625 C36.37965424 808.10008163 35.97024597 808.79000702 35.5484314 809.50083923 C34.68544941 810.95216204 33.81964364 812.40180911 32.95117188 813.84985352 C31.62941028 816.05514168 30.31797732 818.26632247 29.0078125 820.47851562 C28.16466923 821.89359085 27.32093867 823.30831635 26.4765625 824.72265625 C25.89353867 825.70565453 25.89353867 825.70565453 25.29873657 826.70851135 C23.09497785 830.37078046 20.72845126 833.69606526 18 837 C17.19165124 838.37444789 16.41861799 839.77046041 15.6875 841.1875 C12.85403215 846.42118374 9.46627463 851.17117249 6 856 C4.89391282 857.5819923 3.7897602 859.16533886 2.6875 860.75 C1.45913152 862.50056036 0.22990691 864.25052017 -1 866 C-1.69351562 866.99128906 -2.38703125 867.98257813 -3.1015625 869.00390625 C-10.76835024 879.89449114 -18.87394704 890.44998238 -27 901 C-27.81597656 902.06226807 -27.81597656 902.06226807 -28.6484375 903.14599609 C-33.81182054 909.85605314 -39.10137383 916.35936292 -44.83984375 922.59375 C-47.05208688 925.05802083 -49.12127684 927.59996455 -51.1875 930.1875 C-56.54011788 936.7946377 -62.36902943 942.92274124 -68.20898438 949.09570312 C-69.88719059 950.88005543 -71.54857158 952.67810293 -73.203125 954.484375 C-80.57235302 962.51046702 -88.18056477 970.28705934 -95.875 978 C-96.61361771 978.7425 -96.61361771 978.7425 -97.36715698 979.5 C-102.50154809 984.65570897 -107.67588276 989.71627865 -113.20361328 994.453125 C-116.0382424 996.89403423 -118.7647619 999.44893005 -121.5 1002 C-153.55961941 1031.90099167 -189.50847682 1058.20662267 -226.6015625 1081.4921875 C-228.3127771 1082.56796736 -230.01498406 1083.65813088 -231.7109375 1084.7578125 C-236.12590812 1087.6145582 -240.5442685 1090.34166231 -245.1875 1092.8125 C-250.63003642 1095.7131068 -255.81535999 1098.96227993 -260.9909668 1102.30981445 C-265.32943711 1105.0797906 -269.76966156 1107.43547337 -274.39135742 1109.69848633 C-278.87526711 1111.93561525 -283.23993023 1114.38899699 -287.625 1116.8125 C-300.13988827 1123.67797831 -312.83055199 1130.02287137 -325.76220703 1136.06030273 C-333.66542456 1139.75755928 -341.49662579 1143.61392475 -349.20703125 1147.69921875 C-352 1149 -352 1149 -355 1149 C-355 1149.66 -355 1150.32 -355 1151 C-356.46759766 1151.58007812 -356.46759766 1151.58007812 -357.96484375 1152.171875 C-359.28922631 1152.69750412 -360.61343349 1153.22357526 -361.9375 1153.75 C-362.62102539 1154.02150879 -363.30455078 1154.29301758 -364.00878906 1154.57275391 C-368.49201319 1156.36498369 -372.90606229 1158.25754133 -377.265625 1160.3359375 C-379 1161 -379 1161 -382 1161 C-382 1161.66 -382 1162.32 -382 1163 C-385.63 1163.99 -389.26 1164.98 -393 1166 C-393 1166.66 -393 1167.32 -393 1168 C-397.79046647 1169.97019185 -402.57019477 1171.90376611 -407.5 1173.5 C-413.46928251 1175.4444598 -419.25301734 1177.82018339 -425.01953125 1180.296875 C-430.67314542 1182.71477288 -436.00863265 1184.6471106 -442 1186 C-444.57567772 1186.74765113 -447.13950024 1187.52854068 -449.703125 1188.31640625 C-451.79140156 1188.93791713 -453.88211134 1189.48995801 -456 1190 C-456 1190.66 -456 1191.32 -456 1192 C-456.63421875 1192.13535156 -457.2684375 1192.27070312 -457.921875 1192.41015625 C-465.73914033 1194.21330999 -473.17833895 1196.72318349 -480.70410156 1199.48657227 C-485.43003646 1201.19815491 -490.04185978 1202.56048238 -494.9855957 1203.48803711 C-497.19477065 1204.04950116 -498.98071719 1204.95365129 -501 1206 C-504.74129481 1207.17373955 -508.47360461 1208.10179492 -512.3125 1208.875 C-515.58272575 1209.57733036 -518.49102366 1210.55570815 -521.5625 1211.875 C-526.36395331 1213.8749928 -531.21152855 1215.1486971 -536.26513672 1216.35668945 C-542.27642575 1217.79737145 -548.2303126 1219.41334656 -554.1875 1221.0625 C-562.08813279 1223.23597802 -569.99063871 1225.26175732 -578 1227 C-580.95905554 1227.64256605 -583.91741321 1228.28820566 -586.875 1228.9375 C-587.64199219 1229.10580322 -588.40898438 1229.27410645 -589.19921875 1229.44750977 C-594.08711175 1230.53456973 -598.91861192 1231.74667497 -603.75 1233.0625 C-614.21932716 1235.90863905 -624.70707265 1238.07634912 -635.453125 1239.5703125 C-637.98245359 1239.86948339 -637.98245359 1239.86948339 -640 1241 C-641.99960012 1241.039992 -644.00047242 1241.04346799 -646 1241 C-646 1241.66 -646 1242.32 -646 1243 C-655.75979825 1245.39107538 -664.98124457 1246.59307576 -675 1247 C-675 1247.66 -675 1248.32 -675 1249 C-674.13435425 1249.40508789 -674.13435425 1249.40508789 -673.2512207 1249.81835938 C-670.97152491 1251.01494626 -669.03488583 1252.35721709 -666.98046875 1253.90625 C-666.21250977 1254.48060791 -665.44455078 1255.05496582 -664.65332031 1255.64672852 C-663.83959961 1256.25830811 -663.02587891 1256.8698877 -662.1875 1257.5 C-655.02788544 1262.83403634 -647.77307546 1267.93822599 -640.296875 1272.81640625 C-637.94592978 1274.37348963 -635.66856431 1275.95639753 -633.39453125 1277.6171875 C-630.68296671 1279.5700115 -627.97344027 1281.14572788 -624.9375 1282.5625 C-622.16956203 1283.85898958 -619.72392262 1285.18814731 -617.19140625 1286.9140625 C-613.58702658 1289.26992388 -609.91145096 1291.03578523 -606 1292.8125 C-600.48210988 1295.35553802 -595.03048412 1297.97566213 -589.625 1300.75 C-583.85834776 1303.64640243 -578.12048715 1305.97511973 -572 1308 C-570.50897392 1308.50088356 -569.01810126 1309.00222394 -567.52734375 1309.50390625 C-563.74108319 1310.77428623 -559.95137088 1312.03382722 -556.15893555 1313.28564453 C-554.49303324 1313.83686359 -552.83296167 1314.40572462 -551.17553711 1314.98193359 C-547.8253458 1316.05599354 -544.48553713 1316.87826272 -541.0546875 1317.65625 C-540.07799606 1317.87794861 -540.07799606 1317.87794861 -539.08157349 1318.10412598 C-537.70869644 1318.41484841 -536.33546944 1318.7240283 -534.96191406 1319.03173828 C-532.90058237 1319.49425983 -530.84088171 1319.96356764 -528.78125 1320.43359375 C-503.89214531 1326.07605455 -479.61962346 1326.14190401 -454.24182129 1326.06866455 C-450.25887589 1326.05829069 -446.27592386 1326.0538373 -442.29296875 1326.04882812 C-434.52862808 1326.03821965 -426.76431967 1326.02123504 -419 1326 C-419 1325.34 -419 1324.68 -419 1324 C-417.63294922 1323.83564453 -417.63294922 1323.83564453 -416.23828125 1323.66796875 C-411.82341092 1323.12764134 -407.41137492 1322.56805408 -403 1322 C-402.11763672 1321.8875293 -401.23527344 1321.77505859 -400.32617188 1321.65917969 C-397.57018543 1321.30366331 -394.81629291 1320.9345944 -392.0625 1320.5625 C-391.19987549 1320.45252686 -390.33725098 1320.34255371 -389.44848633 1320.22924805 C-384.40697375 1319.53341554 -379.85755735 1318.38279684 -375.06518555 1316.67993164 C-372.20422019 1315.73800133 -369.35749361 1315.31863752 -366.375 1314.9375 C-361.75100641 1314.28532981 -357.4691425 1313.38137132 -353 1312 C-350.08949238 1311.27750446 -347.17488565 1310.57439372 -344.2578125 1309.87890625 C-341.7014391 1309.18923717 -339.25615558 1308.4174861 -336.7578125 1307.5546875 C-331.82438068 1305.8828195 -326.82674077 1304.70994726 -321.75 1303.5625 C-307.86140414 1301.2496208 -307.86140414 1301.2496208 -296 1295 C-294.11157227 1294.28564453 -294.11157227 1294.28564453 -291.81640625 1293.6328125 C-290.97674316 1293.38901855 -290.13708008 1293.14522461 -289.27197266 1292.89404297 C-288.37784668 1292.64025879 -287.4837207 1292.38647461 -286.5625 1292.125 C-280.15441452 1290.26064445 -273.86389069 1288.29239538 -267.62109375 1285.92578125 C-264.5101618 1284.8269871 -261.36664833 1283.94423064 -258.1875 1283.0625 C-250.98884891 1281.05761252 -244.01426919 1278.56619605 -237 1276 C-227.55218447 1272.55946602 -227.55218447 1272.55946602 -223 1273 C-223 1272.34 -223 1271.68 -223 1271 C-222.18917969 1270.81824219 -221.37835937 1270.63648438 -220.54296875 1270.44921875 C-214.99426994 1269.1896189 -209.45059164 1267.90807341 -203.9375 1266.5 C-203.08027344 1266.2834375 -202.22304688 1266.066875 -201.33984375 1265.84375 C-198.95235351 1265.12265435 -198.95235351 1265.12265435 -197.13452148 1263.52514648 C-194.85478978 1261.8962452 -193.22630112 1261.34830888 -190.5078125 1260.75390625 C-189.64534912 1260.55853271 -188.78288574 1260.36315918 -187.89428711 1260.16186523 C-186.98042236 1259.96407471 -186.06655762 1259.76628418 -185.125 1259.5625 C-183.21165093 1259.13020132 -181.29888746 1258.69530264 -179.38671875 1258.2578125 C-177.99332275 1257.93925293 -177.99332275 1257.93925293 -176.57177734 1257.61425781 C-173.32275838 1256.83824379 -170.13353161 1255.90738295 -166.9375 1254.9375 C-161.23809143 1253.2604013 -155.50750745 1251.98376515 -149.6875 1250.8125 C-148.86306396 1250.64548584 -148.03862793 1250.47847168 -147.18920898 1250.30639648 C-143.11701749 1249.51063383 -139.0860317 1248.86937983 -134.95703125 1248.44921875 C-131.23513807 1248.44274889 -131.23513807 1248.44274889 -130 1247 C-122.59533514 1245.89890685 -115.11352753 1245.8626548 -107.64453125 1245.90234375 C-106.61688156 1245.9037587 -105.58923187 1245.90517365 -104.53044128 1245.90663147 C-101.29109621 1245.91216934 -98.05182371 1245.9247097 -94.8125 1245.9375 C-92.5983083 1245.94252305 -90.3841155 1245.94708454 -88.16992188 1245.95117188 C-82.77992372 1245.96211831 -77.38996705 1245.9787931 -72 1246 C-72 1246.66 -72 1247.32 -72 1248 C-70.700625 1247.938125 -69.40125 1247.87625 -68.0625 1247.8125 C-55.74436532 1247.82994778 -43.57794452 1251.03329553 -32 1255 C-32 1255.66 -32 1256.32 -32 1257 C-30.9996875 1257.09410156 -29.999375 1257.18820312 -28.96875 1257.28515625 C-24.78074254 1257.89170251 -21.23281989 1259.50475674 -17.5 1261.4375 C-16.81075439 1261.78876953 -16.12150879 1262.14003906 -15.41137695 1262.50195312 C-8.49027836 1266.11831195 -2.04104407 1270.34966916 4.33935547 1274.83886719 C5.80644396 1275.86466443 7.29438259 1276.86050119 8.78515625 1277.8515625 C18.05105995 1284.1965403 25.98638523 1292.17741186 34 1300 C34.70511719 1300.68827881 35.41023438 1301.37655762 36.13671875 1302.08569336 C39.85747969 1305.75829613 43.36478773 1309.46586623 46.625 1313.5625 C49.15683609 1316.71856465 51.70176966 1319.83783978 54.375 1322.875 C56.58997777 1325.43682869 58.33166455 1328.04249625 60 1331 C60.721875 1332.051875 61.44375 1333.10375 62.1875 1334.1875 C64 1337 64 1337 64 1339 C64.66 1339 65.32 1339 66 1339 C70 1345.75 70 1345.75 70 1348 C70.66 1348 71.32 1348 72 1348 C72.33 1349.65 72.66 1351.3 73 1353 C73.66 1353 74.32 1353 75 1353 C75.67154933 1354.28913487 76.33708859 1355.58140204 77 1356.875 C77.37125 1357.59429688 77.7425 1358.31359375 78.125 1359.0546875 C79 1361 79 1361 79 1363 C79.66 1363 80.32 1363 81 1363 C82.42041016 1364.97192383 82.42041016 1364.97192383 84.0390625 1367.70703125 C84.90917969 1369.1755957 84.90917969 1369.1755957 85.796875 1370.67382812 C86.40015625 1371.70958984 87.0034375 1372.74535156 87.625 1373.8125 C88.23601562 1374.83666016 88.84703125 1375.86082031 89.4765625 1376.91601562 C94 1384.61494664 94 1384.61494664 94 1388 C94.66 1388 95.32 1388 96 1388 C96.33 1389.65 96.66 1391.3 97 1393 C97.66 1393 98.32 1393 99 1393 C100.42041016 1394.98779297 100.42041016 1394.98779297 102.0390625 1397.7421875 C102.61914062 1398.72574219 103.19921875 1399.70929688 103.796875 1400.72265625 C104.40015625 1401.76292969 105.0034375 1402.80320312 105.625 1403.875 C106.23601562 1404.90753906 106.84703125 1405.94007812 107.4765625 1407.00390625 C112 1414.72807966 112 1414.72807966 112 1417 C112.66 1417 113.32 1417 114 1417 C115.50878906 1419.13623047 115.50878906 1419.13623047 117.265625 1422.1171875 C117.90886719 1423.2 118.55210938 1424.2828125 119.21484375 1425.3984375 C119.89343674 1426.55717013 120.57182106 1427.71602499 121.25 1428.875 C121.90613281 1429.98359375 122.56226563 1431.0921875 123.23828125 1432.234375 C124.53969206 1434.43357816 125.8372732 1436.63505244 127.13085938 1438.83886719 C129.36255998 1442.61316962 131.65183209 1446.35062621 133.95996094 1450.07861328 C135 1452 135 1452 135 1454 C135.66 1454 136.32 1454 137 1454 C137.67154933 1455.28913487 138.33708859 1456.58140204 139 1457.875 C139.37125 1458.59429688 139.7425 1459.31359375 140.125 1460.0546875 C141 1462 141 1462 141 1464 C141.66 1464 142.32 1464 143 1464 C143.33 1465.65 143.66 1467.3 144 1469 C144.66 1469 145.32 1469 146 1469 C146.33 1470.65 146.66 1472.3 147 1474 C147.66 1474 148.32 1474 149 1474 C149.33 1475.65 149.66 1477.3 150 1479 C150.66 1479 151.32 1479 152 1479 C152.33 1480.65 152.66 1482.3 153 1484 C153.66 1484 154.32 1484 155 1484 C156.42041016 1485.97192383 156.42041016 1485.97192383 158.0390625 1488.70703125 C158.90917969 1490.1755957 158.90917969 1490.1755957 159.796875 1491.67382812 C160.40015625 1492.70958984 161.0034375 1493.74535156 161.625 1494.8125 C162.23601562 1495.83666016 162.84703125 1496.86082031 163.4765625 1497.91601562 C168 1505.61494664 168 1505.61494664 168 1509 C168.66 1509 169.32 1509 170 1509 C171.5078125 1511.1171875 171.5078125 1511.1171875 173.125 1513.875 C173.66382813 1514.77992187 174.20265625 1515.68484375 174.7578125 1516.6171875 C176 1519 176 1519 176 1521 C176.66 1521 177.32 1521 178 1521 C178.96087136 1522.89454824 179.91858969 1524.79069581 180.875 1526.6875 C181.40867187 1527.74324219 181.94234375 1528.79898437 182.4921875 1529.88671875 C183.78688105 1532.55995905 184.94023254 1535.2271133 186 1538 C186.66 1538 187.32 1538 188 1538 C189.23339844 1539.67724609 189.23339844 1539.67724609 190.609375 1542.0234375 C191.11726563 1542.88066406 191.62515625 1543.73789063 192.1484375 1544.62109375 C192.67695312 1545.52988281 193.20546875 1546.43867187 193.75 1547.375 C194.26304688 1548.24511719 194.77609375 1549.11523438 195.3046875 1550.01171875 C196.34425595 1551.77480594 197.38004545 1553.54012658 198.41210938 1555.30761719 C200.52954321 1558.89787862 202.71447505 1562.44603323 204.90722656 1565.99072266 C206 1568 206 1568 206 1570 C206.66 1570 207.32 1570 208 1570 C208.33 1571.65 208.66 1573.3 209 1575 C209.66 1575 210.32 1575 211 1575 C211.33 1576.65 211.66 1578.3 212 1580 C212.66 1580 213.32 1580 214 1580 C214.33 1581.65 214.66 1583.3 215 1585 C215.66 1585 216.32 1585 217 1585 C217.33 1586.65 217.66 1588.3 218 1590 C218.66 1590 219.32 1590 220 1590 C220.33 1591.65 220.66 1593.3 221 1595 C221.66 1595 222.32 1595 223 1595 C223.33 1596.65 223.66 1598.3 224 1600 C224.66 1600 225.32 1600 226 1600 C226.67154933 1601.28913487 227.33708859 1602.58140204 228 1603.875 C228.37125 1604.59429688 228.7425 1605.31359375 229.125 1606.0546875 C230 1608 230 1608 230 1610 C230.66 1610 231.32 1610 232 1610 C233.7265625 1612.51953125 233.7265625 1612.51953125 235.625 1615.8125 C236.25664063 1616.89144531 236.88828125 1617.97039062 237.5390625 1619.08203125 C239 1622 239 1622 239 1625 C239.66 1625 240.32 1625 241 1625 C242.31158694 1626.8924164 243.52534069 1628.85284243 244.6953125 1630.8359375 C245.04761932 1631.43048737 245.39992615 1632.02503723 245.76290894 1632.63760376 C246.50774447 1633.8982488 247.24894732 1635.16104606 247.98681641 1636.42578125 C249.11902747 1638.36477163 250.26357222 1640.29604413 251.41015625 1642.2265625 C257 1651.71505474 257 1651.71505474 257 1654 C257.66 1654 258.32 1654 259 1654 C260.09057617 1655.43920898 260.09057617 1655.43920898 261.29296875 1657.49609375 C261.75155273 1658.27098145 262.21013672 1659.04586914 262.68261719 1659.84423828 C263.17922852 1660.70001465 263.67583984 1661.55579102 264.1875 1662.4375 C265.25856298 1664.25683527 266.33020648 1666.07582886 267.40234375 1667.89453125 C267.97710449 1668.87373535 268.55186523 1669.85293945 269.14404297 1670.86181641 C271.11626438 1674.19658805 273.11807792 1677.51266622 275.12890625 1680.82421875 C275.82079719 1681.96618009 276.51261081 1683.10818827 277.2043457 1684.25024414 C278.55839969 1686.48405345 279.91497266 1688.71633795 281.27416992 1690.94702148 C281.8901001 1691.96739502 282.50603027 1692.98776855 283.140625 1694.0390625 C283.69266602 1694.94865723 284.24470703 1695.85825195 284.81347656 1696.79541016 C286 1699 286 1699 286 1701 C286.66 1701 287.32 1701 288 1701 C288.33 1702.65 288.66 1704.3 289 1706 C289.66 1706 290.32 1706 291 1706 C291.33 1707.65 291.66 1709.3 292 1711 C292.66 1711 293.32 1711 294 1711 C294.33 1712.65 294.66 1714.3 295 1716 C295.66 1716 296.32 1716 297 1716 C298.31169267 1717.88029426 299.52543229 1719.82912599 300.6953125 1721.80078125 C301.04761932 1722.39295944 301.39992615 1722.98513763 301.76290894 1723.59526062 C302.5078263 1724.85165403 303.24902625 1726.11025769 303.98681641 1727.37084961 C305.11755908 1729.29980639 306.26285948 1731.2195259 307.41015625 1733.13867188 C308.13110211 1734.35884735 308.85118304 1735.57953437 309.5703125 1736.80078125 C310.22789551 1737.91622314 310.88547852 1739.03166504 311.56298828 1740.1809082 C313 1743 313 1743 313 1746 C313.66 1746 314.32 1746 315 1746 C316.31158694 1747.8924164 317.52534069 1749.85284243 318.6953125 1751.8359375 C319.04761932 1752.43048737 319.39992615 1753.02503723 319.76290894 1753.63760376 C320.50774447 1754.8982488 321.24894732 1756.16104606 321.98681641 1757.42578125 C323.11902747 1759.36477163 324.26357222 1761.29604413 325.41015625 1763.2265625 C331 1772.71505474 331 1772.71505474 331 1775 C331.66 1775 332.32 1775 333 1775 C334.95843891 1777.40357662 336.49723801 1780.11457582 338.125 1782.75 C338.59292969 1783.47960938 339.06085938 1784.20921875 339.54296875 1784.9609375 C339.98511719 1785.66992188 340.42726563 1786.37890625 340.8828125 1787.109375 C341.28902832 1787.75874023 341.69524414 1788.40810547 342.11376953 1789.07714844 C343 1791 343 1791 343 1795 C343.66 1795 344.32 1795 345 1795 C346.63863397 1797.43133054 348.14921334 1799.84771535 349.625 1802.375 C350.04523438 1803.07367187 350.46546875 1803.77234375 350.8984375 1804.4921875 C354 1809.72859172 354 1809.72859172 354 1812 C354.66 1812 355.32 1812 356 1812 C356.33 1813.65 356.66 1815.3 357 1817 C357.66 1817 358.32 1817 359 1817 C359.33 1818.65 359.66 1820.3 360 1822 C360.66 1822 361.32 1822 362 1822 C362.33 1823.65 362.66 1825.3 363 1827 C363.66 1827 364.32 1827 365 1827 C365.33 1828.65 365.66 1830.3 366 1832 C366.66 1832 367.32 1832 368 1832 C368.33 1833.65 368.66 1835.3 369 1837 C369.66 1837 370.32 1837 371 1837 C372.7265625 1839.51953125 372.7265625 1839.51953125 374.625 1842.8125 C375.25664063 1843.89144531 375.88828125 1844.97039062 376.5390625 1846.08203125 C378 1849 378 1849 378 1852 C378.66 1852 379.32 1852 380 1852 C381.7265625 1854.51953125 381.7265625 1854.51953125 383.625 1857.8125 C384.25664063 1858.89144531 384.88828125 1859.97039062 385.5390625 1861.08203125 C387 1864 387 1864 387 1867 C387.66 1867 388.32 1867 389 1867 C390.31158694 1868.8924164 391.52534069 1870.85284243 392.6953125 1872.8359375 C393.04761932 1873.43048737 393.39992615 1874.02503723 393.76290894 1874.63760376 C394.50774447 1875.8982488 395.24894732 1877.16104606 395.98681641 1878.42578125 C397.11902747 1880.36477163 398.26357222 1882.29604413 399.41015625 1884.2265625 C405 1893.71505474 405 1893.71505474 405 1896 C405.66 1896 406.32 1896 407 1896 C408.47489045 1898.13627286 409.81616235 1900.26023534 411.1328125 1902.4921875 C411.52951141 1903.1533255 411.92621033 1903.8144635 412.33493042 1904.49563599 C413.17390122 1905.89750167 414.00926023 1907.30153414 414.84130859 1908.70751953 C416.118391 1910.86384088 417.40780297 1913.01239533 418.69921875 1915.16015625 C419.51116099 1916.52038931 420.32238321 1917.88105248 421.1328125 1919.2421875 C421.52026642 1919.88807831 421.90772034 1920.53396912 422.30691528 1921.19943237 C425 1925.76862613 425 1925.76862613 425 1928 C425.66 1928 426.32 1928 427 1928 C427.33 1929.65 427.66 1931.3 428 1933 C428.66 1933 429.32 1933 430 1933 C430.98163422 1934.93625098 431.96022454 1936.87404539 432.9375 1938.8125 C433.48277344 1939.89144531 434.02804687 1940.97039062 434.58984375 1942.08203125 C436 1945 436 1945 437 1948 C437.66 1948 438.32 1948 439 1948 C440.27758789 1949.78149414 440.27758789 1949.78149414 441.72265625 1952.28515625 C442.25640869 1953.20055176 442.79016113 1954.11594727 443.34008789 1955.05908203 C443.90848389 1956.05020996 444.47687988 1957.04133789 445.0625 1958.0625 C446.24961301 1960.10308976 447.43711376 1962.14345401 448.625 1964.18359375 C449.20507812 1965.18503418 449.78515625 1966.18647461 450.3828125 1967.21826172 C452.41086807 1970.70673774 454.47814368 1974.16997409 456.5625 1977.625 C456.90345703 1978.1931543 457.24441406 1978.76130859 457.59570312 1979.34667969 C459.79079976 1983.00315281 462.00240628 1986.64933593 464.21875 1990.29296875 C464.77232178 1991.20675293 465.32589355 1992.12053711 465.89624023 1993.06201172 C466.99106657 1994.86923715 468.08943314 1996.67432351 469.19165039 1998.47705078 C469.68656982 1999.29544434 470.18148926 2000.11383789 470.69140625 2000.95703125 C471.13685791 2001.68897705 471.58230957 2002.42092285 472.04125977 2003.17504883 C473 2005 473 2005 473 2007 C473.66 2007 474.32 2007 475 2007 C475.56203125 2008.00675781 476.1240625 2009.01351562 476.703125 2010.05078125 C478.17511425 2012.62935854 479.71339366 2015.134463 481.359375 2017.60546875 C481.75253906 2018.19650391 482.14570312 2018.78753906 482.55078125 2019.39648438 C483.36052279 2020.60582149 484.17577676 2021.81148318 484.99609375 2023.01367188 C487.22940026 2026.39331014 488 2027.82908735 488 2032 C488.66 2032 489.32 2032 490 2032 C491.63863397 2034.43133054 493.14921334 2036.84771535 494.625 2039.375 C495.04523438 2040.07367187 495.46546875 2040.77234375 495.8984375 2041.4921875 C499 2046.72859172 499 2046.72859172 499 2049 C499.66 2049 500.32 2049 501 2049 C501.33 2050.65 501.66 2052.3 502 2054 C502.66 2054 503.32 2054 504 2054 C504.33 2055.65 504.66 2057.3 505 2059 C505.66 2059 506.32 2059 507 2059 C507.33 2060.65 507.66 2062.3 508 2064 C508.66 2064 509.32 2064 510 2064 C510.4125 2064.86625 510.825 2065.7325 511.25 2066.625 C512.94675802 2070.05400148 512.94675802 2070.05400148 515.1875 2073.25 C517 2076 517 2076 517 2078 C517.66 2078 518.32 2078 519 2078 C519.98484108 2079.74681293 520.96266187 2081.4975851 521.9375 2083.25 C522.48277344 2084.22453125 523.02804687 2085.1990625 523.58984375 2086.203125 C524.76610835 2088.53610409 525.52101691 2090.45350762 526 2093 C526.66 2093 527.32 2093 528 2093 C528.67154933 2094.28913487 529.33708859 2095.58140204 530 2096.875 C530.37125 2097.59429688 530.7425 2098.31359375 531.125 2099.0546875 C532 2101 532 2101 532 2103 C532.66 2103 533.32 2103 534 2103 C534.33 2104.65 534.66 2106.3 535 2108 C535.66 2108 536.32 2108 537 2108 C537.33 2109.65 537.66 2111.3 538 2113 C538.66 2113 539.32 2113 540 2113 C540 2113.66 540 2114.32 540 2115 C540.66 2115 541.32 2115 542 2115 C542.51046875 2116.07314453 542.51046875 2116.07314453 543.03125 2117.16796875 C546.55692505 2124.41623155 550.49921369 2131.2556299 554.79052734 2138.07373047 C557.21354242 2141.93275124 559.60864202 2145.80881052 562 2149.6875 C562.49330811 2150.47850098 562.98661621 2151.26950195 563.49487305 2152.08447266 C563.95031494 2152.82358887 564.40575684 2153.56270508 564.875 2154.32421875 C565.48988281 2155.3155481 565.48988281 2155.3155481 566.1171875 2156.3269043 C567 2158 567 2158 567 2160 C567.66 2160 568.32 2160 569 2160 C569.33 2161.65 569.66 2163.3 570 2165 C570.66 2165 571.32 2165 572 2165 C573.7265625 2167.51953125 573.7265625 2167.51953125 575.625 2170.8125 C576.25664063 2171.89144531 576.88828125 2172.97039063 577.5390625 2174.08203125 C579 2177 579 2177 579 2180 C579.66 2180 580.32 2180 581 2180 C581.33 2181.65 581.66 2183.3 582 2185 C582.66 2185 583.32 2185 584 2185 C584.33 2186.65 584.66 2188.3 585 2190 C585.66 2190 586.32 2190 587 2190 C587.33 2191.65 587.66 2193.3 588 2195 C588.66 2195 589.32 2195 590 2195 C590.33 2196.65 590.66 2198.3 591 2200 C591.66 2200 592.32 2200 593 2200 C594.27631444 2201.85784951 595.45481202 2203.7830894 596.58984375 2205.73046875 C596.93503555 2206.31790359 597.28022736 2206.90533844 597.63587952 2207.51057434 C598.74341103 2209.3988922 599.84056427 2211.29301109 600.9375 2213.1875 C601.67314464 2214.4463632 602.40946471 2215.70483196 603.14648438 2216.96289062 C604.5093932 2219.29080156 605.86743466 2221.62129614 607.22241211 2223.95385742 C608.3554132 2225.89541141 609.52243901 2227.81777863 610.73266602 2229.7121582 C612 2232 612 2232 612 2235 C612.66 2235 613.32 2235 614 2235 C615.42041016 2236.98779297 615.42041016 2236.98779297 617.0390625 2239.7421875 C617.61914062 2240.72574219 618.19921875 2241.70929687 618.796875 2242.72265625 C619.40015625 2243.76292969 620.0034375 2244.80320312 620.625 2245.875 C621.23601562 2246.90753906 621.84703125 2247.94007813 622.4765625 2249.00390625 C627 2256.72807966 627 2256.72807966 627 2259 C627.66 2259 628.32 2259 629 2259 C630.13818359 2260.51855469 630.13818359 2260.51855469 631.3984375 2262.671875 C631.87249023 2263.47254395 632.34654297 2264.27321289 632.83496094 2265.09814453 C633.34317383 2265.97325684 633.85138672 2266.84836914 634.375 2267.75 C635.45013651 2269.5757472 636.52566949 2271.40126099 637.6015625 2273.2265625 C638.1574707 2274.1743457 638.71337891 2275.12212891 639.28613281 2276.09863281 C640.98983273 2278.98278805 642.71984049 2281.84922509 644.4609375 2284.7109375 C645.01217285 2285.61875977 645.5634082 2286.52658203 646.13134766 2287.46191406 C647.19874484 2289.21804808 648.26867681 2290.97264427 649.34130859 2292.72558594 C649.82164551 2293.5199707 650.30198242 2294.31435547 650.796875 2295.1328125 C651.22323242 2295.83293457 651.64958984 2296.53305664 652.08886719 2297.25439453 C653 2299 653 2299 653 2301 C653.66 2301 654.32 2301 655 2301 C655.33 2302.65 655.66 2304.3 656 2306 C656.66 2306 657.32 2306 658 2306 C658.99 2308.64 659.98 2311.28 661 2314 C56.77 2314 -547.46 2314 -1170 2314 C-1170.103125 2046.101875 -1170.20625 1778.20375 -1170.3125 1502.1875 C-1170.35802002 1417.43059326 -1170.40354004 1332.67368652 -1170.45043945 1245.34838867 C-1170.47302246 1142.27600098 -1170.47302246 1142.27600098 -1170.47721863 1094.10566711 C-1170.48205322 1059.16544487 -1170.50195918 1024.22527211 -1170.53062727 989.28506336 C-1170.56073898 952.47812407 -1170.57482175 915.6712137 -1170.56781117 878.86426184 C-1170.56683988 873.74048332 -1170.56604706 868.6167048 -1170.56536138 863.49292624 C-1170.56522048 862.48868181 -1170.56507958 861.48443738 -1170.56493441 860.4497613 C-1170.56317364 844.64588019 -1170.57801814 828.84206164 -1170.60009888 813.03819771 C-1170.62122587 797.67574682 -1170.62480283 782.31337788 -1170.6091767 766.95091939 C-1170.60054333 757.93059894 -1170.60586063 748.91053703 -1170.63108187 739.8902463 C-1170.64647381 733.90250161 -1170.64400316 727.91494304 -1170.62650426 721.9272044 C-1170.61707401 718.52390689 -1170.61569144 715.1211142 -1170.63617641 711.71785402 C-1170.65399912 708.07334039 -1170.64157524 704.43019895 -1170.62099248 700.78573102 C-1170.63353686 699.72263731 -1170.64608125 698.6595436 -1170.65900576 697.56423493 C-1170.62699274 694.94392597 -1170.57154041 692.55701794 -1170 690 C-1167.58151878 687.88910897 -1167.58151878 687.88910897 -1165 687 C-1164.04697998 686.49932007 -1164.04697998 686.49932007 -1163.07470703 685.98852539 C-1162.17534424 685.54754517 -1162.17534424 685.54754517 -1161.2578125 685.09765625 C-1160.58363281 684.76443359 -1159.90945313 684.43121094 -1159.21484375 684.08789062 C-1157.82945596 683.40814428 -1156.44403962 682.72845611 -1155.05859375 682.04882812 C-1151.71448849 680.39588467 -1148.44647573 678.69814139 -1145.23828125 676.79296875 C-1141.56468888 674.75897732 -1139.12891121 674.33705398 -1135 674 C-1135 673.34 -1135 672.68 -1135 672 C-1117.52427184 663 -1117.52427184 663 -1113 663 C-1113 662.34 -1113 661.68 -1113 661 C-1112.31292969 660.79503906 -1111.62585937 660.59007812 -1110.91796875 660.37890625 C-1110.01691406 660.10949219 -1109.11585937 659.84007812 -1108.1875 659.5625 C-1107.29417969 659.29566406 -1106.40085937 659.02882813 -1105.48046875 658.75390625 C-1103.64526945 658.19612127 -1101.81966274 657.60655425 -1100 657 C-1100 656.34 -1100 655.68 -1100 655 C-1097.69 654.67 -1095.38 654.34 -1093 654 C-1093 653.34 -1093 652.68 -1093 652 C-1090.69 651.67 -1088.38 651.34 -1086 651 C-1086 650.34 -1086 649.68 -1086 649 C-1075.72062721 645.21488516 -1075.72062721 645.21488516 -1070.6875 643.5625 C-1061.27803794 640.45416783 -1051.98546698 637.19200285 -1043 633 C-1037.54732105 630.48337895 -1032.03328303 628.76112954 -1026.27734375 627.046875 C-1023.34424332 626.10996092 -1020.57534512 625.02902926 -1017.75 623.8125 C-1013.1341014 621.88290304 -1008.98113582 621.3213636 -1004 621 C-1004 620.34 -1004 619.68 -1004 619 C-997.91582501 616.9050826 -991.8238803 614.91689776 -985.625 613.1875 C-979.43254332 611.44950663 -973.31098487 609.52894444 -967.1875 607.5625 C-946.36976158 600.89898158 -925.560161 595.54035504 -904.125 591.21875 C-902.2378125 590.83203125 -902.2378125 590.83203125 -900.3125 590.4375 C-899.17425781 590.20933594 -898.03601563 589.98117187 -896.86328125 589.74609375 C-893.82881663 589.12202436 -893.82881663 589.12202436 -891 587 C-888.76020954 586.6381877 -886.50679897 586.35829778 -884.25 586.125 C-879.07716616 585.52209259 -874.20969792 584.62323741 -869.1875 583.1875 C-859.92675815 580.56542357 -850.49464624 578.90882729 -841.0390625 577.1484375 C-837.44954554 576.47922445 -833.88261828 575.76745202 -830.32421875 574.94921875 C-825.64351371 573.88522908 -820.93486725 573.13652143 -816.1875 572.4375 C-815.30876221 572.30601562 -814.43002441 572.17453125 -813.5246582 572.0390625 C-808.91439292 571.36619231 -804.33896302 570.80967621 -799.6875 570.5 C-795.22296332 570.19859668 -791.00151612 569.43365677 -786.625 568.5 C-780.50413961 567.20580378 -774.58138407 566.59340563 -768.34375 566.2421875 C-762.22768045 565.79920115 -756.24278725 564.63117721 -750.23046875 563.4609375 C-740.17509709 561.5332983 -730.23356292 560.79623437 -720 561 C-720 560.34 -720 559.68 -720 559 C-715.16233149 558.56828401 -710.32428315 558.14120592 -705.48583984 557.71826172 C-703.84282615 557.57400182 -702.19991961 557.4285157 -700.55712891 557.28173828 C-698.18419658 557.06994651 -695.81090297 556.8626926 -693.4375 556.65625 C-692.71320801 556.59062866 -691.98891602 556.52500732 -691.24267578 556.45739746 C-686.47738223 556.04859121 -681.78302836 555.94350754 -677 556 C-677 555.34 -677 554.68 -677 554 C-668.39421862 553.12980756 -659.8960185 552.87392633 -651.25 552.9375 C-650.0640625 552.94201172 -648.878125 552.94652344 -647.65625 552.95117188 C-644.77077772 552.96280684 -641.88541787 552.9791516 -639 553 C-639 552.34 -639 551.68 -639 551 C-634.4694601 550.58763902 -629.93860978 550.17891755 -625.4074707 549.77319336 C-623.87450865 549.6354582 -622.34162702 549.49682411 -620.80883789 549.35717773 C-604.96885661 547.91528657 -589.17532009 546.96325013 -573.27386475 546.61157227 C-562.71426924 546.37042946 -552.23241152 546.04635022 -541.74169922 544.73291016 C-534.24168393 543.82086175 -526.72700021 543.57702807 -519.17919922 543.34179688 C-518.21771973 543.31021484 -517.25624023 543.27863281 -516.265625 543.24609375 C-515.41774414 543.22216553 -514.56986328 543.1982373 -513.69628906 543.17358398 C-510.89452781 543.03065115 -510.89452781 543.03065115 -507.72363281 542.51367188 C-503.52573725 541.93457587 -499.38657179 541.70827719 -495.15625 541.53515625 C-493.42862274 541.45775287 -491.70100255 541.38019161 -489.97338867 541.30249023 C-489.07897064 541.26340546 -488.18455261 541.22432068 -487.26303101 541.18405151 C-473.97365647 540.59942413 -460.71694115 539.95369809 -447.47314453 538.67553711 C-441.93722177 538.14576639 -436.43154834 537.8271838 -430.875 537.625 C-420.87401418 537.22710792 -410.94605355 536.13721516 -401 535.0625 C-400.19963318 534.97695862 -399.39926636 534.89141724 -398.574646 534.80328369 C-390.25360898 533.90845903 -382.01294449 532.88290202 -373.76708984 531.43530273 C-368.97238465 530.68102716 -364.15065514 530.35028451 -359.3125 530 C-350.69161266 529.33525364 -342.13153979 528.48952686 -333.55859375 527.3671875 C-330.01142243 527.0011786 -326.5631982 526.93579823 -323 527 C-323 526.34 -323 525.68 -323 525 C-322.24493164 524.89453857 -321.48986328 524.78907715 -320.71191406 524.68041992 C-317.22364652 524.18936607 -313.73685455 523.68848485 -310.25 523.1875 C-309.06277344 523.02185547 -307.87554688 522.85621094 -306.65234375 522.68554688 C-299.87486095 521.70410811 -293.29907263 520.45539012 -286.68554688 518.67089844 C-283.88520703 517.97132263 -281.10328272 517.49196581 -278.25 517.0625 C-273.33083922 516.28476707 -268.52075881 515.24960641 -263.6875 514.0625 C-263.02975586 513.90467041 -262.37201172 513.74684082 -261.69433594 513.58422852 C-258.44183498 512.765351 -255.3683785 511.79007173 -252.3046875 510.44140625 C-249.61348911 509.26758568 -247.29185842 508.45323099 -244.4375 507.875 C-243.6846875 507.7203125 -242.931875 507.565625 -242.15625 507.40625 C-239.44359244 506.89516959 -236.72831705 506.41974108 -234 506 C-234 505.34 -234 504.68 -234 504 C-232.83984375 503.74476563 -232.83984375 503.74476563 -231.65625 503.484375 C-220.94207715 501.07150521 -220.94207715 501.07150521 -212 495 C-210.43728103 494.30577053 -208.84990925 493.66610213 -207.25 493.0625 C-200.15553951 490.30185157 -193.61726422 486.73743083 -187 483 C-185.90171875 482.38511719 -184.8034375 481.77023437 -183.671875 481.13671875 C-179.26132203 478.61479175 -175.04177187 475.81298174 -170.81054688 473.00390625 C-166.21486971 470 -166.21486971 470 -164 470 C-164 469.34 -164 468.68 -164 468 C-161.5331967 466.1529505 -159.05197657 464.41005672 -156.5 462.6875 C-143.79585047 453.90833992 -132.04475358 444.21289546 -120.8125 433.625 C-118.58776922 431.5485846 -116.33596265 429.57163554 -114 427.625 C-104.30795077 419.22385796 -95.90341574 409.04984699 -88 399 C-87.20078125 397.99582031 -86.4015625 396.99164062 -85.578125 395.95703125 C-79.25468163 387.93558056 -73.55208717 379.56859422 -68 371 C-67.31421875 369.94941406 -66.6284375 368.89882813 -65.921875 367.81640625 C-63.01428949 363.31453541 -60.23896127 358.87303335 -58 354 C-57.34 354 -56.68 354 -56 354 C-55.80664062 353.40832031 -55.61328125 352.81664062 -55.4140625 352.20703125 C-54.05585281 348.0853355 -52.67949415 344.0049476 -51 340 C-50.34 340 -49.68 340 -49 340 C-48.90203125 339.31421875 -48.8040625 338.6284375 -48.703125 337.921875 C-47.86184956 334.42590816 -46.35597508 331.43911038 -44.75 328.25 C-41.38249197 321.32679713 -39.16574164 314.345819 -37.12109375 306.94140625 C-36.20094675 303.61984201 -35.10369046 300.40991459 -33.875 297.1875 C-30.93808087 289.37553293 -28.94242556 281.29334495 -28 273 C-27.34 273 -26.68 273 -26 273 C-26.0309375 271.74316406 -26.061875 270.48632812 -26.09375 269.19140625 C-26.09375 265.69670998 -25.84303324 262.36027024 -25.34375 258.90234375 C-23.10863633 243.37732913 -22.71517075 228.10480815 -22.75 212.4375 C-22.75104736 211.41332977 -22.75209473 210.38915955 -22.75317383 209.33395386 C-22.80070948 184.70588442 -22.80070948 184.70588442 -25.4375 160.25 C-25.62022461 159.01636719 -25.62022461 159.01636719 -25.80664062 157.7578125 C-26.49579894 153.31577654 -27.46031876 149.2401378 -29 145 C-29.78650253 142.36201785 -30.5533906 139.71907609 -31.31640625 137.07421875 C-31.8163941 135.03352377 -31.8163941 135.03352377 -33 134 C-33.65915503 130.21080021 -34.24744099 126.41820575 -34.80664062 122.61328125 C-34.93103516 121.81535156 -35.05542969 121.01742187 -35.18359375 120.1953125 C-35.29243896 119.46328613 -35.40128418 118.73125977 -35.51342773 117.97705078 C-35.95537603 115.69883551 -35.95537603 115.69883551 -38 113 C-38.46984608 111.38909915 -38.93509885 109.77664049 -39.37109375 108.15625 C-41.07256367 102.32263883 -43.23978279 96.59449528 -45.75 91.0625 C-47 88 -47 88 -47 84 C-47.66 84 -48.32 84 -49 84 C-52 77.375 -52 77.375 -52 74 C-52.66 74 -53.32 74 -54 74 C-54.6708712 72.3767313 -55.33657029 70.75132422 -56 69.125 C-56.37125 68.22007812 -56.7425 67.31515625 -57.125 66.3828125 C-58 64 -58 64 -58 62 C-58.66 62 -59.32 62 -60 62 C-60.25394531 61.40832031 -60.50789063 60.81664062 -60.76953125 60.20703125 C-62.62409779 55.94916874 -64.59022737 51.97612484 -67 48 C-67 47.34 -67 46.68 -67 46 C-67.66 46 -68.32 46 -69 46 C-69.33 44.35 -69.66 42.7 -70 41 C-67.46316052 39.36702257 -64.92101073 37.74356724 -62.375 36.125 C-61.30572266 35.43470703 -61.30572266 35.43470703 -60.21484375 34.73046875 C-56.23477182 32.21097367 -52.58875487 30.25937436 -48 29 C-48 28.34 -48 27.68 -48 27 C-46.26611328 25.75415039 -46.26611328 25.75415039 -43.8203125 24.34765625 C-42.46848877 23.56140869 -42.46848877 23.56140869 -41.08935547 22.75927734 C-40.11111816 22.19934082 -39.13288086 21.6394043 -38.125 21.0625 C-36.10873602 19.89042143 -34.09312087 18.71722608 -32.078125 17.54296875 C-31.06041016 16.95177246 -30.04269531 16.36057617 -28.99414062 15.75146484 C-24.59058706 13.175544 -20.22780407 10.53555252 -15.875 7.875 C-15.13652832 7.42648682 -14.39805664 6.97797363 -13.63720703 6.51586914 C-10.89256776 4.83723103 -8.2671607 3.21503178 -5.7578125 1.1953125 C-4 0 -4 0 0 0 Z " fill="#FEFEFE" transform="translate(1170,186)"/>
<path d="M0 0 C6.0546875 -0.1953125 6.0546875 -0.1953125 8 0 C10 2 10 2 10 5 C10.66 5 11.32 5 12 5 C13.18579102 6.59790039 13.18579102 6.59790039 14.50390625 8.84765625 C14.99342773 9.67410645 15.48294922 10.50055664 15.98730469 11.35205078 C16.50711914 12.24649902 17.02693359 13.14094727 17.5625 14.0625 C18.64170523 15.89466195 19.72113464 17.72669186 20.80078125 19.55859375 C21.33783691 20.47495605 21.87489258 21.39131836 22.42822266 22.33544922 C23.86360283 24.76877311 25.32040802 27.1867042 26.79296875 29.59765625 C27.21054443 30.2827124 27.62812012 30.96776855 28.05834961 31.67358398 C28.83906427 32.95206223 29.62233888 34.22898154 30.40844727 35.50415039 C33 39.7769722 33 39.7769722 33 42 C33.66 42 34.32 42 35 42 C35.33 43.65 35.66 45.3 36 47 C36.66 47 37.32 47 38 47 C38.67154933 48.28913487 39.33708859 49.58140204 40 50.875 C40.37125 51.59429688 40.7425 52.31359375 41.125 53.0546875 C42 55 42 55 42 57 C42.66 57 43.32 57 44 57 C44.33 58.65 44.66 60.3 45 62 C45.66 62 46.32 62 47 62 C47.33 63.65 47.66 65.3 48 67 C48.66 67 49.32 67 50 67 C51.31169267 68.88029426 52.52543229 70.82912599 53.6953125 72.80078125 C54.04761932 73.39295944 54.39992615 73.98513763 54.76290894 74.59526062 C55.5078263 75.85165403 56.24902625 77.11025769 56.98681641 78.37084961 C58.11755908 80.29980639 59.26285948 82.2195259 60.41015625 84.13867188 C61.13110211 85.35884735 61.85118304 86.57953437 62.5703125 87.80078125 C63.55668701 89.47394409 63.55668701 89.47394409 64.56298828 91.1809082 C66 94 66 94 66 97 C66.66 97 67.32 97 68 97 C69.60400391 99.26318359 69.60400391 99.26318359 71.4765625 102.3984375 C72.146875 103.51734375 72.8171875 104.63625 73.5078125 105.7890625 C73.85489258 106.37719727 74.20197266 106.96533203 74.55957031 107.57128906 C75.61937899 109.36548395 76.69148097 111.15185873 77.765625 112.9375 C83 121.72882481 83 121.72882481 83 124 C83.66 124 84.32 124 85 124 C86.34503073 125.99611249 87.55244173 127.97352464 88.73828125 130.0625 C89.10092575 130.68721191 89.46357025 131.31192383 89.83720398 131.95556641 C91.00268017 133.9664002 92.15786149 135.98292703 93.3125 138 C94.45604327 139.98304253 95.60168323 141.96485816 96.74801636 143.94628906 C97.48729838 145.22478473 98.22520992 146.50407392 98.96170044 147.78417969 C100.91818339 151.17569359 102.92947784 154.51673553 105.04296875 157.8125 C107 161 107 161 107 163 C107.66 163 108.32 163 109 163 C109.33 164.65 109.66 166.3 110 168 C110.66 168 111.32 168 112 168 C112.33 169.65 112.66 171.3 113 173 C113.66 173 114.32 173 115 173 C115.33 174.65 115.66 176.3 116 178 C116.66 178 117.32 178 118 178 C118.33 179.65 118.66 181.3 119 183 C119.66 183 120.32 183 121 183 C121.33 184.65 121.66 186.3 122 188 C122.66 188 123.32 188 124 188 C125.09741211 189.48120117 125.09741211 189.48120117 126.27734375 191.54296875 C126.70853516 192.28740234 127.13972656 193.03183594 127.58398438 193.79882812 C128.03064453 194.58708984 128.47730469 195.37535156 128.9375 196.1875 C129.82155393 197.72269118 130.70566706 199.25784827 131.58984375 200.79296875 C132.00476074 201.52306152 132.41967773 202.2531543 132.84716797 203.00537109 C133.79684198 204.64849618 134.79977486 206.26072036 135.81640625 207.86328125 C137 210 137 210 137 213 C137.66 213 138.32 213 139 213 C139.33 214.65 139.66 216.3 140 218 C140.66 218 141.32 218 142 218 C143.14501953 219.52880859 143.14501953 219.52880859 144.3828125 221.6484375 C144.82753906 222.40640625 145.27226562 223.164375 145.73046875 223.9453125 C146.19066406 224.74710938 146.65085937 225.54890625 147.125 226.375 C147.59292969 227.1690625 148.06085938 227.963125 148.54296875 228.78125 C152 234.7277469 152 234.7277469 152 237 C152.66 237 153.32 237 154 237 C157 242.75 157 242.75 157 245 C157.66 245 158.32 245 159 245 C160.38037163 247.03044376 161.62353833 249.04306193 162.84375 251.16796875 C163.21350952 251.79979568 163.58326904 252.43162262 163.9642334 253.08259583 C164.7477377 254.42484402 165.52762302 255.76921011 166.30419922 257.11547852 C167.48752784 259.16588889 168.68214558 261.20935975 169.87890625 263.25195312 C170.63870322 264.55689459 171.39783888 265.86222136 172.15625 267.16796875 C172.51150757 267.77650192 172.86676514 268.3850351 173.23278809 269.01200867 C175.10256003 272.26264161 176.7090927 275.47779759 178 279 C178.66 279 179.32 279 180 279 C180.33 280.65 180.66 282.3 181 284 C181.66 284 182.32 284 183 284 C183.67154933 285.28913487 184.33708859 286.58140204 185 287.875 C185.37125 288.59429688 185.7425 289.31359375 186.125 290.0546875 C187 292 187 292 187 294 C187.66 294 188.32 294 189 294 C189.33 295.65 189.66 297.3 190 299 C190.66 299 191.32 299 192 299 C193.44294806 301.13041484 194.750614 303.2482996 196.03515625 305.47265625 C196.43270615 306.14735458 196.83025604 306.82205292 197.23985291 307.51719666 C198.52104765 309.69495411 199.7919737 311.87850453 201.0625 314.0625 C201.89188547 315.47761973 202.72195634 316.89233798 203.55273438 318.30664062 C204.79449964 320.42060361 206.03515443 322.53515312 207.27114868 324.65249634 C209.36200172 328.23122349 211.47357888 331.79482033 213.62841797 335.33544922 C214.04731796 336.02505234 214.46621796 336.71465546 214.89781189 337.42515564 C215.69653755 338.73653865 216.49892202 340.04570213 217.30543518 341.35231018 C220 345.77964427 220 345.77964427 220 348 C220.66 348 221.32 348 222 348 C222.53625 348.94875 223.0725 349.8975 223.625 350.875 C227.06515705 356.88029157 230.55473045 362.84790129 234.38671875 368.61328125 C234.79768799 369.23581787 235.20865723 369.85835449 235.63208008 370.49975586 C236.44822647 371.73110931 237.27207317 372.95740027 238.10424805 374.17797852 C240.30768171 377.50936599 241 378.87808565 241 383 C241.66 383 242.32 383 243 383 C244.63863397 385.43133054 246.14921334 387.84771535 247.625 390.375 C248.04523437 391.07367187 248.46546875 391.77234375 248.8984375 392.4921875 C252 397.72859172 252 397.72859172 252 400 C252.66 400 253.32 400 254 400 C254.67154933 401.28913487 255.33708859 402.58140204 256 403.875 C256.37125 404.59429688 256.7425 405.31359375 257.125 406.0546875 C258 408 258 408 258 410 C258.66 410 259.32 410 260 410 C260.33 411.65 260.66 413.3 261 415 C261.66 415 262.32 415 263 415 C263.33 416.65 263.66 418.3 264 420 C264.66 420 265.32 420 266 420 C266.33 421.65 266.66 423.3 267 425 C267.66 425 268.32 425 269 425 C270.27758789 426.78149414 270.27758789 426.78149414 271.72265625 429.28515625 C272.25737549 430.20200195 272.79209473 431.11884766 273.34301758 432.06347656 C274.19416138 433.54799316 274.19416138 433.54799316 275.0625 435.0625 C276.23379782 437.07976233 277.40567571 439.09668795 278.578125 441.11328125 C279.15626953 442.11182129 279.73441406 443.11036133 280.33007812 444.13916016 C282.9736237 448.66797113 285.70268236 453.14488528 288.45922852 457.60571289 C291 461.78125834 291 461.78125834 291 464 C291.66 464 292.32 464 293 464 C293.928125 465.7325 293.928125 465.7325 294.875 467.5 C297.15860569 471.60923551 299.60886789 475.59336781 302.125 479.5625 C307.11394019 487.46182193 311.91521725 495.47200491 316.69573975 503.49850464 C317.56216558 504.9526639 318.42987353 506.40606003 319.29888916 507.8586731 C320.53636324 509.92830305 321.76885773 512.00081748 323 514.07421875 C323.37357635 514.69765167 323.74715271 515.32108459 324.13204956 515.96340942 C326.06070602 519.2258697 327.706697 522.43541781 329 526 C329.66 526 330.32 526 331 526 C331.33 527.65 331.66 529.3 332 531 C332.66 531 333.32 531 334 531 C334.33 532.65 334.66 534.3 335 536 C335.66 536 336.32 536 337 536 C337.67154933 537.28913487 338.33708859 538.58140204 339 539.875 C339.37125 540.59429688 339.7425 541.31359375 340.125 542.0546875 C341 544 341 544 341 546 C341.66 546 342.32 546 343 546 C344.61645508 548.3515625 344.61645508 548.3515625 346.51953125 551.625 C346.85997971 552.20531982 347.20042816 552.78563965 347.55119324 553.38354492 C348.64530409 555.25170454 349.72914687 557.12558516 350.8125 559 C351.88465203 560.84011322 352.9588826 562.67899785 354.03366089 564.51757812 C354.7297767 565.70940265 355.42439049 566.9021058 356.11746216 568.09570312 C357.99374106 571.3193036 359.92776655 574.49069511 361.94921875 577.625 C363.62979359 580.39074603 364.36941915 581.96592486 365 585 C365.66 585 366.32 585 367 585 C367.33 586.65 367.66 588.3 368 590 C368.66 590 369.32 590 370 590 C373 594.38461538 373 594.38461538 373 597 C373.66 597 374.32 597 375 597 C375.29132812 597.60585937 375.58265625 598.21171875 375.8828125 598.8359375 C378.59772736 604.38529178 381.54276277 609.66030531 384.86328125 614.87109375 C386 617 386 617 386 620 C386.66 620 387.32 620 388 620 C389.5078125 622.1171875 389.5078125 622.1171875 391.125 624.875 C391.66382813 625.77992188 392.20265625 626.68484375 392.7578125 627.6171875 C394 630 394 630 394 632 C394.66 632 395.32 632 396 632 C396.58007812 633.19496094 396.58007812 633.19496094 397.171875 634.4140625 C400.44377494 641.20724151 400.44377494 641.20724151 404.375 647.625 C406 650 406 650 406 652 C406.66 652 407.32 652 408 652 C408.33 653.65 408.66 655.3 409 657 C409.66 657 410.32 657 411 657 C412.14501953 658.51293945 412.14501953 658.51293945 413.3828125 660.61328125 C414.04990234 661.7434668 414.04990234 661.7434668 414.73046875 662.89648438 C415.19066406 663.69376953 415.65085937 664.49105469 416.125 665.3125 C416.59292969 666.09818359 417.06085937 666.88386719 417.54296875 667.69335938 C421 673.61465926 421 673.61465926 421 677 C421.66 677 422.32 677 423 677 C424.14501953 678.52880859 424.14501953 678.52880859 425.3828125 680.6484375 C426.04990234 681.78539063 426.04990234 681.78539063 426.73046875 682.9453125 C427.19066406 683.74710938 427.65085937 684.54890625 428.125 685.375 C428.59292969 686.1690625 429.06085937 686.963125 429.54296875 687.78125 C433 693.7277469 433 693.7277469 433 696 C433.66 696 434.32 696 435 696 C435.67154933 697.28913487 436.33708859 698.58140204 437 699.875 C437.37125 700.59429688 437.7425 701.31359375 438.125 702.0546875 C439 704 439 704 439 706 C439.66 706 440.32 706 441 706 C448 718.06896552 448 718.06896552 448 722 C448.57234375 722.18691406 449.1446875 722.37382812 449.734375 722.56640625 C453.00399629 724.63528731 454.44271716 727.62749494 456.25 730.9375 C456.79527344 731.88786133 456.79527344 731.88786133 457.3515625 732.85742188 C458.97706787 735.76316549 460 737.61995588 460 741 C460.66 741 461.32 741 462 741 C463.5078125 743.1171875 463.5078125 743.1171875 465.125 745.875 C465.66382813 746.77992188 466.20265625 747.68484375 466.7578125 748.6171875 C468 751 468 751 468 753 C468.66 753 469.32 753 470 753 C470.98163422 754.93625098 471.96022454 756.87404539 472.9375 758.8125 C473.48277344 759.89144531 474.02804687 760.97039063 474.58984375 762.08203125 C476 765 476 765 477 768 C477.66 768 478.32 768 479 768 C479.67154933 769.28913487 480.33708859 770.58140204 481 771.875 C481.37125 772.59429688 481.7425 773.31359375 482.125 774.0546875 C483 776 483 776 483 778 C483.66 778 484.32 778 485 778 C486.35597027 780.03126728 487.57585816 782.04498091 488.7734375 784.16796875 C489.13845367 784.79979568 489.50346985 785.43162262 489.87954712 786.08259583 C491.05179183 788.11357867 492.21403576 790.15005097 493.375 792.1875 C494.52991158 794.20642619 495.68700591 796.2240041 496.84902954 798.23884583 C497.57249543 799.49403483 498.29178268 800.75164472 499.00619507 802.01200867 C500.58819293 804.7635865 502.21780423 807.27168871 504.20556641 809.7512207 C506.1760522 812.22062814 506.64534331 813.89675395 507 817 C507.66 817 508.32 817 509 817 C509.29132812 817.53367187 509.58265625 818.06734375 509.8828125 818.6171875 C514.57828312 827.15172215 519.63755555 835.43780321 524.8125 843.6875 C528.28415747 849.2293209 531.73326116 854.78384008 535.125 860.375 C535.51534424 861.01139404 535.90568848 861.64778809 536.30786133 862.3034668 C539 866.76753776 539 866.76753776 539 869 C539.66 869 540.32 869 541 869 C541.58007812 870.19496094 541.58007812 870.19496094 542.171875 871.4140625 C545.44377494 878.20724151 545.44377494 878.20724151 549.375 884.625 C551 887 551 887 551 889 C551.66 889 552.32 889 553 889 C553.33 890.65 553.66 892.3 554 894 C554.66 894 555.32 894 556 894 C557.26171875 895.765625 557.26171875 895.765625 558.6875 898.25 C559.21690186 899.16136719 559.74630371 900.07273437 560.29174805 901.01171875 C560.85547119 901.99785156 561.41919434 902.98398438 562 904 C563.17132615 906.02190674 564.3445204 908.04273235 565.51953125 910.0625 C566.10428223 911.06796875 566.6890332 912.0734375 567.29150391 913.109375 C570.05216187 917.78016527 572.96048029 922.35643597 575.92773438 926.8984375 C578.23184491 930.493949 579.8289227 933.89183578 581 938 C581.66 938 582.32 938 583 938 C583.33 939.65 583.66 941.3 584 943 C584.66 943 585.32 943 586 943 C586.67154933 944.28913487 587.33708859 945.58140204 588 946.875 C588.37125 947.59429688 588.7425 948.31359375 589.125 949.0546875 C590 951 590 951 590 953 C590.66 953 591.32 953 592 953 C593.34106445 954.89257812 593.34106445 954.89257812 594.86328125 957.53125 C595.42080078 958.48773437 595.97832031 959.44421875 596.55273438 960.4296875 C597.13345703 961.44289063 597.71417969 962.45609375 598.3125 963.5 C599.45349843 965.46928835 600.59541144 967.43804711 601.73828125 969.40625 C602.28693848 970.35628906 602.8355957 971.30632813 603.40087891 972.28515625 C604.85705335 974.75731805 606.36935406 977.17884997 607.91796875 979.59375 C610 983 610 983 610 985 C610.66 985 611.32 985 612 985 C612.33 986.65 612.66 988.3 613 990 C613.66 990 614.32 990 615 990 C615.66 992.31 616.32 994.62 617 997 C617.66 997 618.32 997 619 997 C620.00508801 998.78881736 621.00392736 1000.58114696 622 1002.375 C622.556875 1003.37273438 623.11375 1004.37046875 623.6875 1005.3984375 C625 1008 625 1008 625 1010 C625.66 1010 626.32 1010 627 1010 C628.35724211 1011.99569557 629.57628156 1013.97254688 630.7734375 1016.0625 C631.13845367 1016.68721191 631.50346985 1017.31192383 631.87954712 1017.95556641 C632.65462357 1019.28524962 633.42611453 1020.61702816 634.19433594 1021.95068359 C635.35639238 1023.96770216 636.5286373 1025.97848126 637.703125 1027.98828125 C638.45634637 1029.28349543 639.20896853 1030.5790583 639.9609375 1031.875 C640.3058725 1032.46804932 640.6508075 1033.06109863 641.00619507 1033.67211914 C643.5246661 1038.0507994 645.73085432 1042.46170864 648 1047 C314.37 1047 -19.26 1047 -363 1047 C-363.04125 900.088125 -363.0825 753.17625 -363.125 601.8125 C-363.14320801 555.36218018 -363.16141602 508.91186035 -363.18017578 461.05395508 C-363.18920898 404.49157715 -363.18920898 404.49157715 -363.19088745 378.04301453 C-363.19287993 358.28103908 -363.20151576 338.51907726 -363.21334685 318.75710565 C-363.22524405 298.61290629 -363.22967529 278.46871556 -363.2268899 258.32451282 C-363.22545327 246.34242079 -363.22944925 234.36036081 -363.24161519 222.3782747 C-363.24910245 214.46859203 -363.24934879 206.55893069 -363.24367068 198.64924657 C-363.24064343 194.14298396 -363.2407881 189.63678295 -363.24976516 185.1305269 C-363.25789232 181.01862438 -363.2567066 176.90683088 -363.24827967 172.79492992 C-363.24685821 171.3210107 -363.24874825 169.84708334 -363.25447057 168.37317454 C-363.29426272 157.42571823 -363.30173443 145.84855561 -358.5625 135.75 C-357.03970465 132.37336684 -355.66712035 129.11606566 -354.625 125.5625 C-350.2904711 112.14494143 -341.54045701 101.61907789 -332.18359375 91.41015625 C-330.24879542 89.27460961 -328.40465241 87.08991737 -326.5625 84.875 C-319.91566318 77.26329977 -311.29692723 71.65638658 -303 66 C-302.29488281 65.49726562 -301.58976562 64.99453125 -300.86328125 64.4765625 C-290.26889596 57.07420088 -277.94218478 50.65925446 -265 49 C-265 48.34 -265 47.68 -265 47 C-253.47332551 41.97728013 -241.49502774 39.18894488 -229.3125 36.25 C-226.28132945 35.51162869 -223.25076657 34.77085884 -220.2207489 34.027771 C-218.34849705 33.56935338 -216.47548244 33.1140373 -214.60163879 32.66217041 C-213.76283676 32.45815613 -212.92403473 32.25414185 -212.05981445 32.04394531 C-211.32181107 31.86583313 -210.58380768 31.68772095 -209.82344055 31.50421143 C-207.92282452 31.0416872 -207.92282452 31.0416872 -206 30 C-202.76781407 29.55991976 -199.5357777 29.18772461 -196.29296875 28.83789062 C-192.09063817 28.35300633 -188.11151221 27.58020398 -184.02294922 26.50170898 C-180.50960919 25.63037013 -176.94682582 25.074525 -173.375 24.5 C-172.59809814 24.37254395 -171.82119629 24.24508789 -171.02075195 24.11376953 C-164.99756013 23.13550202 -158.9643344 22.25320684 -152.91796875 21.4296875 C-151.08447712 21.15969543 -149.25695059 20.83980127 -147.4453125 20.44921875 C-144.80512285 19.96419988 -142.36914073 19.90174479 -139.6875 19.9375 C-138.36298828 19.95103516 -138.36298828 19.95103516 -137.01171875 19.96484375 C-136.01591797 19.98224609 -136.01591797 19.98224609 -135 20 C-135 19.34 -135 18.68 -135 18 C-128.34362157 16.76160401 -121.7528064 16.90860864 -115 17 C-115 16.34 -115 15.68 -115 15 C-113.85789063 14.90203125 -112.71578125 14.8040625 -111.5390625 14.703125 C-96.36611275 13.32954698 -81.27055304 11.24774572 -66.2824707 8.50219727 C-56.31835468 6.70518739 -46.26074216 5.87258759 -36.1875 4.9375 C-33.41549685 4.67733029 -30.64362028 4.41591757 -27.87190247 4.15272522 C-26.16024423 3.99047716 -24.44840987 3.83007221 -22.7363739 3.67185974 C-18.13375451 3.2387268 -13.57604669 2.66622495 -9 2 C-7.35514934 1.93943849 -5.70827043 1.91218045 -4.0625 1.9375 C-3.29035156 1.94652344 -2.51820313 1.95554687 -1.72265625 1.96484375 C-1.15417969 1.97644531 -0.58570313 1.98804688 0 2 C0 1.34 0 0.68 0 0 Z " fill="#000000" transform="translate(363,1453)"/>
<path d="M0 0 C3.96 0 7.92 0 12 0 C12 0.33 12 0.66 12 1 C-0.37539527 4.20053326 -13.07338487 4.15683877 -25.7890625 4.16796875 C-27.14952629 4.17119379 -28.50998976 4.17455873 -29.87045288 4.17805481 C-32.68887132 4.18397354 -35.50725939 4.18590166 -38.32568359 4.18530273 C-41.93235382 4.18520003 -45.53883197 4.19899488 -49.14545631 4.21607494 C-51.94042866 4.22718245 -54.73535376 4.22922254 -57.53034592 4.22869301 C-59.50458993 4.23043828 -61.47881921 4.24126005 -63.45303345 4.25224304 C-64.64883026 4.24916641 -65.84462708 4.24608978 -67.07666016 4.24291992 C-68.12697418 4.24434494 -69.17728821 4.24576996 -70.25942993 4.24723816 C-73 4 -73 4 -77 2 C-51.59 2 -26.18 2 0 2 C0 1.34 0 0.68 0 0 Z " fill="#7F7F7F" transform="translate(751,1510)"/>
<path d="M0 0 C48.45556788 -1.02962142 48.45556788 -1.02962142 59 6 C58.03964844 5.85691406 57.07929687 5.71382812 56.08984375 5.56640625 C51.59151684 4.92378812 47.07944547 4.42886796 42.5625 3.9375 C41.73556641 3.84662109 40.90863281 3.75574219 40.05664062 3.66210938 C38.03787124 3.44039482 36.01895096 3.22005497 34 3 C34 2.34 34 1.68 34 1 C22.78 1 11.56 1 0 1 C0 0.67 0 0.34 0 0 Z " fill="#7B7B7B" transform="translate(1064,1431)"/>
<path d="M0 0 C3.96 0 7.92 0 12 0 C12 0.33 12 0.66 12 1 C0.84013523 3.88617192 -10.51749241 4.2109032 -22 4 C-22 3.67 -22 3.34 -22 3 C-17.14270355 2.02700844 -12.5499375 1.87961195 -7.625 1.9375 C-6.88894531 1.94201172 -6.15289063 1.94652344 -5.39453125 1.95117188 C-3.59631842 1.96284858 -1.79814803 1.98077989 0 2 C0 1.34 0 0.68 0 0 Z " fill="#A8A8A8" transform="translate(751,1510)"/>
<path d="M0 0 C0.33 0 0.66 0 1 0 C1 1.65 1 3.3 1 5 C1.66 5 2.32 5 3 5 C3.33 8.3 3.66 11.6 4 15 C0.34748992 9.52123488 -0.2189011 6.56703301 0 0 Z " fill="#8A8A8A" transform="translate(1137,312)"/>
</svg>
